<?xml version="1.0" encoding="utf-8"?>
<!-- Generator: Adobe Illustrator 16.0.0, SVG Export Plug-In . SVG Version: 6.00 Build 0)  -->
<!DOCTYPE svg PUBLIC "-//W3C//DTD SVG 1.1//EN" "http://www.w3.org/Graphics/SVG/1.1/DTD/svg11.dtd">
<svg version="1.1" id="レイヤー_6" xmlns="http://www.w3.org/2000/svg" xmlns:xlink="http://www.w3.org/1999/xlink" x="0px"
	 y="0px" width="986px" height="986px" viewBox="0 0 986 986" style="enable-background:new 0 0 986 986;" xml:space="preserve">
<style type="text/css">
<![CDATA[
	.st0{fill:#69BFFF;}
]]>
</style>
<g>
	<path class="st0" d="M834.002,248.303c-0.165,0.188-0.236,0.303-0.23,0.313c0.047-0.063,0.099-0.124,0.148-0.186
		C833.945,248.394,833.973,248.351,834.002,248.303z"/>
	<path class="st0" d="M754.705,261.218C754.93,261.024,754.9,261.017,754.705,261.218L754.705,261.218z"/>
	<path class="st0" d="M775.688,151.642c-0.031,0.005-0.063,0.011-0.096,0.017c0.008,0.001,0.013,0.002,0.02,0.004
		C775.638,151.657,775.661,151.647,775.688,151.642z"/>
	<path class="st0" d="M759.25,254.412C757.704,257.661,760.9,251.67,759.25,254.412L759.25,254.412z"/>
	<path class="st0" d="M691.576,250.414c0.023,0.22,0.154,0.781,0.457,1.882c0.07,0.254,0.173,0.481,0.273,0.709
		c0.104,0.769,0.334,1.517,0.759,2.208c0.103,0.167,0.181,0.344,0.238,0.5c-0.022-0.107-0.048-0.23-0.076-0.384
		c0.032,0.174,0.073,0.329,0.112,0.486c0.045,0.138,0.072,0.248,0.08,0.302c0.172,0.588,0.396,1.117,0.686,1.793
		c0.271,0.614,0.175,0.448-0.291-0.498c0.193,1.015,0.655,1.877,1.28,2.66c0.12,1.374,0.808,2.547,1.667,3.604
		c0.099,0.215,0.217,0.467,0.361,0.763c0.274,0.564,0.628,1.057,1.004,1.544c-1.715-2.195-0.834-1.136,0.201,0.677
		c0.492,0.861,0.674,1.465,1.469,2.261c0.254,0.254,0.468,0.461,0.649,0.632c0.148,0.212,0.308,0.413,0.473,0.597
		c0.149,0.23,0.339,0.516,0.599,0.898c0.88,1.295,1.789,2.395,2.972,3.166c0.037,0.039,0.062,0.071,0.102,0.111
		c0.444,0.441,0.938,0.797,1.472,1.084c0.872,0.959,1.703,1.945,3.012,2.336c0.408,0.266,0.847,0.481,1.313,0.647
		c0.619,0.375,1.27,0.668,2.029,0.987c1.207,0.507,2.973,1.226,1.834,0.657c0.535,0.232,1.072,0.431,1.584,0.506
		c0.304,0.045,0.607,0.092,0.912,0.138c0.789,0.348,1.623,0.53,2.506,0.532c0.584-0.019,1.168-0.106,1.752-0.155
		c0.602,0.191,1.226,0.3,1.879,0.302c0.684,0,1.304-0.135,1.9-0.339c0.455-0.034,0.902-0.111,1.348-0.236
		c1.107-0.035,2.138-0.277,3.141-0.771c1.881-0.288,3.76-0.641,1.702-0.474c0.47-0.051,0.929-0.117,1.312-0.222
		c0.221-0.061,0.938-0.5,1.602-0.922c0.631-0.136,1.237-0.358,1.813-0.692c0.318-0.179,0.625-0.372,0.924-0.577
		c0.077-0.021,0.137-0.037,0.221-0.061c1.131-0.311,1.953-0.904,2.668-1.643c0.506-0.296,0.993-0.633,1.477-1.068
		c0.076-0.068,0.132-0.12,0.185-0.167c0.062-0.051,0.141-0.117,0.234-0.195c0.476-0.168,0.933-0.391,1.364-0.66
		c0.684-0.426,1.214-0.889,1.653-1.398c1.162-0.7,2.186-1.628,3.119-2.658c1.946-2.146,1.229-1.341-0.612,0.034
		c0.803-0.6,1.359-1.073,1.931-1.729c0.617-0.408,1.185-0.877,1.714-1.395c0.498-0.485,0.945-0.995,1.341-1.546
		c0.169-0.165,0.358-0.351,0.599-0.591c0.496-0.496,0.939-1.216,1.363-1.815c0.357-0.505,0.653-0.838,0.826-1.015
		c-0.227,0.194-0.705,0.573-1.545,1.128c1.49-0.985,2.295-2.047,2.779-3.354c0.155-0.216,0.301-0.439,0.427-0.675
		c0.001-0.001,0.003-0.001,0.004-0.002c-0.608,1.168-0.079,0.451,0.4-0.301c0.538-0.445,0.997-0.97,1.362-1.588
		c0.179-0.305,0.318-0.615,0.429-0.93c0.084-0.119,0.179-0.224,0.255-0.354c0.172-0.293,0.314-0.534,0.434-0.73
		c0.075-0.16,0.158-0.333,0.258-0.539c0.154-0.318,0.31-0.637,0.457-0.959c0.381-0.438,0.73-1.046,1.037-1.517
		c1.911-2.945,0.107-0.669,0.564-1.34c0.604-0.887,0.868-1.332,0.938-1.512c0.62-0.835,1.083-1.894,1.356-2.956
		c0.316-0.507,0.566-1.048,0.714-1.632c0.138-0.214,0.242-0.377,0.259-0.399c0.393-0.685,0.641-1.409,0.742-2.173
		c0.373-0.699,0.705-1.362,0.918-2.125c0.072-0.121,0.141-0.236,0.225-0.381c0.324-0.554,0.55-1.141,0.68-1.759
		c-0.654,2.699,0.661-1.937,0.508-0.967c0.098-0.615,0.324-1.157,0.448-1.761c-0.437,2.143,0.433-1.042,0.421-1
		c0.409-1.488,0.485-1.876,0.41-1.763c0-0.001-0.003,0.001-0.004,0c0.483-1.207,1.131-3.351,0.592-2.336
		c0.281-0.584,0.553-1.174,0.684-1.805c-0.445,2.143,0.893-2.723,0.893-3.211c0-0.019,0-0.034,0-0.052
		c0.256-0.654,0.394-1.34,0.396-2.063c0-0.42-0.001-0.744-0.004-0.999c0.149-0.647,0.273-1.266,0.351-1.896
		c0.129-0.387,0.215-0.767,0.275-1.149c0.52-0.979,0.799-2.041,0.543-3.185c0.301-0.813,0.424-1.598,0.356-2.455
		c0.093-0.58,0.1-1.198,0.075-1.807c0.05-0.175,0.104-0.372,0.17-0.609c0.3-1.092,0.133-2.023-0.068-3.104
		c0.424,2.279,0.234,0.26,0.377-1.136c0.018-0.176,0.031-0.314,0.045-0.459c0.137-0.642,0.146-1.323,0.002-1.955
		c0.029-0.371,0.001-0.731-0.053-1.089c0.143-0.874,0.092-1.77-0.139-2.813c-0.048-0.216-0.09-0.403-0.127-0.566
		c0.205-0.955,0.16-1.888-0.248-2.981c-0.037-0.584-0.113-1.164-0.242-1.735c0.178,0.788,0.125,0.487,0.077,0.147
		c0.036-0.31,0.071-1.7,0.052-1.43c0.052-0.738-0.035-1.391-0.234-2.015c0.041-0.282,0.073-0.562,0.073-0.829
		c0-3.77-0.062,2.283-0.062-1.423c0-3.633,0.04,2.12,0.04-1.402c0-1.333,0.181-1.125-0.204-2.346
		c-0.451-1.425,0.678-4.371,0.242-6.726c-0.532-2.878-4.572-1.917-4.788,0.648c-0.003,0.034-0.001,0.051-0.001,0.067
		c-0.041-0.009-0.177,0.073-0.57,0.608c-0.486,0.661-0.631,1.581-0.746,2.373c-0.02,0.135-0.52,1.166-0.646,1.667
		c-0.137,0.546-0.291,0.805-0.354,1.362c-0.06,0.121-0.114,0.232-0.156,0.321c-0.099,0.161-0.227,0.375-0.411,0.689
		c-0.356,0.609-0.48,1.217-0.493,1.847c-0.041,0.144-0.087,0.307-0.142,0.503c-0.141,0.517-0.147,1.005-0.095,1.496
		c-0.022,0.078-0.044,0.154-0.081,0.254c-0.325,0.889-0.293,1.685-0.09,2.463c-0.381,1.837-0.682,3.9-0.296,5.693
		c-0.052,0.224-0.091,0.393-0.111,0.476c-0.112,0.77-0.081,1.435,0.011,2.087c-0.145,0.443-0.225,0.897-0.242,1.362
		c-0.025,0.09-0.041,0.514-0.041,1.546c0,0.099,0.012,0.193,0.018,0.289c-0.634,2.356,0.081,0.637-0.025,1.237
		c-0.145,0.818-0.383,0.989-0.438,2.049c-0.004,0.078-0.009,0.143-0.015,0.209c-0.383,1.044-0.385,2.155-0.505,3.291
		c-0.012,0.031-0.021,0.056-0.035,0.093c-0.136,0.38-0.185,0.765-0.189,1.152c-0.31,0.774-0.508,1.557-0.585,2.362
		c-0.205,0.438-0.346,0.902-0.411,1.398c-0.055,0.19-0.116,0.409-0.188,0.668c-0.62,2.256-0.425,1.781,0.028,0.739
		c-0.488,1.148-0.822,2.212-0.963,3.338c-0.348,0.751-0.551,1.519-0.623,2.342c-0.151,0.289-0.285,0.587-0.402,0.896
		c-0.016,0.133-0.076,0.399-0.176,0.621c-0.359,0.791-0.693,1.582-0.955,2.409c-0.497,1.563-0.554,1.852-0.406,1.581
		c0.045-0.051,0.15-0.209,0.348-0.534c-0.264,0.433-0.472,0.877-0.637,1.334c-0.049-0.062-0.193,0.368-0.499,1.785
		c-0.155,0.719-1.1,2.332-0.17,1.014c-0.178,0.252-0.322,0.521-0.45,0.797c-0.521,0.635-0.902,1.352-1.13,2.159
		c-0.097,0.383-0.177,0.734-0.24,1.094c-0.474,0.641-0.791,1.34-0.996,2.077c-0.375,0.577-0.671,1.186-0.876,1.837
		c-0.327,0.487-0.593,1.017-0.76,1.624c-0.027,0.097-0.05,0.183-0.073,0.272c-0.241,0.268-0.459,0.558-0.634,0.89
		c-0.391,0.787-0.781,1.577-1.023,2.425c0.545-1.915-0.453,0.662-0.6,1.322c0.223-1.006,1.105-2.689-0.488,0.033
		c-1.412,2.411-0.68,1.501,0.188,0.438c-0.377,0.462-0.685,0.914-0.963,1.375c-0.445,0.447-0.809,0.927-1.096,1.449
		c-1.693,1.706-0.896,1.092-0.639,0.885c-0.022,0.018-0.045,0.036-0.08,0.066c-0.458,0.456-0.828,0.967-1.113,1.536
		c0.053-0.062,0.08-0.094,0.125-0.146c-0.501,0.602-0.876,1.22-1.133,1.897c-0.266,0.338-0.52,0.688-0.771,1.048
		c1.08-1.634-1.436,1.38-2.129,2.529c0.008-0.03,0.003-0.047-0.035-0.026c0.049-0.028-3.211,2.694-1.262,1.274
		c-0.934,0.68-1.951,1.31-2.479,2.399c-0.025,0.053-0.042,0.092-0.06,0.132c-0.954,0.31-1.687,0.839-2.271,1.511
		c-0.164,0.081-0.334,0.145-0.491,0.247c-0.519,0.381-1.026,0.777-1.521,1.188c2.066-1.699-1.251,0.991-0.898,0.598
		c-0.084,0.094-0.145,0.167-0.206,0.242c-0.076,0.044-0.152,0.088-0.226,0.134c-0.467,0.127-0.927,0.291-1.377,0.549
		c-0.238,0.137-0.687,0.418-1.107,0.692c-0.5,0.14-0.984,0.342-1.449,0.612c-0.146,0.102-0.287,0.212-0.432,0.316
		c-0.722,0.104-1.406,0.339-2.059,0.693c-0.291,0.065-0.572,0.145-0.848,0.235c-0.119,0-0.227-0.001-0.363-0.001
		c-0.767,0-1.461,0.162-2.125,0.416c-0.113,0.014-0.225,0.035-0.337,0.054c-0.579-0.061-1.171-0.083-1.798-0.082
		c-0.156-0.044-0.308-0.087-0.498-0.139c0.211,0.058-0.326-0.007-0.907-0.084c-0.331-0.08-0.745-0.194-1.019-0.324
		c-0.48-0.228-0.905-0.375-1.326-0.495c-0.165-0.124-0.341-0.228-0.516-0.333c-0.239-0.157-0.652-0.411-1.333-0.809
		c-0.136-0.079-0.256-0.148-0.372-0.214c-0.028-0.029-0.051-0.053-0.08-0.083c-0.314-0.323-0.641-0.598-0.975-0.846
		c-0.406-0.563-0.898-1.069-1.462-1.469c-0.413-0.691-0.964-1.292-1.571-1.832c-0.044-0.126-0.104-0.275-0.199-0.477
		c-0.35-0.592-0.783-1.099-1.284-1.54c-0.157-0.387-0.34-0.76-0.598-1.094c-0.06-0.078-0.103-0.133-0.146-0.187
		c0.302,0.353,0.727,0.748-0.572-1.469c-0.123-0.21-0.266-0.416-0.418-0.619c-0.19-0.671-0.469-1.321-0.806-1.958
		c-0.161-0.265-0.394-0.654-0.636-1.054c-0.03-0.092-0.072-0.208-0.137-0.361c-0.383-0.918-0.533-1.816-0.864-2.729
		c-0.062-0.643-0.205-1.263-0.453-1.854c-0.079-0.506-0.212-1.001-0.414-1.458c-0.028-0.64-0.126-1.277-0.327-1.971
		c-0.018-0.06-0.032-0.11-0.049-0.167c0.17-1.076,0.04-2.142-0.338-3.165c-0.006-0.086-0.016-0.187-0.032-0.323
		c-0.054-0.447-0.101-0.877-0.17-1.301c0.091-0.728,0.124-1.478,0.138-2.296c0.016-0.965,0.145-3.584-0.066-1.437
		c0.042-0.431,0.008-0.865-0.03-1.297c0.04,0.26,0.084,0.104,0.073-1.937c-0.003-0.568-0.048-1.134-0.053-1.701
		c0.207-0.687,0.281-1.383,0.252-2.087c0.205-1.018,0.184-2.065-0.09-3.261c0.229,0.995,0.303,1.656,0.32,2.028
		c0.03-0.261,0.101-0.653,0.254-1.165c0.164-0.548,0.281-1.44,0.334-2.025c0.01-0.033,0.018-0.06,0.029-0.101
		c0.207-0.782,0.301-1.544,0.293-2.303c0.234-0.706,0.387-1.433,0.439-2.182c0.149-0.393,0.287-0.802,0.424-1.158
		c0.072-0.367,0.126-0.736,0.167-1.106c0.251-0.534,0.429-1.104,0.601-1.67c0.092-0.302,0.166-0.557,0.227-0.778
		c0.22-0.391,0.405-0.8,0.518-1.249c0.336-1.222,0.451-1.725,0.447-1.835c0.302-0.485,0.54-1.008,0.699-1.576
		c0.218-0.792,0.338-1.287,0.393-1.574c0.152-0.331,0.314-0.685,0.435-0.959c0.302-0.481,0.649-1.065,0.783-1.349
		c0.399-0.844,0.733-1.638,0.929-2.488c0.148-0.23,0.281-0.471,0.4-0.725c0.499-0.616,0.906-1.295,1.099-2.092
		c0.022-0.092,0.031-0.185,0.052-0.276c0.283-0.395,0.529-0.817,0.727-1.279c0.15-0.352,0.346-0.603,0.576-0.907
		c1.146-1.516,1.117-1.58,0.762-1.224c0.233-0.362,0.648-1.106,0.729-1.243c0.047-0.08,0.078-0.139,0.104-0.188
		c0.379-0.439,0.684-0.892,0.915-1.375c0.242-0.275,0.462-0.565,0.646-0.882c0.319-0.31,0.615-0.648,0.856-1.061
		c0.131-0.223,0.233-0.401,0.326-0.563c0.151-0.175,0.325-0.379,0.551-0.651c0.523-0.63,1.045-1.261,1.502-1.942
		c-0.631,0.939-0.071,0.189,0.396-0.497c0.325-0.265,0.618-0.563,0.872-0.898c0.147-0.139,0.316-0.305,0.518-0.505
		c0.297-0.29,0.533-0.619,0.742-0.965c0.462-0.318,0.862-0.713,1.248-1.132c0.418-0.455,0.677-0.754,0.838-0.958
		c0.32-0.224,0.625-0.454,0.92-0.729c-0.408,0.547-0.523,0.834,0.979-0.667c0.283-0.284,0.485-0.494,0.651-0.672
		c0.552-0.37,1.026-0.775,1.474-1.309c0.418-0.256,0.777-0.549,1.115-0.877c0.208-0.125,0.413-0.261,0.611-0.402
		c-0.09,0.093,0.216-0.075,1.357-0.743c0.541-0.317,0.975-0.712,1.344-1.163c0.688-0.401,1.299-0.896,1.861-1.552
		c0.031-0.009,0.064-0.019,0.114-0.039c-0.12,0.206-0.054,0.191,0.323-0.151c0.234-0.118,0.546-0.285,0.979-0.532
		c0.648-0.371,1.272-0.768,1.787-1.314c0.778-0.344,1.42-0.872,2.014-1.493c0.039-0.021,0.082-0.036,0.121-0.057
		c-0.121,0.15,0.164,0.034,1.439-0.777c0.408-0.26,0.795-0.531,1.182-0.824c0.605-0.359,1.117-0.814,1.535-1.361
		c0.557-0.212,1.063-0.512,1.52-0.897c0.678-0.314,1.277-0.753,1.845-1.309c-1.872,1.835-1.674,1.384,0.237,0.168
		c0.454-0.289,0.831-0.609,1.182-0.95c0.297-0.162,0.578-0.34,0.836-0.548c0.211-0.081,0.415-0.18,0.604-0.32
		c0.683-0.185,1.276-0.48,1.802-0.879c0.261-0.1,0.517-0.213,0.765-0.351c0.487-0.104,0.959-0.266,1.397-0.552
		c0.059-0.038,0.159-0.096,0.272-0.16c0.481-0.086,1.21-0.263,1.511-0.359c0.565-0.183,1.063-0.395,1.525-0.659
		c0.771-0.036,1.535-0.172,2.299-0.294c0.811-0.13,1.576-0.499,2.289-0.888c-0.824,0.451-0.366,0.293,0.298,0.014
		c0.175,0.036,1.28-0.01,1.632-0.01c0.431,0,0.828-0.072,1.215-0.173c0.613,0.027,1.217-0.056,1.803-0.245
		c0.715-0.011,1.459-0.128,2.307-0.327c-2.942,0.691-2.089,0.547,0.039,0.376c0.724-0.058,1.364-0.172,1.977-0.366
		c0.77,0.177,1.523,0.203,2.286,0.06c0.022,0.004,0.046,0.011,0.069,0.014c0.66,0.101,4.629-0.218,2.856-0.055
		c-2.173,0.199,2.853,0.709,0.735,0.132c0.863,0.235,1.631,0.267,2.369,0.164c0.343,0.06,0.691,0.091,1.055,0.085
		c0.131,0.028,0.29,0.056,0.519,0.087c3.417,0.466-0.605,0.396,2.841,0.396c0.176,0,0.332-0.001,0.479-0.002
		c0.55,0.121,1.105,0.206,1.67,0.247c0.057-0.004,0.1-0.009,0.142-0.014c0.735,0.179,1.471,0.202,2.206,0.074
		c0.604,0.234,1.242,0.36,1.928,0.386c0.215,0.008,0.429,0.003,0.641-0.006c0.973,0.361,1.971,0.616,3.014,0.701
		c0.371,0.219,0.764,0.406,1.215,0.538c0.659,0.191,1.272,0.418,1.916,0.543c0.386,0.19,0.81,0.316,1.254,0.384
		c0.736,0.48,1.615,0.72,2.488,0.831c0.211,0.084,0.535,0.203,1,0.362c0.768,0.869,1.814,1.466,2.949,1.708
		c0.396,0.321,0.85,0.718,0.286,0.058c0.007,0.001,0.015,0.003,0.022,0.004c0.904,0.979,2.012,1.541,3.226,1.847
		c0.204,0.131,0.414,0.255,0.634,0.367c0.303,0.155,0.481,0.24,0.586,0.285c-0.016,0.021,0.045,0.109,0.338,0.362
		c0.715,0.618,1.383,1.3,2.23,1.741c-1.102-0.573-0.037-0.017,0.983,0.538c0.509,0.667,1.167,1.197,1.913,1.586
		c-0.951-0.495-0.114,0.146,0.686,0.705c0.321,0.456,0.684,0.728,1.145,1.084c0.402,0.313,0.785,0.578,1.167,0.824
		c0.756,1.182,1.689,1.925,2.948,2.46c0.029,0.029,0.056,0.061,0.087,0.089c1.302,1.164-1.233-1.023,1.177,1.387
		c1.127,1.127,1.332,1.23,1.236,1.035c0.293,0.333,0.604,0.617,0.936,0.862c0.138,0.188,0.275,0.375,0.449,0.547
		c0.604,0.603,0.914,0.922,1.041,1.05c0.375,0.495,0.773,0.955,1.201,1.379c0.047,0.096,0.09,0.193,0.145,0.286
		c0.303,0.512,0.68,0.952,1.111,1.335c0.073,0.117,0.147,0.233,0.226,0.353c0.243,0.371,0.423,0.632,0.572,0.842
		c0.159,0.323,0.338,0.586,0.615,0.954c0.201,0.267,0.359,0.469,0.499,0.644c0.608,1.05,1.674,2.7,0.855,1.472
		c0.221,0.331,0.597,0.994,0.831,1.381c0.192,0.505,0.388,1.02,0.296,0.864c0.424,0.723,0.649,1.078,0.768,1.237
		c0.139,0.735,0.353,1.47,0.705,2.028c0.085,0.134,0.158,0.271,0.239,0.404c-0.087-0.019,0.524,1.469,0.79,1.88
		c-0.853-1.324,0.163,0.406,0.54,1.179c0.036,0.523,0.108,1.042,0.276,1.555c0.229,0.692,0.479,1.375,0.881,1.986
		c-0.801-1.218-0.185-0.045,0.166,0.632c0,0.001,0,0.001,0,0.002c0.039,0.896,0.205,1.656,0.483,2.353
		c0.052,0.477,0.165,0.936,0.335,1.379c0.047,0.418,0.129,0.833,0.24,1.242c0.084,0.311,0.136,0.465,0.165,0.528
		c0.132,1.118,0.255,2.249,0.427,3.376c0.014,0.089,0.025,0.167,0.037,0.239c0.018,0.221,0.038,0.469,0.063,0.761
		c-0.195-2.322,0.369,4.508,0.178,2.507c0.09,0.932-0.325,0.952,0.133,2.223c0.012,0.031,0.02,0.05,0.029,0.074
		c-0.002,0.064-0.004,0.132-0.006,0.216c-0.045,2.658-0.05-0.913-0.154,2.516c-0.013,0.431-0.014,0.847-0.005,1.259
		c-0.214,0.727-0.321,1.484-0.343,2.317c-0.025,1.003,0.002,1.488,0.053,1.669c-0.113,0.601-0.155,1.308-0.236,1.916
		c-0.01,0.077-0.02,0.139-0.029,0.205c-0.231,0.608-0.383,1.243-0.354,1.916c0.036,0.847-0.232-2.003-0.243,1.217
		c-0.069,0.213-0.147,0.474-0.235,0.794c-0.639,2.323-0.432,1.834-0.09,0.988c-0.199,0.603-0.295,1.185-0.312,1.805
		c-0.263,0.438-0.47,0.909-0.612,1.418c0.082-0.302-0.916,3.349-0.188,1.069c-0.09,0.281-0.148,0.563-0.194,0.847
		c-0.306,0.6-0.513,1.24-0.56,1.955c-0.031,0.113-0.059,0.209-0.095,0.338c-0.032,0.118-0.048,0.22-0.071,0.329
		c-0.171,0.32-0.321,0.656-0.424,1.03c-1.031,3.75,0.129-0.026-0.387,1.78c-0.1,0.345-0.584,1.64-0.375,1.263
		c-0.177,0.352-0.322,0.609-0.434,0.785c0.135-0.153,0.328-0.353,0.596-0.584c-0.258,0.224-0.477,0.464-0.678,0.711
		c-0.092,0.136-0.144,0.193-0.148,0.186c-0.811,1.093-1.139,2.393-1.172,3.827c0.041-1.784,0.195-1.712-0.393-0.018
		c0.665-1.979-0.795,0.735-1.174,1.863c-0.463,0.596-0.743,1.361-1.146,1.978c-0.212,0.365-0.369,0.745-0.496,1.133
		c-0.422,0.484-0.761,1.03-0.986,1.655c-0.264,0.283-0.51,0.586-0.719,0.941c-0.26,0.554-0.492,1.12-0.694,1.697
		c-0.369,0.465-0.754,0.969-1.042,1.39c0.171-0.393,0.119-0.462-0.927,1.239c-0.155,0.252-0.292,0.512-0.421,0.775
		c-0.421,0.464-0.758,0.961-1.018,1.504c-0.396,0.398-0.746,0.837-1.01,1.34c-0.121,0.231-0.151,0.324-0.135,0.34
		c-0.604,0.768-0.997,1.451-1.357,2.324c-0.266,0.35-0.523,0.702-0.777,1.071c-0.139,0.203-0.257,0.423-0.379,0.64
		c-0.671,0.532-1.199,1.16-1.623,1.952c1.141-2.125-0.943,1.409-0.647,0.875c-0.097,0.173-0.138,0.265-0.147,0.309
		c-0.035,0.046-0.074,0.092-0.107,0.138c-0.082,0.014-0.471,0.376-1.219,1.124c-1.919,1.92-1.049,1.113-0.041,0.444
		c-0.947,0.629-1.629,1.374-2.26,2.197c-0.334,0.249-0.627,0.529-0.9,0.831c-0.522,0.312-1.01,0.69-1.461,1.143
		c0.314-0.36,0.277-0.37-0.998,0.906c-0.225,0.224-0.413,0.462-0.579,0.711c-0.323,0.237-0.647,0.473-0.958,0.728
		c-1.297,1.296-1.103,1.269-0.533,0.921c-3.32,3.037-0.869,9.816,4.094,7.966c-1.756,0.655,1.883-0.618,1.871-0.611
		c0.077-0.045,0.139-0.081,0.207-0.122c0.405-0.072,0.754-0.134,0.748-0.119c0.757-0.226,1.424-0.605,2.005-1.129
		c0.328-0.171,0.644-0.372,0.957-0.604c1.229-0.337,2.094-0.994,2.757-1.857c0.531-0.364,1.016-0.802,1.458-1.351
		c0.212-0.168,0.501-0.411,0.89-0.755c0.65-0.575,1.203-1.207,1.629-1.978c-0.055,0.1-2.465,3.72,0.01,0.521
		c0.525-0.679,1.102-1.325,1.537-2.065c-0.915,1.556,0.535-0.642,0.844-1.19c-0.584,1.039-0.164,0.425,0.275-0.271
		c0.141-0.141,0.301-0.299,0.491-0.489c0.528-0.527,1.112-1.39,1.519-2.076c0.248-0.419,0.492-0.839,0.771-1.239
		c-1.036,1.492,0.527-0.962,1.076-1.925c0.258-0.331,0.533-0.694,0.679-0.901c0.586-0.635,1.342-1.477,1.428-1.624
		c0.25-0.428,0.419-0.865,0.537-1.312c0.213-0.302,0.422-0.621,0.635-0.963c-0.975,1.569,0.58-0.639,0.855-1.18
		c0.127-0.249,0.232-0.506,0.344-0.761c0.531-0.615,0.96-1.276,1.337-2.018c0.656-0.659,1.178-1.409,1.534-2.278
		c0.267-0.309,0.517-0.641,0.727-1.03c0.307-0.541,0.558-1.108,0.756-1.701c0.025-0.094,0.044-0.163,0.067-0.249
		c0.156-0.213,0.37-0.51,0.679-0.949c0.492-0.698,0.813-1.417,0.992-2.176c0.387-0.653,0.695-1.357,0.98-2.149
		c-0.637,1.763,0.414-0.696,0.637-1.302c0.047-0.127,0.074-0.258,0.109-0.387c0.281-0.492,0.528-1.014,0.771-1.6
		c0.7-1.684-0.602,1.831,0.701-1.672c0.339-0.91,0.613-1.852,0.811-2.806c0.389-0.658,0.657-1.362,0.76-2.152
		c0.049-0.171,0.1-0.355,0.16-0.575c0.082-0.299,0.126-0.548,0.155-0.783c0.292-0.637,0.474-1.326,0.448-2.121
		c0.01-0.035,0.016-0.075,0.024-0.111c0.615-1.154,0.875-2.359,0.913-3.66c0.055-0.152,0.104-0.308,0.146-0.463
		c-0.016,0.725,0.071,0.924,0.434-1.293c0.115-0.71,0.318-1.549,0.318-2.225c0-0.162-0.001-0.286-0.002-0.424
		c0.008-0.039,0.016-0.078,0.022-0.117c0.063-0.219,0.134-0.468,0.222-0.79c0.217-0.787,0.203-1.468,0.199-2.238
		c-0.002-0.287-0.005-0.475-0.008-0.599c0.012,0.077,0.032,0.115,0.069-0.032c0.271-1.078,0.269-2.1,0.171-3.146
		c0.23-0.612,0.371-1.251,0.371-1.944c0-0.13,0.007-1.958-0.077-1.781c0.023-0.174,0.003-0.096-0.173,0.764
		c0.313-1.537,0.656-4.649,0.096-6.215c0.024-0.462-0.178-1.686-0.252-2.064c0.036-0.425,0.043-0.64-0.04-0.151
		c-0.003-0.007-0.005-0.011-0.007-0.018c0.17-1.305,0.219-2.633-0.277-3.878c-0.117-0.293-0.169-0.568-0.218-0.865
		c0.004-0.039,0.007-0.073,0.011-0.124c0.07-1.056-0.26-2.23-0.547-3.254c0.296,1.057,0.094,0.237-0.221-0.837
		c-0.005-1.024-0.219-1.939-0.676-2.825c-0.189-1.094-0.49-2.138-0.988-3.26c0.547,1.232,0.181,0.135-0.191-0.707
		c-0.004-0.094-0.008-0.197-0.01-0.317c-0.035-1.737-0.769-2.979-1.894-4.234c1.333,1.487,0.896,0.805-0.144-0.787
		c0.762,1.168,0.154-0.086-0.316-1.014c-0.053-0.264-0.164-0.713-0.361-1.429c-0.244-0.887-0.689-1.5-1.137-2.248
		c-0.125-0.22-0.266-0.429-0.412-0.635c-0.307-0.947-1.035-2.063-1.625-2.719c0.194,0.216,0.018-0.064-1.128-1.419
		c2.882,3.406,0.703,0.361-0.205-0.737c-0.128-0.229-0.304-0.538-0.544-0.948c-1.762-3.01-0.287,0.166-1.076-1.443
		c-0.444-0.906-1.111-1.533-1.867-2.096c-0.9-1.235-1.618-2.069-0.504-0.611c-0.744-0.974-1.375-1.836-2.16-2.61
		c-0.496-0.763-1.096-1.371-1.867-1.853c-0.178-0.184-0.367-0.36-0.574-0.521c-3.895-3.021,2.771,2.047-0.955-1.091
		c-0.406-0.342-0.567-0.447-0.624-0.464c-0.002-0.004-0.001-0.004-0.004-0.008c-0.562-0.913-1.351-1.676-2.304-2.151
		c-0.176-0.183-0.414-0.425-0.777-0.788c-0.459-0.459-0.96-0.772-1.498-1.027c-0.654-0.606-1.834-1.582-2.217-1.75
		c1.01,0.442-0.007-0.278-0.852-0.828c-0.5-0.642-1.146-1.178-1.884-1.504c-5.019-2.218,2.661,1.201-1.534-0.946
		c-0.414-0.212,0.527,0.557-0.631-0.432c-0.824-0.704-1.719-1.247-2.57-1.884c-0.529-0.396-0.396-0.353-0.266-0.288
		c-0.158-0.088-0.51-0.289-1.231-0.711c-0.406-0.238-0.815-0.385-1.231-0.496c-0.783-0.715-1.855-1.293-2.975-1.693
		c-0.248-0.229-0.517-0.441-0.827-0.623c-0.538-0.239-1.079-0.465-1.628-0.677c2.156,0.848-1.686-0.688-0.981-0.454
		c-0.55-0.182,1.399,0.058-1.325-0.567c-0.189-0.043-0.381-0.067-0.571-0.104c-0.807-0.525-1.708-0.872-2.67-1.014
		c-0.655-0.306-1.349-0.473-2.079-0.499c-1.273-0.797-2.688-1.087-4.293-1.048c-0.045-0.021-0.097-0.046-0.158-0.075
		c-0.954-0.463-1.761-0.656-2.649-0.665c-0.894-0.41-1.938-0.417-2.899-0.515c-0.576-0.059-1.207,0.024-1.799,0.158
		c-0.297-0.041-0.57-0.077-0.695-0.086c-0.564-0.175-1.051-0.365-1.816-0.365c-0.631,0-1.046,0-1.301,0.001
		c-0.051,0-0.094,0-0.146-0.001c-0.402-0.003-0.828-0.159-0.91-0.21c-0.498-0.12-0.99-0.146-1.483-0.115
		c-0.647-0.133-1.281-0.162-1.923-0.072c-0.756-0.184-1.311-0.291-0.369,0.058c-0.99-0.366-2.298-0.386-3.422-0.152
		c1.211-0.196,1.497,0.364-0.076,0.021c-0.266,0.059-0.533,0.118-0.769,0.206c0.276-0.103,0.525-0.168,0.749-0.21
		c-0.029-0.007-0.054-0.011-0.085-0.018c-0.952-0.221-1.795-0.256-2.604-0.122c-0.428-0.057-0.867-0.07-1.334-0.023
		c-0.699-0.091-1.379-0.101-2.123,0.104c-0.023,0.007-0.039,0.012-0.063,0.018c-0.645-0.094-1.326-0.019-1.99,0.137
		c-0.885-0.172-1.805-0.153-2.635,0.151c-0.5,0.037-0.992,0.143-1.479,0.317c-0.473,0.026-0.937,0.089-1.402,0.198
		c-1.013-0.057-1.985,0.098-3.016,0.642c0.201-0.106-0.209-0.189-1.709,0.63c0.594-0.325,0.088-0.236,0.201-0.238
		c-0.963,0.022-1.913,0.2-2.865,0.33c-0.482,0.136-0.929,0.334-1.343,0.587c-0.934,0.121-1.925,0.467-2.649,0.903
		c-0.271,0.163-0.447,0.286-0.555,0.377c-0.245,0.068-0.477,0.151-0.703,0.244c-0.972,0.077-1.893,0.493-2.659,1.106
		c-1.067,0.296-1.981,0.794-2.851,1.655c-0.504,0.239-0.974,0.55-1.398,0.975c-0.087,0.087-0.154,0.154-0.229,0.229
		c-0.245,0.118-0.482,0.25-0.709,0.398c-0.646,0.174-1.281,0.538-1.801,0.998c-0.576,0.261-1.1,0.615-1.561,1.073
		c-0.439,0.372-0.375,0.309,0.193-0.188c-0.777,0.422-1.541,1.021-2.031,1.786c-0.728,0.445-1.707,1.063-1.905,1.243
		c3.61-3.278-0.638,0.01-1.001,0.451c-0.141,0.171-0.26,0.3-0.362,0.401c0.126-0.075,0.29-0.155,0.495-0.242
		c-0.182,0.077-0.349,0.17-0.518,0.262c-0.377,0.365-0.449,0.28-0.085,0.043c-0.526,0.296-1.011,0.657-1.519,1.098
		c-0.014,0.012-0.021,0.02-0.035,0.032c-0.809,0.376-3.318,1.871-1.899,1.126c-0.764,0.401-1.438,0.977-2.017,1.63
		c-0.694,0.32-1.266,0.738-1.754,1.257c-0.395,0.231-0.766,0.503-1.119,0.81c-0.178,0.102-0.377,0.218-0.629,0.366
		c-0.502,0.294-0.898,0.667-1.254,1.077c-0.58,0.364-1.101,0.792-1.582,1.319c-0.07,0.037-0.141,0.074-0.232,0.13
		c-0.498,0.301-0.927,0.627-1.309,0.999c0.109-0.161-0.104,0.025-1.111,1.032c-0.033,0.033-0.053,0.054-0.084,0.086
		c-0.838,0.377-1.75,1.23-2.279,2.029c-0.767,0.403-1.28,1.151-1.779,1.838c-1.113,0.84-3.253,2.751-0.474,0.816
		c0.009,0,0.017,0,0.029-0.005c-0.851,0.629-1.515,1.252-2.095,2.204c0.803-1.317-0.565,0.65-0.924,1.124
		c0.918-1.213,0.582-1.425-0.582,0.078c-0.451,0.583-0.836,1.122-1.191,1.668c-0.631,0.46-1.136,1.019-1.517,1.677
		c-0.342,0.324-0.657,0.681-0.913,1.117c-0.145,0.247-0.266,0.458-0.367,0.641c-1.428,1.429,0.134,0.078-0.438,0.594
		c-2.382,2.15-0.26,0.583-0.896,1.14c-0.526,0.461-3.864,5.061-0.409,1c-0.417,0.49-0.783,0.99-1.109,1.521
		c-0.139,0.133-0.285,0.276-0.463,0.454c-0.769,0.769-1.107,1.605-1.386,2.511c-0.094,0.122-0.174,0.251-0.257,0.379
		c0.056-0.26-0.16-0.036-1.02,1.431c-0.43,0.733-0.771,1.669-0.95,2.575c-0.551,0.955-1.652,2.93-1.821,3.419
		c-0.253,0.726,0.662-2.011-0.66,1.293c-0.108,0.271-0.191,0.544-0.259,0.818c-0.366,0.69-0.612,1.444-0.728,2.291
		c0.211-1.551-0.133-0.148-0.4,1.129c-0.023,0.036-0.04,0.057-0.064,0.099c-0.518,0.877-0.895,1.82-0.983,2.834
		c-0.335,0.701-0.534,1.417-0.663,2.296c-0.544,0.934-0.918,2.025-0.871,3.112c0.007,0.15-0.004,0.288-0.02,0.417
		c0.026-0.077,0.047-0.14,0.082-0.235c0.432-1.155,0.207-0.546-0.103,0.383c-0.05,0.279-0.126,0.452-0.134,0.404
		c-0.249,0.763-0.503,1.597-0.503,1.849c0,0.563,0.008,0.98,0.021,1.291c-0.07,0.414-0.131,0.83-0.164,1.258
		c0.148-1.93-0.006-0.446-0.184,0.101c-0.271,0.839-0.43,1.617-0.506,2.4c-0.238,0.726-0.354,1.454-0.35,2.208
		c-0.231,1.223-0.197,2.454-0.219,3.837c0.037-2.357-0.209,0.919-0.152,1.795c0.047,0.733,0.078,1.429-0.01,2.158
		c-0.06,0.497,0.042,1.126,0.06,1.661c-0.207,0.608-0.336,1.238-0.336,1.951c0,4.403,0.286-0.459,0.362,2.141
		c0.02,0.629,0.117,1.192,0.245,1.738c-0.045,0.498-0.061,0.998-0.021,1.505c0.078,1.012,0.19,1.805,0.492,2.646
		C691.356,249.199,691.435,249.813,691.576,250.414z M764.678,189.649C764.688,189.287,764.767,189.286,764.678,189.649
		L764.678,189.649z M763.86,206.421c-0.224,0.32-0.388,0.648-0.514,0.984C763.449,207.12,763.611,206.778,763.86,206.421z
		 M763.327,207.464C763.247,208.5,763.074,208.209,763.327,207.464L763.327,207.464z M761.883,216.167
		c-0.137,0.292-0.264,0.576-0.384,0.855C761.615,216.755,761.746,216.459,761.883,216.167z M839.188,229.479
		c-0.066,0.117-0.125,0.239-0.188,0.358C839.057,229.719,839.119,229.6,839.188,229.479z M838.525,231.094
		C838.435,231.64,838.41,231.526,838.525,231.094L838.525,231.094z M827.898,260.524c0.617-0.678-0.044,0.084-0.827,1.066
		C827.266,261.289,827.535,260.923,827.898,260.524z M826.961,261.768C826.614,262.711,826.525,262.497,826.961,261.768
		L826.961,261.768z M847.02,200.494C847.127,200.945,847.058,201.162,847.02,200.494L847.02,200.494z M846.767,199.843
		c0.021,0.038,0.04,0.075,0.06,0.112C846.806,199.916,846.785,199.877,846.767,199.843z M825.85,184.689
		c0.129,0.192,0.264,0.365,0.395,0.547C826.124,185.081,825.985,184.893,825.85,184.689z M827.111,170.941
		c-0.045-0.02-0.093-0.033-0.139-0.052C825.75,169.7,826.504,170.398,827.111,170.941z M824.244,168.855
		c0.016,0.012,0.033,0.026,0.049,0.037c-0.182-0.066-0.363-0.133-0.555-0.194C823.99,168.779,824.14,168.825,824.244,168.855z
		 M814.568,174.532c-0.063-0.077-0.114-0.136-0.174-0.208C815.025,174.677,815.361,174.889,814.568,174.532z M800.728,155.644
		c-0.159-0.152-0.323-0.288-0.487-0.42C800.397,155.346,800.561,155.484,800.728,155.644z M799.477,154.723
		c-0.039-0.001-0.075-0.008-0.114-0.008c-0.019,0.001-0.03,0.002-0.047,0.004C798.893,154.52,799.049,154.497,799.477,154.723z
		 M763.325,162.738c-0.183,0.024-0.31,0.044-0.398,0.06c0.062-0.026,0.123-0.053,0.187-0.081c0.563-0.046,1.077-0.098,1.437-0.138
		C764.273,162.614,763.877,162.665,763.325,162.738z M735.321,176.905c-0.017,0.012-0.032,0.024-0.048,0.037
		c0.091-0.122,0.183-0.237,0.271-0.369C735.465,176.693,735.39,176.804,735.321,176.905z M714.211,198.519
		c-0.101,0.106-0.21,0.225-0.323,0.35c0.21-0.276,0.396-0.57,0.539-0.893C714.291,198.284,714.227,198.45,714.211,198.519z
		 M718.439,177.254c-0.021,0.035-0.045,0.063-0.064,0.098c0.015-0.026,0.037-0.059,0.058-0.09
		C718.435,177.259,718.437,177.257,718.439,177.254z M721.852,187.973c0.16-0.069,0.307-0.154,0.452-0.242
		C722.168,187.816,722.021,187.899,721.852,187.973z M722.532,187.572c0.084-0.141,0.178-0.276,0.247-0.426
		C723.355,186.023,723.461,186.853,722.532,187.572z M731.375,180.032c0.127-0.112,0.252-0.213,0.379-0.333
		C731.639,179.808,731.509,179.921,731.375,180.032z M734.277,165.483c-0.299,0.081-0.574,0.177-0.834,0.286
		C733.675,165.673,733.939,165.575,734.277,165.483z M734.629,277.964c-0.039,0.007-0.067,0.013-0.105,0.02
		C735.168,277.568,735.488,277.356,734.629,277.964z M706.938,214.18c0.079-0.269,0.159-0.568,0.236-0.872
		c0.079-0.103,0.144-0.213,0.216-0.32C707.273,213.263,707.094,213.749,706.938,214.18z M707.575,212.146
		c-0.063,0.087-0.112,0.157-0.171,0.239C707.616,211.52,707.735,211.037,707.575,212.146z M705.793,217.448
		c0.018-0.289,0.042-0.467,0.067-0.571c0.021-0.015,0.046-0.039,0.075-0.07c0.047,0.154,0.03,0.767-0.207,1.437
		C705.756,217.979,705.781,217.714,705.793,217.448z M705.501,218.752c-0.069,0.128-0.146,0.256-0.235,0.377
		C705.354,219.01,705.426,218.88,705.501,218.752z M693.611,216.544c-0.007,0.059-0.016,0.111-0.021,0.171
		C693.477,217.828,693.495,217.215,693.611,216.544z M690.626,239.092C690.609,239.708,690.539,239.608,690.626,239.092
		L690.626,239.092z"/>
	<path class="st0" d="M732.925,166.022c-0.036,0.021-0.077,0.043-0.107,0.063c0.027-0.016,0.058-0.028,0.085-0.043
		C732.911,166.034,732.916,166.031,732.925,166.022z"/>
	<path class="st0" d="M764.834,243.558c-0.005,0.007-0.008,0.015-0.012,0.022C764.836,243.555,764.838,243.551,764.834,243.558z"/>
	<path class="st0" d="M815.072,161.566C815.263,161.672,815.172,161.615,815.072,161.566L815.072,161.566z"/>
	<path class="st0" d="M764.062,198.667c0.011-0.075,0.017-0.146,0.03-0.223C764.039,198.738,764.034,198.778,764.062,198.667z"/>
	<path class="st0" d="M782.885,151.923c0.18,0.043,0.359,0.096,0.54,0.166C782.943,151.903,782.823,151.885,782.885,151.923z"/>
	<path class="st0" d="M703.779,228.381C703.724,228.856,703.803,228.889,703.779,228.381L703.779,228.381z"/>
	<path class="st0" d="M815.371,291.707c-0.029,0.009-0.058,0.022-0.088,0.031C815.35,291.719,815.37,291.711,815.371,291.707z"/>
	<path class="st0" d="M706.488,254.416c0.063,0.11,0.107,0.225,0.167,0.336C706.93,255.206,706.987,255.293,706.488,254.416z"/>
	<path class="st0" d="M759.242,224.397c0.052-0.236,0.131-0.455,0.213-0.672C759.475,223.551,759.414,223.617,759.242,224.397z"/>
</g>
</svg>
