<?xml version="1.0" encoding="utf-8"?>
<!-- Generator: Adobe Illustrator 16.0.0, SVG Export Plug-In . SVG Version: 6.00 Build 0)  -->
<!DOCTYPE svg PUBLIC "-//W3C//DTD SVG 1.1//EN" "http://www.w3.org/Graphics/SVG/1.1/DTD/svg11.dtd">
<svg version="1.1" id="レイヤー_7" xmlns="http://www.w3.org/2000/svg" xmlns:xlink="http://www.w3.org/1999/xlink" x="0px"
	 y="0px" width="986px" height="986px" viewBox="0 0 986 986" style="enable-background:new 0 0 986 986;" xml:space="preserve">
<style type="text/css">
<![CDATA[
	.st0{fill:#69BFFF;}
]]>
</style>
<g>
	<path class="st0" d="M749.787,166.592c0.04,0.04,0.037,0.027,0.011-0.018C749.693,166.486,749.668,166.472,749.787,166.592z"/>
	<path class="st0" d="M745.502,156.888c0.069,0.562,0.186,1.116,0.334,1.667c0.445,1.656,0.52,1.979,0.433,1.383
		c0.03,0.136,0.06,0.272,0.101,0.406c0.225,0.737,0.539,1.439,0.881,2.13c-0.898-1.822,0.262,0.738,0.57,1.353
		c0.268,0.528,0.64,0.982,1.012,1.438c0.303,0.4,0.856,1.132,0.966,1.31c0.087,0.073,0.23,0.199,0.396,0.345
		c0.209,0.228,0.859,0.874,1.431,1.422c-0.159-0.056,0.078,0.244,1.245,1.326c0.438,0.405,0.877,0.806,1.337,1.178
		c0.56,0.792,1.278,1.47,2.218,2.151c0.292,0.211,0.501,0.352,0.655,0.445c0.257,0.267,0.526,0.519,0.827,0.751
		c-0.988-0.7-2.156-1.506,0.182,0.51c0.274,0.236,0.549,0.445,0.825,0.646c0.204,0.311,0.434,0.61,0.714,0.891
		c2.531,2.531,0.659,0.507,1.145,0.909c0.115,0.095,0.205,0.169,0.304,0.251c0.339,0.644,0.742,1.238,1.276,1.734
		c0.371,0.705,1.069,1.639,1.512,2.052c0.034,0.032,0.057,0.053,0.09,0.083c0.402,0.756,0.846,1.508,1.533,2.042
		c3.044,2.366,6.755,2.162,9.029-1.164c1.037-1.515,1.1-3.291,0.969-5.044c-0.134-1.765-0.734-3.61-2.1-4.841
		c-0.008-0.041-0.027-0.099-0.074-0.193c-0.487-0.971-1.109-1.927-1.997-2.585c-0.63-0.802-1.261-1.457-2.141-2.051
		c-0.009-0.013-0.016-0.027-0.024-0.04c0.638,0.392,0.417,0.234-0.063-0.091c-0.428-0.654-0.969-1.231-1.692-1.71
		c-0.161-0.177-0.359-0.383-0.607-0.631c-1.271-1.272-1.461-1.434-1.214-1.112c-0.335-0.347-0.701-0.661-1.151-0.868
		c-0.073-0.034-0.138-0.076-0.209-0.112c-0.428-0.649-0.969-1.211-1.662-1.643c0.174,0.133,0.064,0.154-0.157,0.04
		c-0.078-0.078-0.172-0.171-0.284-0.279c-0.063-0.031-0.115-0.069-0.18-0.098c0.063,0.028,0.104,0.051,0.158,0.076
		c-0.326-0.314-0.758-0.718-1.141-1.067c-0.102-0.14-0.533-0.535-1.547-1.361c-0.353-0.288-0.631-0.508-0.859-0.684
		c-0.091-0.109-0.193-0.23-0.312-0.368c-0.337-0.79-0.45-1.03-0.465-1.033c-0.179-0.616-0.149-0.969-0.657-1.836
		c-1.402-2.392-0.846-1.39-0.473-0.207c-0.637-2.019-1.81-3.305-3.447-4.524c3.793,2.823-1.1-1.065-2.496-1.442
		c-3.771-1.016-7.516,3.111-5.68,6.659C745.092,155.677,745.249,156.259,745.502,156.888z M758.386,174.533
		c0.032,0.022,0.064,0.045,0.099,0.068c0,0,0,0.001,0.001,0.002C758.453,174.581,758.421,174.558,758.386,174.533z M745.436,155.924
		c0,0.121,0.01,0.239,0.016,0.358C745.442,156.165,745.436,156.045,745.436,155.924z M745.576,157.063
		c0.043,0.101,0.079,0.198,0.127,0.302C746.219,158.485,745.813,158.048,745.576,157.063z"/>
	<path class="st0" d="M762.549,161.226c-0.082-0.063-0.234-0.15-0.463-0.261c0.006,0.007,0.014,0.015,0.021,0.021
		C762.26,161.062,762.409,161.139,762.549,161.226z"/>
	<path class="st0" d="M732.342,277.6c0.001,0.318,0.045,0.625,0.129,0.92c-0.133,1.643,0.52,2.688,1.096,3.667
		c0.189,0.322,0.568,0.991,1.174,1.738c0.688,1.438,1.776,2.653,3.126,3.494c0.164,0.18,0.36,0.387,0.632,0.659
		c0.672,0.672,1.412,1.065,2.205,1.312c0.092,0.063,0.178,0.126,0.279,0.186c0.209,0.124,0.302,0.168,0.323,0.165
		c0.768,0.588,1.512,1.014,2.307,1.313c0.96,0.7,2.034,1.191,3.258,1.453c0.88,0.188,1.747,0.339,2.646,0.458
		c-2.217-0.293-1.7,0.104,0.454,0.503c0.479,0.089,0.934,0.22,1.383,0.405c1.594,0.657-1.934-0.277,1.674,0.715
		c0.473,0.13,0.842,0.224,1.125,0.289c0.646,0.206,1.319,0.273,1.995,0.24c0.493,0.116,1.003,0.195,1.537,0.253
		c0.042,0.025,0.134,0.062,0.308,0.116c0.411,0.127,0.816,0.179,1.221,0.19c0.794,0.227,1.604,0.275,2.481,0.22
		c0.036,0.015,0.077,0.025,0.114,0.04c-2.295,0.358-0.954,0.352,0.63,0.18c0.354,0.033,1.118,0.043,1.816,0.041
		c0.563,0.174,1.147,0.272,1.757,0.274c0.498-0.052,0.938-0.056,1.438-0.013c0.227,0.02,0.421,0.035,0.604,0.048
		c0.352,0.05,0.729,0.072,1.111,0.068c0.184,0.047,0.732,0.08,1.866,0.08c0.433,0,0.834-0.068,1.224-0.163
		c1.027,0.077,2.056,0.008,3.092-0.133c0.301,0.03,0.741,0.059,1.369,0.082c1.16,0.043,2.5-0.105,3.641-0.573
		c1.264,0.11,2.433-0.021,3.629-0.723c0.022-0.013,0.037-0.022,0.059-0.035c0.484-0.07,0.982-0.156,1.244-0.229
		c0.592-0.166,1.113-0.383,1.611-0.63c0.998-0.172,1.961-0.529,2.69-1.215c0.235-0.113,0.47-0.233,0.7-0.358
		c0.145-0.079,0.252-0.139,0.376-0.208c0.975-0.211,1.809-0.791,2.481-1.531c0.586-0.357,1.131-0.798,1.66-1.321
		c1.32-1.303,1.382-1.422,1.026-1.158c0.325-0.328,0.625-0.686,0.876-1.115c0.02-0.033,0.034-0.06,0.053-0.092
		c0.574-0.474,1.03-0.951,1.416-1.467c1.035-0.751,1.992-1.593,2.441-2.808c1.127-0.965,1.699-1.45,0.117-0.401
		c0.006-0.023,0.014-0.044,0.02-0.067c1.014-0.803,1.926-1.805,2.146-3.118c0.021-0.122,0.043-0.229,0.065-0.328
		c0.335-0.497,0.604-1.002,0.822-1.53c0.656-0.891,1.124-1.867,1.356-2.932c0.277-0.54,0.499-1.111,0.606-1.766
		c-0.355,2.15,0.938-5.129,0.488-2.448c-0.492,2.931,1.35-5.132,0.568-2.073c0.271-1.065,0.333-2.058,0.254-3.064
		c0.301-1.298,0.355-2.568,0.021-3.867c0.012-0.126,0.033-0.248,0.041-0.375c0.047-0.799,0.039-3.445-0.166-1.421
		c0.092-0.901-0.138-1.787-0.34-2.66c-0.131-0.47-0.173-0.487-0.127-0.053c-0.053-0.452-0.104-0.904-0.175-1.354
		c-0.012-0.029-0.021-0.044-0.029-0.062c-0.036-0.291-0.095-0.72-0.19-1.361c-0.097-0.649-0.265-1.263-0.559-1.836
		c0.656,1.236,0.91,2.582-0.002-0.613c-0.17-0.596-0.41-1.113-0.689-1.602c-0.004-0.019-0.007-0.039-0.012-0.057
		c-0.153-0.556-0.274-0.952-0.371-1.229c-0.183-0.661-0.476-1.296-0.807-1.881c-0.125-0.22-0.229-0.409-0.322-0.585
		c-0.273-0.988-0.633-1.974-1.199-2.819c-0.102-0.227-0.223-0.487-0.387-0.826c-0.279-0.571,1.186,1.455-0.468-1.369
		c0.098,0.167-1.698-2.84-0.69-0.848c-0.238-0.47-1.316-1.781-1.283-1.64c-0.838-1.212-2.061-2.982-1.207-1.859
		c-0.736-0.969-1.318-1.998-2.129-2.925c1.08,1.234,0.182,0.045-0.03-0.371c-0.355-0.697-0.908-1.219-1.521-1.667
		c-0.224-0.292-0.462-0.573-0.724-0.839c-0.486-0.853-1.115-1.506-1.902-2.042c-0.228-0.26-0.481-0.498-0.756-0.721
		c-0.122-0.162-0.266-0.348-0.438-0.565c-0.286-0.362-0.597-0.68-0.939-0.964c-0.445-0.596-0.992-1.09-1.645-1.479
		c-0.975-1.281-2.836-3.491-0.459-0.092c-0.846-1.21-1.707-2.096-2.817-2.755c-0.237-0.264-0.472-0.529-0.724-0.79
		c-0.586-0.607-1.303-1.175-2.111-1.495c-0.553-0.677-1.174-1.151-1.936-1.534c-0.207-0.176-0.422-0.336-0.645-0.473
		c-0.586-0.678-1.29-1.218-2.142-1.61c-0.835-0.828-1.835-1.442-3.093-1.854c0.666,0.218,1.127,0.408,1.429,0.549
		c-0.114-0.079-0.249-0.178-0.401-0.299c-0.582-0.464-1.188-0.836-1.824-1.146c-0.145-0.148-0.308-0.315-0.518-0.525
		c-0.604-0.599-1.309-1.023-2.104-1.292c0.049-0.012,0.001-0.083-0.246-0.266c-1.459-1.083-1.608-1.078-1.328-0.756
		c-0.397-0.209-0.82-0.356-1.26-0.459c-0.314-0.23-0.635-0.45-0.973-0.641c0.849,0.479-0.049-0.193-0.84-0.745
		c-0.156-0.158-0.344-0.348-0.594-0.598c-0.438-0.438-1.089-0.839-1.611-1.222c-0.236-0.172-0.424-0.304-0.591-0.418
		c-0.54-0.916-1.454-1.493-2.454-1.812c-0.677-0.616-1.449-1.092-2.407-1.338c1.784,0.458-1.089-0.881-0.856-0.669
		c-1.254-1.141-2.793-1.355-4.188-0.771c-1.784-0.157-3.409,2.1-2.775,3.741c0.281,0.728,2.207,3.527,1.137,1.989
		c0.408,0.587,0.695,1.262,1.127,1.827c0.428,0.557,0.781,0.987,1.244,1.406c0.354,0.543,0.697,0.994,1.067,1.374
		c0.513,1.041,1.283,1.914,2.298,2.63c0.092,0.065,0.383,0.269,0.617,0.42c0.524,0.55,1.413,1.417,1.599,1.525
		c-1.06-0.615,2.71,2.342,1.482,1.298c0.733,0.625,1.39,1.095,2.076,1.461c0.31,0.327,0.645,0.632,1.061,0.875
		c0.529,0.31,0.882,0.505,1.121,0.628c0.798,0.927,1.844,1.656,2.983,2.035c0.236,0.239,0.479,0.458,0.736,0.653
		c0.156,0.187,0.452,0.498,0.938,0.984c0.457,0.454,0.974,0.806,1.54,1.073c0.497,0.587,1.112,1.068,1.892,1.411
		c0.143,0.106,0.286,0.208,0.436,0.298c0.286,0.339,0.59,0.663,0.932,0.954c0.62,0.524,1.207,1.035,1.916,1.373
		c0.513,0.685,1.119,1.22,1.842,1.616c0.211,0.251,0.438,0.484,0.68,0.702c-0.683-0.48-1.111-0.735,0.707,0.748
		c0.276,0.226,0.555,0.462,0.836,0.691c0.711,0.967,2.739,3.266,1.559,1.582c0.303,0.402,0.619,0.782,0.991,1.137
		c-0.677-0.571-1.083-0.936,0.571,0.719c0.102,0.101,0.215,0.174,0.32,0.262c0.185,0.277,0.393,0.544,0.643,0.794
		c0.198,0.198,0.361,0.358,0.505,0.499c0.299,0.521,0.659,0.989,1.115,1.404c0.043,0.086,0.086,0.172,0.147,0.282
		c1.564,2.795,0.471,0.566,0.828,1.159c0.248,0.409,0.514,0.796,0.793,1.183c0.203,0.279,0.406,0.56,0.612,0.837
		c0.196,0.606,0.521,1.071,0.878,1.594c0.541,0.792,0.812,1.164,0.938,1.316c0.023,0.048,0.047,0.097,0.068,0.142
		c0.501,2.548,0.223,0.256,0.373,0.926c0.156,0.558,0.391,1.07,0.688,1.545c0.101,0.365,0.266,0.738,0.346,1.103
		c0.111,0.511,0.328,0.96,0.605,1.375c0.084,0.545,0.232,1.078,0.473,1.574c0.113,0.554,0.326,1.071,0.586,1.566
		c0.077,0.912,0.344,1.787,0.945,2.637c-0.475-0.672-1.656-2.916-0.328,0.339c0.122,0.361,0.183,0.441,0.186,0.261
		c0.054,0.501,0.123,0.999,0.281,1.479c0.004,0.011,0.006,0.017,0.01,0.027c-0.01,0.039-0.018,0.088-0.023,0.152
		c-0.227,2.252-0.107,2.127,0.033,1.573c-0.064,0.729,0.002,1.444,0.195,2.136c-0.037,0.51-0.066,1.46-0.077,2.169
		c-0.06,0.532-0.132,1.273-0.159,1.597c0.342-3.946,0.088-2.156-0.234-0.227c-0.077,0.446-0.131,0.896-0.188,1.346
		c-0.082,0.238-0.153,0.472-0.211,0.717c-0.439,0.67-0.771,1.438-0.908,2.219c-0.223,0.409-0.385,0.836-0.508,1.278
		c-0.432,0.617-0.809,1.253-1.09,1.952c-0.555,0.538-0.797,0.81-0.089,0.199c-0.761,0.656-1.345,1.464-1.774,2.351
		c-0.27,0.279-0.518,0.575-0.751,0.886c-0.839,0.693-1.537,1.392-2.136,2.239c-0.215,0.122-0.467,0.266-0.795,0.458
		c-0.412,0.241-0.757,0.533-1.076,0.846c-0.008,0.005-0.016,0.008-0.025,0.014c-0.09,0.058-1.139,0.691-1.494,0.932
		c-0.564,0.117-1.117,0.303-1.652,0.61c-0.524,0.081-1.311,0.23-1.662,0.296c-0.453,0.084-0.865,0.232-1.254,0.418
		c-0.479,0.02-0.971,0.059-1.51,0.139c-0.445,0.066-0.797,0.123-1.082,0.172c-0.148-0.002-0.313-0.002-0.492-0.002
		c-0.552,0-1.174,0.112-1.778,0.229c-0.137,0.01-0.755,0.09-1.042,0.085c-0.705-0.012,2.164-0.202-1.426-0.202
		c-0.432,0-0.83,0.068-1.219,0.161c-0.695-0.021-1.396,0.06-2.15,0.225c3.033-0.664,0.485-0.511-1.252-0.264
		c-0.039-0.011-0.07-0.02-0.111-0.031c0.257-0.069,0.115-0.06-0.121-0.033c-0.762-0.208-1.543-0.256-2.322-0.204
		c-0.653-0.176-1.322-0.253-2-0.184c-0.091-0.001-0.189-0.002-0.294-0.003c-0.607-0.224-1.249-0.352-1.948-0.352
		c-0.162,0-0.31,0-0.447,0.001c-0.115-0.012-0.246-0.025-0.391-0.04c-0.836-0.472-1.768-0.634-2.706-0.596
		c-0.232-0.061-0.468-0.112-0.709-0.142c-0.161-0.049-0.323-0.098-0.522-0.156c-0.352-0.103-0.688-0.202-1.027-0.341
		c-0.463-0.19-2.223-0.975-0.635-0.053c-1.216-0.705-2.271-0.967-3.533-1.159c-0.012-0.011-0.025-0.019-0.038-0.029
		c0.144,0.006,0.112-0.019-0.103-0.077c-0.614-0.486-1.299-0.862-2.082-1.078c-0.269-0.074-0.49-0.134-0.691-0.188
		c-0.168-0.1-0.26-0.14-0.184-0.049c-0.035-0.009-0.075-0.02-0.107-0.028c-0.609-0.454-1.214-0.789-1.854-1.023
		c-0.256-0.208-0.531-0.405-0.823-0.597c0.076,0.096-3.094-1.618-1.13-0.426c-0.64-0.389-0.579-0.271-0.441-0.126
		c-0.809-0.709-1.659-1.201-2.652-1.407c-0.374-0.284-0.971-0.729-0.942-0.74c-0.371-0.208-0.771-0.349-1.186-0.445
		c-0.006-0.003-0.012-0.008-0.018-0.012c-0.003-0.001-0.004-0.002-0.008-0.004c-0.086-0.092-0.184-0.194-0.309-0.319
		c-0.49-0.491-1.077-0.727-1.732-0.902c1.162,0.312,0.64,0.326,0.064-0.284c-1.146-1.218-3.033-0.509-3.525,0.931
		c-0.357,1.047-0.738,2.141-0.244,3.195C732.345,277.577,732.343,277.585,732.342,277.6z M801.975,280.28
		c0.172-0.189,0.328-0.376,0.479-0.563C802.314,279.891,802.16,280.076,801.975,280.28z M802.982,278.965
		C803.192,278.11,803.441,278.191,802.982,278.965L802.982,278.965z M805.492,252.132c-0.098-0.181-0.207-0.359-0.334-0.532
		C805.277,251.761,805.389,251.944,805.492,252.132z M803.281,246.15C802.432,244.553,802.847,244.886,803.281,246.15
		L803.281,246.15z M792.732,250.541c-0.023,0.269-0.015,0.538,0,0.806C792.711,251.105,792.707,250.837,792.732,250.541z
		 M792.83,251.93c0.064,0.093,0.109,0.196,0.182,0.284c0.058,0.077,0.105,0.146,0.146,0.208c0.004,0.109,0.025,0.213,0.035,0.32
		C793.08,252.602,792.933,252.331,792.83,251.93z M766.594,284.536c0.01,0.003,0.021,0.005,0.03,0.008
		c-0.148,0.025-0.288,0.051-0.401,0.076C766.369,284.587,766.487,284.561,766.594,284.536z M749.842,281.097
		c0.001,0,0.002,0.001,0.002,0.002c-0.108-0.015-0.215-0.03-0.327-0.044C749.637,281.071,749.745,281.084,749.842,281.097z
		 M747.548,280.032c0.058,0.051,0.122,0.107,0.198,0.172c-0.078-0.067-0.154-0.123-0.232-0.186
		C747.525,280.022,747.537,280.027,747.548,280.032z M740.174,276.136c-0.002,0-0.003,0-0.005,0c-0.016-0.011-0.023-0.019-0.04-0.03
		C740.147,276.118,740.157,276.125,740.174,276.136z"/>
	<path class="st0" d="M785.115,281.676c0.007-0.004,0.012-0.005,0.018-0.009C785.146,281.658,785.146,281.658,785.115,281.676z"/>
	<path class="st0" d="M739.303,275.404c0.021,0.012,0.047,0.019,0.068,0.032C739.324,275.408,739.308,275.402,739.303,275.404z"/>
	<path class="st0" d="M744.395,278.049c0.027,0.017,0.048,0.037,0.074,0.054C744.463,278.096,744.443,278.081,744.395,278.049z"/>
	<path class="st0" d="M775.521,215.263C776.061,215.634,776.148,215.558,775.521,215.263L775.521,215.263z"/>
	<path class="st0" d="M693.08,280.429c0.001,0.185,0.004,0.383,0.01,0.614c0.037,1.536,0.369,2.538,1.008,3.91
		c1.029,2.205,4.115,3.271,6.346,2.583c0.079-0.024,0.158-0.048,0.236-0.073c1.91-0.59,3.678-2.101,4.13-4.13
		c0.097-0.405,0.162-0.814,0.214-1.227c0.014-0.051,0.027-0.106,0.045-0.176c0.218-0.812,0.267-1.624,0.152-2.436
		c0.13-0.574,0.17-0.789,0.154-0.775c0.131-0.634,0.145-1.234,0.064-1.812c0.033-0.205,0.058-0.413,0.064-0.626
		c0.184-0.62,0.283-1.25,0.262-1.986c-0.004-0.106-0.004-0.195-0.004-0.285c0.201-0.526,0.311-1.062,0.342-1.609
		c0.3-0.762,0.521-1.571,0.629-2.374c0.359-0.825,0.486-1.767,0.458-2.641c0.318-0.758,0.522-1.522,0.827-2.292
		c0.643-1.619,0.688-1.936,0.546-1.779c0.087-0.265,0.156-0.536,0.204-0.812c0.379-0.753,0.471-1.595,0.421-2.439
		c0.044-0.185,0.081-0.372,0.115-0.561c0.108-0.179,0.232-0.384,0.39-0.653c0.293-0.5,0.469-1.013,0.572-1.538
		c0.768-1.237,0.994-2.444,1.05-3.862c0.276-0.622,0.472-1.287,0.642-2.048c0.153-0.688,0.23-1.081,0.25-1.275
		c0.232-0.441,0.41-0.911,0.498-1.458c0.155-0.577,0.188-1.154,0.104-1.731c0.066-0.84-0.031-2.017-0.016-1.785
		c-0.119-1.937-1.014-3.503-3.063-3.716c-0.996-0.104-1.781,0.468-2.479,1.088c-0.799,0.711-2.045,1.763-0.203,0.68
		c-0.892,0.523-1.469,1.179-1.952,2.046c-0.43,0.35-0.806,0.728-1.153,1.246c-0.204,0.306-0.652,1.278-0.818,1.708
		c-0.098,0.094-0.188,0.181-0.305,0.298c-0.618,0.622-1.045,1.356-1.283,2.201c-0.082,0.292-0.09,0.375-0.061,0.348
		c-0.082,0.197-0.176,0.423-0.285,0.692c-0.061,0.147-0.111,0.294-0.167,0.44c-0.361,0.459-0.64,0.954-0.847,1.502
		c-0.545,0.723-0.965,1.509-1.26,2.407c-0.086,0.143-0.17,0.282-0.276,0.463c-0.39,0.667-0.587,1.358-0.666,2.069
		c-0.05,0.12-0.089,0.245-0.132,0.368c-0.482,0.682-0.885,1.417-1.11,2.239c-0.224,0.812-0.827,2.696-0.153,1.079
		c-0.205,0.494-0.234,0.597-0.197,0.544c-0.359,0.76-0.629,1.638-0.792,2.53c-0.087,0.265-0.212,0.689-0.397,1.364
		c-0.888,3.223-0.106,1.07-0.146,1.323c-0.006,0.009-0.01,0.013-0.016,0.022c-0.33,0.507-0.559,1.128-0.684,1.766
		c-0.08,0.263-0.176,0.589-0.299,1.035c-0.189,0.691-0.316,1.866-0.238,2.667c0.002,0.022,0.001,0.033,0.002,0.054
		c-0.113,0.355-0.205,0.716-0.248,1.093c-0.039,0.142-0.076,0.272-0.123,0.441c-0.185,0.67-0.237,1.326-0.183,1.971
		c-0.067,0.34-0.102,0.69-0.085,1.054c0.001,0.081,0.002,0.149,0.004,0.205C693.049,279.056,692.988,279.75,693.08,280.429z
		 M705.145,275.153c0.111-0.151,0.195-0.304,0.285-0.457C705.348,274.847,705.257,275,705.145,275.153z M705.76,273.863
		C705.767,272.718,705.968,273.067,705.76,273.863L705.76,273.863z M707.098,267.806c0.027-0.147,0.038-0.24,0.037-0.295
		c0.012-0.026,0.023-0.052,0.035-0.078C707.011,268.28,706.986,268.411,707.098,267.806z M693.822,273.804
		c0,0.007,0.001,0.015,0.001,0.021c-0.009,0.028-0.015,0.047-0.024,0.079C693.804,273.876,693.816,273.834,693.822,273.804z"/>
	<path class="st0" d="M860.885,264.208c0.1-0.592,0.112-1.171,0.028-1.759c0.02-0.172,0.032-0.343,0.032-0.511
		c0-2.093-0.119-1.678-0.17-1.386c0.002-0.017,0.004-0.026,0.006-0.046c0.078-0.615-0.176-1.767-0.489-2.619
		c0.04-1.004-0.132-1.909-0.63-2.86c-0.005-0.836-0.139-1.604-0.401-2.361c0.022-0.689-0.075-1.373-0.35-2.043
		c0-0.062,0-0.116,0-0.183c0-0.885-0.466-2.108-0.677-2.588c0.016-0.056,0.027-0.139,0.035-0.267
		c0.041-0.712-0.154-1.467-0.485-2.124c-0.06-0.387-0.187-0.758-0.339-1.119c-0.06-0.217-0.137-0.497-0.236-0.858
		c-0.131-0.476-0.332-0.866-0.57-1.232c-0.055-0.804-0.4-1.612-0.83-2.257c-0.191-0.288-0.34-0.503-0.471-0.689
		c-0.014-0.053-0.024-0.101-0.047-0.173c-0.266-0.853-0.65-1.597-1.123-2.342c0.76,1.2-0.799-1.528-0.473-0.972
		c-0.391-0.667-0.577-0.974-0.647-1.065c-0.588-1.238-1.633-1.881-2.737-3.059c-0.401-0.398-0.877-0.67-1.407-0.846
		c-0.354-0.337-0.761-0.602-1.278-0.744c-0.104-0.029-0.188-0.051-0.274-0.075c-1.187-1.029-2.447-1.522-4.101-1.694
		c-2.241-0.233-3.189,3.342-1.159,4.28c0.465,0.215,0.657,0.268,0.73,0.273c-0.014,0.039,0.013,0.153,0.224,0.453
		c0.27,0.382,0.49,0.743,0.729,1.088c0.068,0.394,0.178,0.778,0.39,1.141c0.327,0.56,0.503,0.801,0.587,0.868
		c0.135,0.365,0.336,0.843,0.584,1.341c0.1,0.805,0.336,1.533,0.842,2.226c0.042,0.12,0.096,0.266,0.18,0.468
		c0.15,0.363,0.168-0.316,0.224,0.941c0.035,0.787,0.272,1.441,0.567,2.079c0.004,1.169,0.306,2.272,0.928,3.432
		c-1.515-2.823-0.815-1.098-0.221,0.225c0.01,0.62,0.14,1.261,0.4,1.824c0.059,0.521,0.137,1.019,0.254,1.508
		c-0.104,0.702-0.066,1.404,0.123,2.107c0.043,0.305,0.115,0.59,0.203,0.868c0.039,0.693,0.216,1.354,0.463,2.023
		c-0.037,0.968,0.07,1.876,0.347,2.798c-0.03,0.285-0.067,0.569-0.087,0.856c0.003,0.916,0.229,1.771,0.666,2.569
		c0.026,0.317,0.077,0.633,0.162,0.948c0.027,0.099,0.047,0.17,0.072,0.258c0.012,0.791,0.242,1.508,0.601,2.174
		c0.247,1.204,0.849,2.271,1.714,3.122c0.598,1.114,1.435,2.113,2.659,2.497c0.03,0.036,0.057,0.067,0.09,0.108
		c0.392,0.481,1.062,0.635,1.622,0.819c1.011,0.332,2.328-0.375,2.537-1.44c0.004-0.017,0.004-0.027,0.006-0.042
		c0.382-0.521,0.598-1.073,0.816-1.693c0.219-0.62,0.221-1.411,0.223-2.143C860.914,265.635,860.967,264.937,860.885,264.208z
		 M853.429,235.943c-0.014-0.076-0.037-0.137-0.053-0.209C853.398,235.81,853.418,235.881,853.429,235.943z M855.33,270.579
		C854.841,270.255,854.688,269.832,855.33,270.579L855.33,270.579z M855.728,270.774c0.067,0.015,0.13,0.039,0.2,0.05
		C855.859,270.813,855.793,270.795,855.728,270.774z"/>
</g>
</svg>
