<?xml version="1.0" encoding="utf-8"?>
<!-- Generator: Adobe Illustrator 16.0.0, SVG Export Plug-In . SVG Version: 6.00 Build 0)  -->
<!DOCTYPE svg PUBLIC "-//W3C//DTD SVG 1.1//EN" "http://www.w3.org/Graphics/SVG/1.1/DTD/svg11.dtd">
<svg version="1.1" id="レイヤー_4" xmlns="http://www.w3.org/2000/svg" xmlns:xlink="http://www.w3.org/1999/xlink" x="0px"
	 y="0px" width="986px" height="986px" viewBox="0 0 986 986" style="enable-background:new 0 0 986 986;" xml:space="preserve">
<style type="text/css">
<![CDATA[
	.st0{fill:#69BFFF;}
]]>
</style>
<path class="st0" d="M685.42,197.133c0.33-0.042,0.622-0.069,0.881-0.087c0.797,0.177,1.604,0.342,1.735,0.333
	c0.188-0.013,0.362,0,0.516,0.02c-0.112-0.035-0.233-0.074-0.393-0.129c0.142,0.049,0.305,0.095,0.475,0.138
	c0.151,0.024,0.261,0.054,0.325,0.077c0.154,0.033,0.312,0.063,0.471,0.091c0.299,0.095,0.696,0.212,1.21,0.353
	c0.778,0.214,1.501,0.253,2.199,0.184c0.714,0.167,1.435,0.25,2.161,0.246c-3.602-0.053,2.018,0.16,1.1,0.166
	c2.412-0.015,5.011,0.539-0.017-0.296c1.1,0.183,2.215,0.368,3.333,0.376c0.247,0.002,0.461,0.015,0.646,0.032
	c-0.081-0.025-0.17-0.054-0.266-0.086c0.1,0.032,0.197,0.061,0.297,0.089c0.592,0.06,0.834,0.174,0.661,0.164
	c0.619,0.124,1.26,0.172,1.96,0.102c0.527-0.053,1.238-0.02,1.771,0.022c0.357,0.046,0.714,0.05,1.07,0.021
	c1.544,0.135,5.488,0.309,2.475,0.051c-1.749-0.149-0.586-0.153,1.029-0.178c1.199,0.377,2.381,0.416,3.531,0.183
	c0.718,0.056,1.451,0.037,2.232-0.069c0.164-0.003,0.324-0.018,0.485-0.029c1.146,0.165,2.292,0.08,3.406-0.214
	c0.431,0.03,0.854,0.039,1.372,0.015c1.49-0.07,4.056,0.106,1.416-0.162c0.533,0.054,1.061,0.015,1.582-0.075
	c0.98,0.028,1.936-0.1,2.855-0.438c1.305,0.172,2.547,0,3.738-0.421c0.104-0.001,0.206-0.001,0.309-0.011
	c0.396-0.034,0.788-0.102,1.182-0.151c0.419,0.086,0.854,0.138,1.316,0.138c0.721-0.002,1.415-0.103,2.085-0.291
	c0.385,0.003,0.77-0.031,1.153-0.09c0.797,0.062,1.598,0.01,2.371-0.264c0.101-0.036,0.185-0.056,0.271-0.08
	c-0.156-0.008-0.34-0.022-0.556-0.049c0.218,0.026,0.437,0.025,0.655,0.02c0.316-0.075,0.507-0.069,0.555-0.043
	c0.565-0.066,1.129-0.183,1.689-0.288c1.599-0.087,3.985,0.16,1.381-0.101c0.484,0.048,0.956,0.076,1.439,0.021
	c1.021-0.118,2.03-0.254,3.039-0.408c0.714,0.003,1.422-0.039,2.136-0.167c0.798,0.045,1.597,0.016,2.384-0.098
	c1.236,0.136,2.486,0.048,3.744-0.277c1.193,0.181,2.354,0.097,3.503-0.189c0.677,0.016,1.368-0.021,2.103-0.109
	c1.002,0.171,1.953,0.113,2.879-0.104c1.254,0.094,2.512,0.026,3.688-0.441c-0.34,0.135-0.581,0.214-0.771,0.269
	c0.146-0.013,0.313-0.021,0.524-0.01c0.649,0.034,1.286,0.004,1.913-0.091c0.997,0.101,2.002,0.107,2.971-0.056
	c0.81,0.042,1.6,0.001,2.381-0.158c0.702,0.042,1.604,0.079,2.046,0.057c0.446,0.017,0.879-0.017,1.302-0.094
	c0.721,0.071,1.426,0.051,2.112-0.067c0.517,0.049,1.043,0.045,1.579,0.002c-0.251,0.142-0.504,0.283-0.745,0.437
	c-1.116,0.347-2.121,0.945-2.959,1.75c-0.641,0.33-1.233,0.747-1.778,1.272c-0.093,0.037-0.195,0.08-0.313,0.132
	c-0.765,0.345-1.486,1.009-2.11,1.759c-3.556,2.108,0.352,0.117-0.61,0.623c-1.022,0.537-1.82,1.286-2.477,2.148
	c-0.835,0.55-1.538,1.232-2.107,2.047c-0.677,0.581-1.248,1.186-1.747,1.855c-0.543,0.472-1.026,1.01-1.438,1.659
	c-0.596,0.507-1.109,1.092-1.526,1.772c-0.269,0.284-0.677,0.712-1.167,1.203c-0.624,0.624-1.1,1.328-1.462,2.087
	c-0.332,0.437-0.622,0.906-0.87,1.416c-0.855,0.829-1.527,1.727-2.017,2.735c-0.361,0.392-0.698,0.817-0.996,1.308
	c-0.498,0.819-0.891,1.48-1.172,2.504c-0.085,0.31-0.16,0.582-0.228,0.822c-0.607,1.01-1.296,2.2-1.482,2.767
	c-0.016,0.047-0.033,0.097-0.053,0.148c0.088-0.185,0.199-0.413,0.337-0.695c-0.192,0.392-0.364,0.793-0.534,1.196
	c-0.465,0.726-0.842,1.466-1.089,2.266c-0.243,0.465-0.427,0.962-0.528,1.505c0.064-0.102,0.128-0.202,0.217-0.319
	c-0.08,0.105-0.147,0.214-0.218,0.322c-0.016,0.081-0.038,0.157-0.05,0.24c-0.127,0.934-0.57,0.792-0.038-0.11
	c-0.524,0.858-0.767,1.79-0.899,2.768c-0.63,0.945-0.948,2.333-1.059,3.619c-0.179,0.551-0.303,1.117-0.361,1.705
	c-0.004,0.017-0.006,0.034-0.01,0.05c-0.535,1.033-0.853,2.156-0.809,3.45c-0.008,0.017-0.016,0.032-0.022,0.049
	c-0.158-1.76-0.208-0.746-0.259,0.59c-0.318,0.85-0.479,1.728-0.5,2.622c-0.078,0.358-0.133,0.723-0.158,1.094
	c-0.366,1.164-0.598,2.343-0.751,3.608c-0.207,0.852-0.347,1.709-0.458,2.666c-0.564,1.149-0.73,2.38-0.674,3.625
	c-0.254,1.017-0.477,2.015-0.547,3.029c-0.238,1.031-0.301,2.084-0.23,3.178c-0.003,0.022-0.006,0.045-0.008,0.068
	c-0.219,0.816-0.33,1.632-0.314,2.476c-0.275,1.137-0.463,1.958,0.006,0.293c0.001,0.02,0,0.039,0.001,0.058
	c-0.144,0.62-0.22,1.223-0.233,1.818c-0.474,1.387-0.902,2.925,0.014,0.76c0,0.009,0,0.017,0.001,0.025
	c-0.396,1.026-0.47,2.132-0.341,3.22c-0.103,0.821-0.121,1.641-0.043,2.477c-0.014,0.561,0,1.121,0.061,1.691
	c-0.025,1.314,0.102,2.615,0.476,3.901c0.001,0.009,0.001,0.019,0.003,0.028c-0.195,1.385-0.15,2.8,0.227,4.17
	c0.145,0.524,0.26,0.943,0.354,1.277c0.098,1.23,0.461,2.434,1.079,3.675c0.001,0.009,0.001,0.02,0.001,0.029
	c-0.73-1.379-0.418-0.618,0.072,0.465c0.065,0.407,0.161,0.806,0.284,1.196c0.147,1.288,0.518,2.52,1.064,3.701
	c0.231,0.939,0.595,1.815,1.119,2.624c0.017,0.038,0.037,0.075,0.055,0.113c0.271,1.155,0.718,2.216,1.365,3.237
	c0.129,0.308,0.254,0.611,0.409,0.938c0.392,0.821-2.043-3.423,0.49,1.383c0.23,0.438,0.485,0.852,0.75,1.257
	c0.243,0.668,0.572,1.309,0.994,1.952c0.259,0.954,0.62,1.838,1.178,2.675c0.416,0.884,0.952,1.703,1.609,2.533
	c0.176,0.352,0.373,0.692,0.589,1.02c0.438,0.949,1.009,1.793,1.727,2.519c0.276,0.405,0.585,0.798,0.938,1.177
	c0.167,0.164,0.365,0.355,0.575,0.556c0.094,0.15,0.195,0.294,0.297,0.439c0.404,0.907,0.919,1.749,1.672,2.502
	c0.4,0.401,0.7,0.701,0.951,0.954c0.232,0.282,0.706,0.789,1.587,1.669c0.239,0.24,0.503,0.456,0.775,0.663
	c0.612,1.075,1.09,1.901,0.181,0.131c0.004,0.003,0.008,0.006,0.012,0.009c0.567,1.067,1.301,1.863,2.151,2.5
	c0.488,0.546,1.046,1.007,1.657,1.402c0.056,0.065,0.075,0.079,0.05,0.032c0.057,0.036,0.11,0.075,0.168,0.11
	c0.213,0.257,0.437,0.495,0.663,0.728c0.799,1.192,1.914,2.109,3.212,2.82c5.996,3.289,11.961-0.982,12.624-7.244
	c0.021-0.19,0.04-0.379,0.06-0.569c0.329-3.189-1.847-6.017-4.626-7.432c-0.063-0.069-0.078-0.078-0.041-0.02
	c-0.043-0.022-0.087-0.042-0.131-0.062c-0.376-0.426-0.754-0.813-1.146-1.158c-0.363-0.45-0.775-0.837-1.219-1.185
	c-0.005-0.01-0.008-0.015-0.014-0.025c-0.555-0.934-1.295-1.685-2.113-2.352c-0.672-0.927-1.534-1.804-2.448-2.561
	c-0.204-0.296-0.44-0.588-0.687-0.877c-0.178-0.179-0.395-0.397-0.639-0.64c-0.102-0.162-0.209-0.319-0.319-0.476
	c-0.45-0.979-1.053-1.845-1.808-2.584c-0.373-0.763-0.841-1.477-1.446-2.166c-0.216-0.521-0.477-1.024-0.805-1.506
	c-0.159-0.406-0.332-0.805-0.531-1.194c-0.169-0.734-0.42-1.452-0.834-2.159c-0.128-0.218-0.241-0.41-0.348-0.591
	c-0.245-0.873-1.632-3.98-0.671-1.12c-0.008-0.013-0.014-0.021-0.021-0.034c-0.159-0.455-0.336-0.88-0.529-1.282
	c-0.075-0.282-0.162-0.604-0.266-0.979c-0.174-0.63-0.439-1.184-0.74-1.712c-0.249-0.784-0.599-1.522-1.074-2.206
	c-0.074-0.181-0.148-0.362-0.23-0.542c-0.053-0.253-0.108-0.506-0.173-0.75c-0.073-1.108-0.339-2.19-0.849-3.358
	c0-0.023,0.002-0.046,0-0.069c0.376,0.726,0.271,0.423-0.009-0.231c-0.06-0.93-0.247-1.847-0.529-2.742c0-0.056,0-0.106,0-0.165
	c0-0.929-0.181-2.039-0.474-3.02c-0.068-0.728-0.185-1.465-0.325-2.249c0.03-0.286,0.044-0.57,0.055-0.854
	c0.019,0.026,0.036,0.074,0.054,0.127c-0.015-0.117-0.021-0.234-0.039-0.351c0.001-0.093,0.002-0.187,0.001-0.28
	c0.114-0.608,0.189-1.212,0.214-1.817c0.422-1.334,0.766-2.716,0-0.799c-0.001-0.018-0.004-0.036-0.004-0.054
	c0.295-0.915,0.356-1.848,0.274-2.779c0.207-1.035,0.316-1.708-0.018-0.211c-0.001-0.014-0.002-0.028-0.003-0.042
	c0.19-1.024,0.266-2,0.166-2.978c0.06-0.414,0.103-0.83,0.119-1.25c0.055-0.193,0.111-0.398,0.175-0.627
	c0.254-0.923,0.323-1.854,0.245-2.773c0.011-0.03,0.019-0.05,0.03-0.086c0.235-0.741,0.352-1.479,0.382-2.217
	c0.296-1.002,0.447-2.046,0.44-3.131c-0.001-0.284-0.011-0.488-0.022-0.649c0.008-0.016,0.012-0.024,0.02-0.042
	c0.177-0.427,0.271-0.875,0.33-1.33c-0.008,0.044-0.004-0.059,0.016-0.233c0.006-0.018,0.009-0.027,0.016-0.05
	c-0.013,0.14-0.022,0.229-0.028,0.268c0.012-0.09,0.021-0.18,0.029-0.271c0.088-0.292,0.272-0.944,0.619-2.207
	c0.143-0.52,0.207-1.019,0.229-1.51c0.174-0.663,0.273-1.332,0.282-2.014c0.118-0.585,0.198-1.191,0.267-1.819
	c0.004-0.007,0.008-0.014,0.012-0.021c-0.064,0.959,0.166,0.386,0.271-0.677c0.188-0.521,0.321-1.07,0.399-1.654
	c0.076-0.279,0.138-0.56,0.187-0.841c0.085-0.216,0.184-0.419,0.248-0.653c0.664-2.415,0.7-2.651,0.499-2.168
	c0.084-0.37,0.146-0.747,0.198-1.134c0.009-0.016,0.017-0.032,0.024-0.048c-0.004,0.112,0.016,0.064,0.05-0.096
	c0.349-0.684,0.585-1.385,0.753-2.11c0.208-0.408,0.394-0.824,0.532-1.261c1.972-3.385,0.024-0.274,0.291-0.839
	c0.304-0.644,0.556-1.288,0.79-1.938c0.642-0.851,1.121-1.762,1.473-2.732c0,0,0,0,0,0c0.968-0.763,1.551-1.853,1.889-3.033
	c0.001-0.005-0.004-0.002,0.001-0.014c0.001-0.002,0.003-0.004,0.004-0.005c0.001-0.002,0.001-0.004,0.002-0.006
	c0.053-0.121,0.276-0.505,0.567-1.005c0.705-0.654,1.29-1.391,1.725-2.24c0.059-0.067,0.113-0.14,0.17-0.208
	c0.773-0.631,1.407-1.376,1.893-2.227c0.494-0.542,0.933-1.14,1.317-1.816c0.101-0.124,0.201-0.25,0.296-0.377
	c0.604-0.442,1.164-0.887,1.654-1.409c0.91-0.519,1.596-1.235,2.133-2.064c0.054-0.044,0.106-0.09,0.158-0.136
	c0.045-0.024,0.093-0.044,0.138-0.07c0.349-0.204,1.494-1.459,2.219-2.27c0.015-0.006,0.03-0.013,0.046-0.019
	c-0.035,0.042-0.059,0.069-0.098,0.114c-0.281,0.332-0.477,0.541-0.607,0.674c0.142-0.113,0.348-0.259,0.618-0.394
	c0.546-0.272,1.011-0.639,1.423-1.058c0.479-0.287,0.922-0.621,1.342-0.986c0.807-0.459,1.544-1.048,2.281-1.713
	c-0.93,0.839-0.558,0.664,0.034,0.272c0.827-0.333,2.868-1.442,1.081-0.774c0.005-0.003,0.009-0.006,0.013-0.01
	c0.93-0.358,1.731-0.752,2.482-1.234c0.903-0.287,1.727-0.673,2.491-1.183c0.584-0.175,1.148-0.402,1.695-0.676
	c0.799-0.215,1.803-0.777,2.533-1.225c-1.992,1.222-0.322,0.324,0.865-0.385c0.586-0.167,1.146-0.375,1.69-0.646
	c1.107-0.254,2.194-0.681,3.064-1.317c0.27-0.127,0.528-0.285,0.779-0.455c0.372-0.138,0.735-0.296,1.089-0.482
	c-0.219,0.067,0.077-0.199,0.916-0.544c0.014-0.006,0.027-0.01,0.041-0.016c0.533-0.351,1.062-0.754,1.605-1.208
	c-0.634,0.528-1.148,0.911-1.555,1.188c0.92-0.372,1.741-0.616,2.539-1.032c0.301-0.116,0.685-0.271,1.166-0.474
	c0.569-0.24-2.441,1.866,1.402-0.386c1.155-0.677,1.698-1.027,1.862-1.169c0.066-0.049,0.136-0.093,0.2-0.144
	c0.722-0.279,1.418-0.662,2.152-1.184c-0.193,0.168-0.244,0.252,0.187,0.014c0.03-0.017,0.062-0.029,0.093-0.046
	c-0.078,0.183,3.866-1.157,1.458-0.529c0.987-0.258,1.872-0.602,2.684-1.081c7.931-2.633,5.479-14.324-2.662-14.819
	c-0.286-0.018-0.571-0.016-0.854-0.004c-0.992-0.172-1.963-0.151-2.959,0.046c-0.045,0-0.092,0.007-0.137,0.008
	c-1.41-0.228-2.774-0.209-4.212,0.133c-1.281,0.02-2.013,0.041-0.31-0.152c2.358-0.267,0.144-0.123-1.801,0.08
	c-0.875-0.071-1.699-0.046-2.52,0.08c-1.334-0.116-2.637-0.024-3.916,0.326c-0.834-0.019-1.826-0.026-2.406,0.017
	c-0.229-0.006-0.451,0.004-0.671,0.028c-0.775-0.06-1.548-0.016-2.319,0.134c-0.809-0.075-1.627-0.042-2.421,0.101
	c-0.94-0.045-1.869,0.032-2.8,0.242c-0.848-0.13-1.709-0.171-2.656,0.028c-0.324,0.02-0.639,0.054-0.941,0.113
	c-0.67-0.005-1.329,0.076-1.98,0.24c-0.408-0.025-0.571-0.014-0.234,0.064c-0.023,0.007-0.047,0.016-0.07,0.022
	c-0.902-0.119-1.733-0.167-2.58-0.116c-0.58-0.078-1.165-0.095-1.759-0.032c-0.749,0.08-1.191,0.119-1.596,0.199
	c-1.136-0.22-2.306-0.228-3.406,0.079c-0.614-0.038-1.228,0.031-1.839,0.209c-0.104-0.013-0.207-0.03-0.312-0.042
	c-0.141-0.007-0.224-0.008-0.28-0.007c-0.9-0.094-1.738-0.078-2.551,0.065c-0.225-0.001-0.47-0.002-0.752-0.002
	c-1.84,0-2.477,0.038-2.555,0.084c-0.104-0.01-0.207-0.026-0.311-0.035c-3.971,0-2.282,0.157-1.534,0.209
	c-0.69-0.041-1.35,0.009-2.001,0.096c-0.194-0.036-0.83-0.059-2.188-0.059c-0.653,0-1.26,0.095-1.842,0.254
	c-0.896,0.019-1.78,0.127-2.686,0.284c-0.379-0.025-0.759-0.024-1.138,0.004c-1.224-0.278-2.508-0.072-3.72,0.211
	c-0.133,0.013-0.265,0.03-0.397,0.045c-0.531-0.13-1.081-0.21-1.668-0.21c-3.421,0-2.396,0.136-1.725,0.237
	c-0.315-0.002-0.686-0.004-1.134-0.004c-0.874,0-1.648,0.178-2.429,0.397c-0.56,0.01-1.129,0.049-1.746,0.161
	c-0.127,0.023-0.264,0.039-0.395,0.05c0.182,0.001,0.397,0.005,0.666,0.011c-0.239-0.005-0.482-0.005-0.725-0.006
	c-0.426,0.031-0.775,0.012-0.588,0c-0.852,0.01-1.706,0.06-2.541,0.161c-0.096-0.017-0.236-0.034-0.453-0.049
	c-1.078-0.078-2.105,0.136-3.1,0.509c-1.066,0.4,3.787-1.461-1.438,0.033c-0.049,0.014-0.097,0.032-0.146,0.047
	c-0.167-0.001-0.335,0.005-0.502,0.016c-0.854-0.099-1.693-0.038-2.52,0.138c-0.162-0.002-0.324-0.003-0.489,0.015
	c-1.128,0.122-4.916,0.626-1.759,0.334c-1.035,0.096-1.956,0.203-2.826,0.373c-1.274-0.174-2.555,0.127-3.822,0.331
	c-0.529,0.085,3.072-1.049-1.411,0.184c-0.164,0.045-0.304,0.119-0.458,0.175c-0.421,0.053-0.846,0.145-1.276,0.288
	c3.792-1.252-3.491,0.162-0.62,0.043c-0.732,0.04-1.434,0.061-2.116,0.109c-0.346-0.02-0.954-0.032-1.997-0.032
	c-0.718,0-1.382,0.128-2.023,0.32c-1.158-0.286-2.349-0.188-3.481,0.152c-0.378,0.026-0.757,0.07-1.137,0.128
	c-0.562-0.046-1.115-0.054-1.677-0.019c-1.208-0.173-2.429-0.118-3.904,0.161c2.41-0.455,0.466-0.177-0.773,0.042
	c-0.019-0.003-0.036-0.006-0.055-0.009c0.891-0.206,0.497-0.16-0.234-0.039c-2.103-0.285-4.723-0.153-6.453,0.265
	c1.629-0.393-1.643-0.123,0.355,0.174c-1.39-0.207-2.553-0.374-3.702-0.29c-0.689-0.072-1.41-0.051-2.208,0.073
	c-0.537-0.033-1.021-0.022-1.551,0.022c-0.355-0.013-0.898-0.02-1.701-0.017c-0.898,0.003-1.627,0.137-2.372,0.393
	c-1.015-0.079-2.054,0.009-3.306,0.186c-6.524,0.924-4.769,10.694,1.145,11.293C683.313,197.016,684.379,197.264,685.42,197.133z
	 M803.507,184.148C804.835,183.21,804.734,183.75,803.507,184.148L803.507,184.148z M780.706,213.593
	c0.001,0,0.003-0.001,0.005-0.001c-0.045,0.084-0.09,0.168-0.137,0.248C780.621,213.761,780.662,213.675,780.706,213.593z
	 M780.784,213.447c0.019-0.037,0.04-0.07,0.059-0.109c-0.018,0.038-0.038,0.07-0.056,0.106
	C780.786,213.445,780.785,213.446,780.784,213.447z M784.746,192.295C781.973,193.902,787.948,190.302,784.746,192.295
	L784.746,192.295z M774.206,194.544c0.003-0.001,0.007-0.002,0.01-0.003c0.019,0.001,0.038,0.005,0.057,0.006
	C774.247,194.546,774.23,194.545,774.206,194.544z M762.937,210.427c0.027-0.034,0.049-0.061,0.074-0.093
	c-0.058,0.109-0.101,0.232-0.153,0.346C762.264,211.305,762.071,211.506,762.937,210.427z M755.806,221.055
	c1.032-1.455,0.45-0.559-0.345,0.755C755.583,221.481,755.706,221.195,755.806,221.055z M755.066,222.983
	C754.822,223.843,754.885,223.574,755.066,222.983L755.066,222.983z M763.146,250.765c0-0.002,0-0.004,0-0.005
	c0,0.001,0,0.002,0,0.002C763.146,250.763,763.146,250.764,763.146,250.765z M763.148,250.752c0.001-0.005,0.002-0.01,0.002-0.015
	c0.029-0.196,0.071-0.416,0.127-0.604C763.375,249.804,763.245,250.339,763.148,250.752z M779.529,215.045
	c0.072-0.036,0.131-0.083,0.2-0.122C778.769,215.867,778.038,215.798,779.529,215.045z M780.153,214.453
	c-0.041,0.051-0.081,0.1-0.122,0.147C780.072,214.551,780.113,214.503,780.153,214.453z M780.488,213.977
	c-0.07,0.109-0.14,0.213-0.211,0.311C780.35,214.188,780.42,214.083,780.488,213.977z M686.922,197.02
	C687.791,197.007,687.855,197.127,686.922,197.02L686.922,197.02z M699.572,198.472c0.01,0.003,0.019,0.007,0.027,0.01
	C699.591,198.479,699.581,198.476,699.572,198.472z M682.413,196.536c0.118,0.012,0.236,0.026,0.358,0.03
	C684.497,196.62,683.712,197.113,682.413,196.536z M681.684,196.122c0.197,0.14,0.413,0.255,0.628,0.37
	C682.11,196.395,681.899,196.274,681.684,196.122z"/>
</svg>
