<?xml version="1.0" encoding="utf-8"?>
<!-- Generator: Adobe Illustrator 16.0.0, SVG Export Plug-In . SVG Version: 6.00 Build 0)  -->
<!DOCTYPE svg PUBLIC "-//W3C//DTD SVG 1.1//EN" "http://www.w3.org/Graphics/SVG/1.1/DTD/svg11.dtd">
<svg version="1.1" id="moji" xmlns="http://www.w3.org/2000/svg" xmlns:xlink="http://www.w3.org/1999/xlink" x="0px"
	 y="0px" width="986px" height="986px" viewBox="0 0 986 986" style="enable-background:new 0 0 986 986;" xml:space="preserve">
<style type="text/css">
<![CDATA[
	.st0{fill:#69BFFF;}
]]>
</style>
<g>
	<path class="st0" d="M801.309,219.908C801.225,220.352,801.286,220.226,801.309,219.908L801.309,219.908z"/>
	<path class="st0" d="M801.982,230.069C801.808,231.85,802.247,231.372,801.982,230.069L801.982,230.069z"/>
	<path class="st0" d="M720.313,292.812c-0.044-0.045-0.07-0.073-0.109-0.113c0.003,0.004,0.006,0.008,0.008,0.012
		C720.246,292.744,720.274,292.771,720.313,292.812z"/>
	<path class="st0" d="M690.344,199.755c0.757,0.227,1.536,0.285,2.316,0.203c0.386,0.049,0.773,0.069,1.164,0.034
		c-2.816,0.254,2.635-0.057,3.179-0.13c-2.282,0.307-0.073,0.143,0.444,0.206c0.833,0.102,1.67-0.04,2.459-0.315
		c-0.373,0.13-0.615,0.196-0.768,0.231c0.115-0.011,0.277-0.018,0.482-0.004c0.511,0.033,2.761,0.206,0.434-0.136
		c1.438,0.211,2.67,0.348,4.007-0.04c0.633,0.008,1.265-0.065,2.009-0.174c2.665-0.394-2.382,0.56,2.161-0.24
		c0.7-0.126,0.478-0.08-0.668,0.138c0.827,0.066,1.547-0.063,2.255-0.292c0.167,0.025,0.364,0.049,0.636,0.07
		c0.714,0.081,1.423,0.012,2.127-0.207c0.015-0.006,0.021-0.01,0.035-0.016c0.853-0.024,1.609-0.272,2.331-0.618
		c0.393-0.025,0.788-0.085,1.191-0.196c2.164-0.595,2.192-0.723,1.595-0.676c0.481-0.12,0.98-0.248,1.393-0.353
		c-0.418,0.459-0.784,0.952-1.075,1.495c1.84-3.238-1.277,2.221-0.673,0.847c-0.195,0.444-0.671,1.46-0.934,2.05
		c-0.043,0.017-0.124,0.075-0.271,0.204c-0.59,0.594-1.045,1.266-1.382,2.007c-0.586,0.605-1.172,1.177-1.573,1.988
		c0.952-1.924-0.185,0.233-0.923,1.724c-0.002,0.002-0.005,0.004-0.007,0.006c0.572-1.203,1.198-2.551-0.487,0.326
		c-0.104,0.179-0.19,0.35-0.27,0.521c-0.229,0.292-0.443,0.603-0.635,0.942c-0.334,0.412-0.61,0.845-0.852,1.307
		c-0.777,0.795-1.326,1.722-1.661,2.774c-0.29,0.415-0.537,0.821-0.765,1.264c-0.055,0.054-0.094,0.091-0.152,0.149
		c-1.045,1.045-1.695,2.313-2.21,3.646c-0.502,0.546-0.916,1.157-1.156,1.873c-0.198,0.346-0.42,0.782-0.644,1.248
		c0.376-1.042-1.622,3.007-1.814,3.482c0.836-2.07-0.008-0.19-0.473,1.037c-0.322,0.448-0.625,0.857-0.648,0.857
		c-0.27,0.565-2.001,4.112-0.509,1.63c-0.335,0.558-0.568,1.112-0.737,1.676c-0.135,0.186-0.275,0.366-0.406,0.555
		c-0.485,0.836-0.787,1.722-0.909,2.657c-0.452,1.092-0.9,2.224-0.032,0.497c0,0.001-0.001,0.003-0.001,0.005
		c-0.209,0.412-0.396,0.834-0.572,1.262c-0.033,0.022-0.095,0.1-0.207,0.274c-0.505,0.87-0.808,1.795-0.921,2.772
		c-0.201,0.572-0.342,1.164-0.438,1.764c-0.047,0.07-0.095,0.144-0.152,0.232c-0.433,0.664-0.669,1.348-0.796,2.044
		c-0.415,0.918-0.652,1.914-0.662,2.921c-0.349,0.799-0.509,1.665-0.557,2.546c-0.328,0.828-0.511,1.725-0.465,2.771
		c-0.119-2.685-0.148,0.353-0.211,1.766c-0.505,1.136-0.602,2.28-0.45,3.419c-0.011,0.275-0.021,0.576-0.029,0.883
		c-0.05,0.158-0.203,2.779-0.282,3.559c0.165-1.635,0.011,5.512,0.172,1.075c-0.027,0.771,0.036,1.435,0.134,2.167
		c-0.035-0.05-0.069,0.021-0.093,0.332c-0.024,0.328,0.034,0.695,0.074,1.047c-0.22,1.406-0.11,2.802,0.443,4.383
		c0.02,0.573,0.016,1.132-0.025,1.706c-0.013,0.176,0.198,1.127,0.422,2.056c0.054,0.531,0.325,2.082,0.475,2.713
		c1.038,4.382,0.407,0.626,0.603,1.328c0.129,0.462,0.276,0.912,0.442,1.354c0.196,1.259,0.559,2.507,1.111,3.647
		c0.207,1.214,0.661,2.401,1.468,3.287c0.485,1.468,0.575,1.456,0.543,1.11c0.249,0.604,0.842,1.772,1.281,2.601
		c0.336,0.846,0.8,1.593,1.389,2.244c0.884,2.066,2.696,5.979,0.515,0.549c0.003,0.002,0.005,0.005,0.007,0.007
		c0.473,1.151,0.979,2.091,1.639,2.904c0.522,1.064,1.214,2.014,2.108,2.843c0.252,0.398,0.541,0.779,0.897,1.135
		c0.015,0.014,0.025,0.025,0.04,0.04c0.784,1.366,1.681,2.358,2.754,3.16c0.472,0.562,0.996,1.075,1.524,1.621
		c0.171,0.177,0.321,0.331,0.462,0.474c0.598,0.735,1.321,1.346,2.166,1.836c-0.001,0.004-0.002,0.009,0.002,0.018
		c-1.445-0.778-0.154,0.232,0.967,1.066c0.168,0.171,0.354,0.36,0.574,0.581c0.49,0.49,1.031,0.855,1.601,1.165
		c0.734,0.665,1.559,1.211,2.55,1.687c0.047,0.058,0.092,0.119,0.142,0.175c-0.032,0.004-0.015,0.032,0.085,0.098
		c0.401,0.441,0.854,0.817,1.345,1.145c-0.603-0.193-0.541-0.032,1.618,1.125c0.714,0.382,1.413,0.69,2.12,0.956
		c1.341,1.002,2.897,1.671,4.556,1.944c0.479,0.26,0.966,0.464,1.47,0.622c1.463,0.909,2.599,1.762,0.567,0.162
		c0.054,0.013,0.109,0.023,0.163,0.036c0.895,0.575,1.802,0.987,2.82,1.189c0.94,0.398,1.912,0.64,2.907,0.703
		c0.702,0.194,1.432,0.282,2.206,0.267c0.086,0.015,0.173,0.032,0.259,0.046c0.329,0.147,0.661,0.282,1.002,0.376
		c4.768,1.312,0.512-0.032,1.439,0.212c1.361,0.359,2.674,0.329,3.951,0.052c0.141,0.001,0.282-0.002,0.424-0.009
		c0.818,0.126,1.609,0.106,2.388-0.037c0.671,0.018,1.342-0.04,2.028-0.161c0.33-0.015,0.656-0.049,0.98-0.1
		c0.922,0.093,1.779,0.042,2.849-0.152c0.659-0.12,1.083-0.225,1.624-0.458c0.625-0.045,1.256-0.159,1.907-0.382
		c0.568-0.195,0.991-0.339,1.306-0.446c-0.099,0.027,0.029-0.027,0.739-0.29c0.646-0.238,1.132-0.396,1.737-0.635
		c-0.066,0.061,0.004,0.083,0.345,0.02c0.671-0.124,1.338-0.375,1.973-0.697c1.235-0.167,2.407-0.785,3.391-1.613
		c0.359-0.147,0.702-0.315,1.035-0.498c1.396-0.324,2.653-1.059,3.678-2.157c0.092-0.029,0.209-0.075,0.376-0.154
		c0.855-0.405,1.791-0.851,2.16-1.052c0.04-0.022,0.078-0.034,0.118-0.058c0.439-0.257,0.781-0.457,1.05-0.614
		c0.663-0.282,1.295-0.647,1.861-1.094c1.004-0.367,1.823-1.073,2.499-1.913c0.713-0.312,1.386-0.726,2.02-1.288
		c0.134-0.076,0.273-0.157,0.426-0.247c0.621-0.364,1.146-0.811,1.608-1.313c0.601-0.393,1.134-0.852,1.608-1.376
		c0.855-0.37,1.604-0.891,2.255-1.54c0.803-0.463,1.527-1.018,2.183-1.672c0.77-0.428,1.488-0.945,2.163-1.633
		c-1.445,1.472-0.419,0.533,0.394-0.28c-0.177,0.117-0.034-0.14,0.414-0.425c0.109-0.116,0.198-0.215,0.252-0.283
		c-0.086,0.108-0.153,0.185-0.225,0.267c0.071-0.044,0.139-0.088,0.224-0.131c1.246-0.633,2.19-1.574,3.11-2.589
		c0.638-0.704-2.096,2.458,1.198-0.835c0.171-0.171,0.305-0.358,0.451-0.539c0.195-0.155,0.395-0.301,0.577-0.484
		c4.646-4.645-3.672,3.565,0.973-1.079c0.513-0.55,0.956-1.146,1.332-1.791c-1.282,2.109-0.097,0.448,0.482-0.379
		c0.514-0.557,0.964-1.168,1.397-1.79c0.187-0.28,0.504-0.754,1.022-1.525c0.169-0.25,0.417-0.728,0.648-1.201
		c-0.688,1.644,1.223-1.445,1.417-1.771c0.351-0.592,0.648-1.197,0.872-1.83c0.347-0.525,0.634-1.081,0.861-1.688
		c0.581-0.817,1.072-1.689,1.348-2.689c0.039-0.143,0.073-0.27,0.107-0.396c0.026-0.051,0.051-0.099,0.076-0.147
		c0.658-0.781,1.034-1.684,1.426-2.698c0.196-0.508,0.308-1.005,0.369-1.499c0.187-0.4,0.357-0.817,0.515-1.263
		c0.093-0.262,0.11-0.354,0.088-0.348c0.042-0.104,0.083-0.208,0.13-0.308c0.381-0.814,0.645-1.458,0.829-2.153
		c0.459-0.898,0.716-1.82,0.813-2.763c0.561-1.293,0.81-2.669,0.786-4.141c0.021-0.044,0.041-0.09,0.062-0.134
		c0.161,1.146,0.323,1.969,0.221-0.497c0.422-0.97,0.738-1.924,0.775-3.106c0.273-0.736,0.43-1.519,0.43-2.359
		c0-0.178,0-0.341-0.001-0.495c0.365-1.501,0.631-2.408-0.01-1.019c-0.006-0.27-0.014-0.446-0.022-0.547
		c0.074-0.357,0.123-0.713,0.152-1.07c0.527-1.73,0.759-3.511,0.666-5.311c0.249-0.924,0.366-1.898,0.338-2.854
		c0.321,0.701,0.677,1.347,1.14,1.958c0.251,0.839,0.381,1.267,0.254,0.313c0.003,0.003,0.006,0.007,0.009,0.01
		c0.103,0.593,0.325,1.153,0.682,1.675c0.022,0.03,0.038,0.047,0.058,0.071c0.243,0.721,0.586,1.384,1.047,1.977
		c0.162,0.462,0.242,0.666,0.272,0.703c0.126,0.396,0.292,0.789,0.527,1.191c3.07,5.241-2.337-4.037,0.783,1.229
		c0.201,0.341,0.394,0.662,0.604,0.974c0.293,0.745,0.712,1.417,1.248,2.02c0.014,0.034,0.023,0.063,0.043,0.106
		c0.376,0.845,1.16,1.582,1.99,2.211c0.344,0.799,0.829,1.551,1.526,2.297c0.002,0.006,0.003,0.009,0.006,0.015
		c0.305,0.664,0.796,1.221,1.369,1.686c0.317,0.533,0.689,1.031,1.136,1.489c0.175,0.263,0.363,0.512,0.576,0.736
		c0.327,0.565,0.732,1.071,1.204,1.525c0.042,0.064,0.077,0.133,0.122,0.197c0.285,0.66,0.657,1.273,1.157,1.809
		c0.033,0.103,0.125,0.301,0.322,0.661c0.527,0.96,1.295,1.798,2.077,2.558c3.569,3.471,10.427,2.166,11.574-3.056
		c0.402-1.832,0.433-3.433,0.021-5.269c-0.537-2.394-1.935-3.848-3.638-4.525c-0.604-1.006-0.669-1.036-0.51-0.665
		c-0.249-0.384-0.532-0.735-0.847-1.062c-0.175-0.273-0.364-0.535-0.575-0.783c0.217,0.139-0.02-0.158-1.323-1.462
		c-0.134-0.327-0.212-0.538-0.135-0.405c-0.167-0.286-0.358-0.561-0.568-0.824c0.186,0.042-0.134-0.332-1.548-1.55
		c-0.052-0.045-0.1-0.093-0.151-0.138c-0.525-1.003-1.304-1.879-2.472-2.758c-0.002-0.005-0.004-0.011-0.006-0.016
		c1.22,0.916,3.229,2.665,0.562-0.002c-0.407-0.407-0.7-0.701-0.921-0.919c-0.276-0.586-0.637-1.125-1.076-1.617
		c-0.114-0.25-0.245-0.484-0.381-0.714c-0.971-3.484-0.356-0.31-0.608-1.018c-0.269-0.754-0.573-1.396-0.97-1.993
		c-0.165-0.423-0.387-0.813-0.68-1.16c1.194,1.55,0.256-0.019-0.348-1.048c-1.188-2.028-1.275-1.977-1.022-1.368
		c-0.17-0.259-0.336-0.506-0.481-0.722c-0.004-0.021-0.012-0.048-0.02-0.075c-0.113-0.156-0.197-0.266-0.255-0.332
		c-0.233-0.345-0.243-0.364,0.255,0.331c-0.005-0.018-0.007-0.028-0.013-0.048c-0.303-0.999-0.033-1.054-0.792-2.349
		c-1.079-1.841-1.16-1.83-0.962-1.251c-0.297-0.758-0.643-1.491-1.143-2.149c1.073,1.41,0.214,0.209-0.482-0.98
		c-0.295-0.503-0.645-0.911-1.017-1.302c-0.136-0.282-0.291-0.552-0.465-0.812c-0.132-0.25-0.296-0.55-0.508-0.923
		c-0.117-0.207-0.175-0.289-0.195-0.298c-0.431-0.972-0.938-1.753-1.631-2.433c-0.138-0.25-0.31-0.552-0.531-0.93
		c0.141,0.241-0.635-1.003-0.984-1.508c-0.251-0.659-0.657-1.375-0.997-1.949c-0.066-0.113-0.119-0.197-0.166-0.269
		c-0.33-1.179-1.062-2.075-1.862-2.973c0.601,0.674,1.004,1.167,1.248,1.481c-0.205-0.302-0.511-0.777-0.901-1.443
		c-0.198-0.338-0.368-0.686-0.567-1.019c-0.016-0.314-0.06-0.662-0.188-1.13c-0.21-0.749-0.543-1.425-0.981-2.041
		c-0.029-0.152-0.076-0.293-0.113-0.44c-0.022-0.656-0.14-1.284-0.348-1.889c-0.006-0.096-0.018-0.193-0.029-0.29
		c-0.006-0.173-0.014-0.358-0.022-0.565c-0.021-0.482-0.053-0.96-0.095-1.441c-0.08-0.934-0.152-1.495-0.216-1.799
		c-0.354-6.977-10.16-9.039-12.931-1.632c-0.478,1.277-0.629,2.496-0.446,3.787c-0.12,0.755-0.11,1.509,0.022,2.257
		c-0.128,0.476-0.244,0.913-0.244,1.69c0,2.418,0.077,2.291,0.175,1.519c-0.004,0.311,0.018,0.63,0.063,0.957
		c-0.035,0.581-0.001,1.169,0.111,1.813c-0.003,0.219-0.006,0.459-0.006,0.745c0-0.227,0.094,0.436,0.181,1.095
		c0.016,0.153,0.015,0.3,0.006,0.423c0.008-0.042,0.019-0.093,0.029-0.146c-0.003-0.024-0.006-0.048-0.009-0.074
		c0.003,0.025,0.006,0.048,0.009,0.072c0.034-0.165,0.078-0.365,0.146-0.649c-0.059,0.244-0.104,0.479-0.139,0.709
		c0.098,0.759,0.155,1.271,0,0.003c-0.135,0.89-0.102,1.695,0.022,2.515c-0.166,0.906-0.089,1.907,0.163,2.833
		c-0.191,1.096,0.016,2.214,0.242,3.292c-0.746-3.556,0.361,1.991,0.075,1.078c0.06,0.188,0.101,0.363,0.134,0.528
		c0.042-0.423,0.115-0.965,0.245-1.663c-0.123,0.663-0.001,6.31-0.061,3.239c-0.063-3.255-0.128,1.49-0.128,1.087
		c0,2.198,0.059,2.339,0.136,1.795c-0.005,0.549,0.042,1.088,0.145,1.631c-0.16,0.623-0.229,1.271-0.15,1.946
		c0.041,0.359,0.052,0.712,0.063,1.073c0.006,0.188,0.012,0.357,0.017,0.517c-0.115,0.825-0.104,1.659,0.104,2.479
		c-0.003,0.343-0.003,0.689-0.002,1.019c-0.054,0.183-0.109,0.379-0.172,0.605c-0.332,1.205-0.257,2.284-0.038,3.442
		c-0.013,0.107-0.025,0.212-0.037,0.313c-0.073,0.247-0.128,0.384-0.02,0.168c-0.01,0.077-0.018,0.149-0.024,0.215
		c-0.271,0.759-0.422,1.477-0.477,2.205c-0.233,0.772-0.361,1.566-0.315,2.436c-0.027,0.129-0.054,0.259-0.072,0.386
		c-0.527,1.092-0.85,2.275-0.828,3.475c-0.354,0.898-0.584,1.862-0.555,2.767c0.034,1.05-0.216-3.042-0.237,0.894
		c-0.389,0.738-0.605,1.475-0.695,2.219c-0.095,0.313-0.215,0.733-0.378,1.325c-0.089,0.322-0.161,0.594-0.225,0.837
		c-0.276,0.534-0.546,1.069-0.74,1.646c-0.087,0.145-0.18,0.3-0.281,0.473c-0.465,0.801-0.757,1.649-0.89,2.541
		c-0.666,1.129-1.107,1.965-0.298,0.477c-0.426,0.782-0.901,1.552-1.159,2.405c-0.332,0.465-0.611,0.962-0.83,1.512
		c-0.209,0.265-0.406,0.542-0.582,0.84c0.066-0.114-0.196,0.392-0.467,0.932c-0.543,0.71-1.204,1.613-1.134,1.466
		c-0.301,0.632-1.055,1.847-1.299,2.272c-0.128,0.19-0.246,0.373-0.346,0.535c-0.228,0.25-0.453,0.502-0.657,0.772
		c0.002-0.05-0.106,0.02-0.341,0.224c-1.379,1.088-1.831,1.493-1.796,1.527c-0.521,0.46-0.977,0.992-1.354,1.578
		c-0.07,0.059-0.144,0.111-0.214,0.17c-0.484,0.405-1.422,0.988-0.963,0.77c-0.148,0.079-0.297,0.155-0.439,0.244
		c-0.64,0.386-1.238,0.833-1.794,1.341c-0.208,0.262-0.226,0.34-0.15,0.324c-0.223,0.168-0.403,0.304-0.549,0.413
		c-0.924,0.448-1.714,1.002-2.401,1.737c-0.658,0.32-1.246,0.716-1.767,1.189c-0.492,0.308-0.938,0.672-1.357,1.083
		c-0.221,0.15-0.435,0.306-0.633,0.472c-0.254,0.144-0.549,0.314-0.928,0.536c-0.792,0.464-1.433,1.062-1.971,1.746
		c-0.034,0.026-0.069,0.05-0.104,0.076c-0.492,0.222-0.955,0.492-1.393,0.813c-0.578,0.291-1.091,0.629-1.542,1.019
		c-0.827,0.402-1.582,0.938-2.237,1.588c-0.131,0.07-0.268,0.123-0.396,0.197c-0.255,0.147-0.47,0.273-0.665,0.388
		c-1.098,0.481-1.835,0.916-2.781,1.698c-0.004,0.001-0.008,0.002-0.012,0.002c1.145-0.986,0.539-0.476-0.047-0.227
		c-0.3,0.127-0.583,0.291-0.855,0.476c-0.787,0.293-1.521,0.742-2.174,1.296c-0.337,0.136-0.664,0.282-0.979,0.441
		c-0.864,0.171-1.692,0.507-2.406,1.054c-0.066,0.051-0.115,0.093-0.161,0.133c-0.069,0.008-0.153,0.021-0.245,0.036
		c0.383-0.051-0.392,0.186-1.19,0.415c0.002,0,0.003,0,0.004-0.001c-0.352,0.096-0.686,0.219-1.027,0.345
		c-0.824,0.304-0.889,0.088-1.589,0.385c-0.522,0.038-1.049,0.131-1.583,0.328c-0.172,0.062-0.337,0.144-0.508,0.209
		c-0.892-0.035-1.758,0.048-2.622,0.269c-0.669-0.073-1.314-0.063-1.95,0.032c-0.41-0.016-0.814,0.002-1.214,0.056
		c-0.651-0.059-1.3-0.04-1.956,0.069c-0.359-0.042-0.718-0.068-1.079-0.083c-1.099-0.304-1.828-0.507-0.906-0.352
		c-0.474-0.083-0.935-0.151-1.389-0.202c-0.716-0.274-1.458-0.435-2.234-0.473c-0.244-0.089-0.491-0.17-0.742-0.239
		c-0.24-0.121-0.504-0.225-0.766-0.329c-0.235-0.059-0.597-0.154-1.025-0.267c-0.944-0.563-1.918-0.981-2.957-1.264
		c-0.764-0.678-1.646-1.102-2.589-1.363c0.05,0.036,0.16,0.14,0.339,0.337c-0.244-0.184-0.374-0.332-0.359-0.342
		c-0.027-0.007-0.055-0.014-0.083-0.021c-0.387-0.312-0.805-0.568-1.245-0.789c-0.807-0.643-1.682-1.202-2.584-1.881
		c-0.425-0.45-0.89-0.83-1.395-1.154c-0.423-0.443-0.886-0.845-1.45-1.136c-0.056-0.029-0.097-0.049-0.146-0.074
		c0.01-0.018-0.002-0.051-0.049-0.112c-0.156-0.184-0.313-0.367-0.47-0.55c-2.009-2.35-1.868-1.941-1.24-1.016
		c-0.254-0.274-0.499-0.537-0.709-0.758c-0.004-0.008-0.01-0.014-0.015-0.021c-0.034-0.035-0.074-0.077-0.104-0.104
		c-0.525-0.556-0.705-0.738,0.096,0.092c-0.519-0.817-1.168-1.505-1.946-2.063c-0.024-0.045-0.049-0.091-0.07-0.137
		c-0.317-0.682-0.754-1.238-1.254-1.729c-0.416-0.678-0.924-1.288-1.57-1.809c-0.269-0.501-0.606-0.965-0.995-1.406
		c-0.038-0.067-0.082-0.134-0.122-0.2c-0.336-1.302-1.054-2.428-1.973-3.388c-0.105-0.226-0.202-0.455-0.313-0.679
		c-0.137-0.274-0.253-0.504-0.36-0.714c-0.167-0.42-0.345-0.836-0.54-1.245c-0.023-0.036-0.04-0.056-0.06-0.084
		c-0.293-0.836-0.653-1.613-1.131-2.315c-0.121-0.287-0.253-0.574-0.393-0.864c-0.006,0.087-0.01,0.196-0.011,0.325
		c-0.009-0.012-0.018-0.023-0.026-0.035c-0.009-0.146-0.019-0.292-0.031-0.434c-0.128-0.262-0.259-0.527-0.395-0.799
		c0.171,0.344,0.293,0.544,0.385,0.666c-0.131-1.225-0.464-2.318-1.139-3.448c1.864,3.118-1.131-4.563-0.274-0.93
		c0.392,1.658,0.129,0.541-0.275-0.971c0.067-1.639-0.116-3.272-0.543-4.849c0.033-0.591,0.014-1.188-0.062-1.799
		c-0.089-0.719-0.063-1.212-0.125-1.911c0.021-0.054,0.038-0.228,0.046-0.588c0.011-0.51-0.032-1.018-0.11-1.521
		c-0.053,0.134-0.115,0.322-0.191,0.605c0.066-0.247,0.123-0.491,0.169-0.733c-0.056-0.325-0.122-0.648-0.208-0.967
		c0-0.001,0.001-0.002,0.001-0.004c0.103,0.368,0.186,0.578,0.249,0.696c0.11-0.683,0.145-1.351,0.114-2.019
		c0.099-0.558,0.134-1.113,0.104-1.667c0.152-0.832,0.228-1.688,0.285-2.591c0.012-0.181,0.042-0.374,0.075-0.546
		c-0.049,0.176-0.112,0.398-0.198,0.688c0.089-0.3,0.153-0.601,0.205-0.902c0.028-0.061,0.059-0.121,0.085-0.183
		c0.029-0.108,0.045-0.143,0.027-0.059c0.301-0.724,0.484-1.509,0.496-2.412c0.146-0.456,0.251-0.924,0.304-1.405
		c0.171-0.567,0.28-1.129,0.321-1.695c0.035-0.136,0.054-0.277,0.081-0.415c0.465-0.972,0.807-2.003,0.982-3.064
		c0.362-0.731,0.601-1.496,0.697-2.3c0.261-0.574,0.378-0.882,0.009-0.134c0.001-0.007,0.001-0.014,0.002-0.021
		c0.288-0.623,0.534-1.247,0.686-1.913c-0.102,0.604-0.146,1.205,0.638-1.646c0.031-0.112,0.059-0.214,0.087-0.315
		c0.218-0.378,0.4-0.763,0.552-1.167c-0.041,0.559,0.098,0.409,0.675-1.833c0.035-0.135,0.069-0.253,0.104-0.362
		c0.129-0.178,0.263-0.351,0.387-0.532c0.254-0.37,0.451-0.851,0.619-1.351c-0.098,0.496,1.061-2.085,1.558-3.271
		c0.29-0.32,0.567-0.657,0.804-1.06c0.244-0.417,0.435-0.75,0.583-1.021c0.358-0.579,0.632-1.213,0.832-1.864l0,0
		c0.777-0.777,1.009-1.233,1.39-2.063c0.189-0.407,0.347-0.827,0.514-1.243c0.274-0.4,0.496-0.792,0.702-1.199
		c0.626-0.62,1.156-1.439,1.556-2.28c0.123-0.205,0.266-0.446,0.433-0.73c0.552-0.597,0.993-1.258,1.305-1.995
		c0.028-0.041,0.06-0.08,0.087-0.121c-0.188,0.57-0.072,0.513,0.905-1.537c0.59-0.599,1.075-1.341,1.543-2.019
		c0.146-0.197,0.257-0.414,0.373-0.627c0.663-0.817,1.29-1.707,0.211-0.315c0.836-1.078,1.464-2.011,1.953-3.125
		c0.16-0.268,0.365-0.628,0.622-1.096c0.545-0.463,1.029-0.978,1.431-1.664c0.067-0.115,0.116-0.2,0.176-0.301
		c0.501-0.481,0.924-0.998,1.298-1.563c0.426-0.398,0.813-0.848,1.185-1.346c0.059-0.103,0.15-0.258,0.265-0.451
		c0.697-0.519,1.328-1.12,1.72-1.912c0.418-0.456,0.762-0.979,1.12-1.488c0.05-0.066,0.081-0.143,0.127-0.21
		c0.799-0.636,1.532-1.361,2.047-2.24c0.329-0.562,0.556-0.971,0.707-1.266c0.535-0.737,0.951-1.521,1.314-2.504
		c-1.725,4.667-0.489,1.833,0.341,0.095c0.227-0.474,0.469-0.926,0.679-1.391c1.037-1.446,1.483-3.112,1.746-5.262
		c0.336-2.748-2.273-5.938-4.912-6.451c-1.49-0.289-2.749-0.335-4.001-0.069c-0.806-0.027-1.612,0.035-2.447,0.264
		c-0.392,0.107-0.707,0.197-0.97,0.273c-0.67,0.124-1.318,0.343-1.906,0.693c-0.325,0.05-0.65,0.101-0.971,0.177
		c-0.524,0.124-1.002,0.287-1.459,0.471c-0.907,0.093-1.785,0.362-2.572,0.806c-0.685,0.143-1.321,0.434-1.922,0.798
		c-0.817,0.164-1.322,0.265-2.216,0.788c-0.219,0.128-0.411,0.242-0.58,0.343c-0.678,0.203-1.293,0.403-1.439,0.489
		c-0.207,0.121-0.376,0.222-0.541,0.319c-0.177,0.08-0.355,0.158-0.522,0.252c-1.062,0.181-2.066,0.532-2.934,1.182
		c-0.88,0.26-0.998,0.319-0.713,0.284c-0.074,0.017-0.149,0.031-0.223,0.049c-0.993,0-1.967,0.197-2.94,0.686
		c-1.958-0.042-0.849,0.121-0.405,0.21c-0.032,0.019-0.059,0.036-0.088,0.053c-0.082-0.002-0.188-0.007-0.32-0.013
		c-0.994-0.05-1.924,0.055-2.838,0.304c-0.599,0.039-1.192,0.161-1.784,0.272c1.716-0.323,0.635-0.184-0.495-0.006
		c-0.912-0.142-1.831-0.136-2.751,0.132c-0.208,0.061-0.36,0.114-0.485,0.164c-1.529-0.178-3.303-0.289-4.44,0.073
		c-0.129,0.002-0.309,0.009-0.559,0.025c-0.241-0.002-0.483-0.005-0.725-0.007c-0.313-0.003-0.584-0.005-0.816-0.005
		c-0.211-0.023-0.419-0.053-0.632-0.063c-0.085,0.009-0.15,0.018-0.203,0.028c-0.518-0.101-1.035-0.139-1.553-0.114
		c-0.428-0.076-0.855-0.113-1.283-0.104c-0.912-0.204-1.77-0.149-2.604,0.058c-0.047,0.002-0.109-0.007-0.15-0.002
		c-0.401,0.049-0.802,0.105-1.203,0.16c0.27-0.05,0.187-0.077-0.25-0.08c-2.462-0.116-2.362-0.003-1.624,0.131
		c-0.436,0.011-0.86,0.063-1.28,0.158c0.468-0.068,0.325,0.129-0.727,0.246c-0.063,0.007-0.124,0.018-0.188,0.026
		c-0.183,0.069-0.365,0.144-0.55,0.229c0.185-0.087,0.358-0.163,0.517-0.225c-0.664,0.08-1.313,0.185-1.965,0.292
		c5.04-0.843-0.74-0.385-1.682-0.126c-0.153,0.037-0.291,0.104-0.438,0.154c-0.571-0.027-1.144,0.02-1.727,0.169
		c-0.17-0.001-0.34-0.003-0.551-0.003c-0.513,0-0.986,0.089-1.446,0.213c-0.886-0.047-1.775,0.039-2.68,0.286
		c2.401-0.657-3.843-0.301-1.335-0.031c-0.487-0.052-0.969,0.006-1.448,0.087c-0.555-0.194-1.133-0.303-1.739-0.305
		c-0.397,0-0.768,0.065-1.127,0.154c-4.125-0.167-7.246,4.84-3.855,8.457c0.76,0.81,1.576,1.386,2.493,1.712
		c0.114,0.08,0.225,0.159,0.366,0.242c2.535,1.485,0.782,0.237,1.323,0.472c1.678,0.729,2.941,0.898,4.796,0.623
		c-4.307,0.639-1.657,0.417-0.078,0.251c0.269-0.028,0.422-0.054,0.507-0.078c0.558,0.074,1.499,0.171,2.228,0.231
		c-0.117,0.165-1.634,0.172,1.289,0.172c0.458,0,0.882-0.075,1.295-0.177c0.534,0.025,1.062-0.006,1.583-0.093
		c0.969,0.14,1.932,0.08,2.889-0.16c1.363,0.151,2.739,0.082,4.089-0.214c0.466,0.021,0.936,0.002,1.417-0.053
		c-0.056,0.034,0.065,0.062,0.381,0.081c0.673,0.078,0.261-0.025-0.146-0.117c0.02-0.003,0.04-0.007,0.06-0.01
		c0.724,0.173,1.447,0.222,2.171,0.15c0.772,0.202,1.558,0.368,0.505-0.072C690.29,199.767,690.317,199.761,690.344,199.755z
		 M802.529,246.81c-0.098,0.198-0.176,0.387-0.256,0.577c0.001-0.02,0.002-0.039,0.003-0.06
		C802.344,247.188,802.427,247.019,802.529,246.81z M815.606,242.092c0.002,0.005,0.004,0.008,0.006,0.013
		c-0.01-0.016-0.019-0.03-0.028-0.045C815.592,242.071,815.6,242.082,815.606,242.092z M813.615,259.889
		c0,0.001-0.001,0.002-0.001,0.002c-0.016-0.133-0.03-0.265-0.051-0.4c0.001,0,0.001-0.001,0.002-0.001
		C813.58,259.604,813.597,259.74,813.615,259.889z M815.028,253.848c-0.15,0.336-0.339,0.766-0.57,1.301
		c-0.001-0.002-0.002-0.004-0.002-0.007c0.269-0.641,0.468-1.231,0.61-1.802C815.054,253.489,815.041,253.663,815.028,253.848z
		 M839.636,255.439c-0.062-0.139-0.127-0.292-0.194-0.449c0.008-0.001,0.018-0.001,0.008-0.023c0.083,0.194,0.15,0.351,0.206,0.484
		C839.649,255.447,839.642,255.443,839.636,255.439z M834.446,248.606c0.038,0.063,0.07,0.123,0.096,0.178
		C834.514,248.722,834.477,248.666,834.446,248.606z M819.898,223.681c-0.063-0.114-0.113-0.199-0.158-0.271
		c-0.003-0.013-0.008-0.026-0.012-0.039C819.779,223.464,819.831,223.559,819.898,223.681z M816.765,243.425
		c-0.194-0.167-0.368-0.338-0.523-0.508c-0.002-0.011-0.003-0.022-0.004-0.033C816.409,243.071,816.577,243.264,816.765,243.425z
		 M802.289,245.982c0.006-0.045,0.009-0.063,0.01-0.063C802.295,245.942,802.293,245.956,802.289,245.982z M802.137,247.612
		c0.016-0.033,0.033-0.068,0.054-0.11c0.003,0.017,0.006,0.033,0.01,0.049c-0.032,0.078-0.061,0.154-0.089,0.231
		C802.119,247.726,802.127,247.68,802.137,247.612z M719.483,197.149c-0.004,0.006-0.007,0.013-0.011,0.019
		c-0.074,0.021-0.135,0.037-0.227,0.063c0.075-0.021,0.138-0.053,0.211-0.075C719.466,197.153,719.475,197.151,719.483,197.149z
		 M716.873,200.958C717.245,200.255,717.159,200.464,716.873,200.958L716.873,200.958z M701.234,226.036
		c1.196-1.688,0.603-0.833-0.003,0.008C701.232,226.041,701.233,226.039,701.234,226.036z M700.136,290.118
		C699.86,289.651,699.966,289.77,700.136,290.118L700.136,290.118z M729.063,315.581c0.152,0.119,0.301,0.229,0.451,0.341
		c-0.007,0-0.014-0.002-0.02-0.003C729.353,315.809,729.222,315.706,729.063,315.581z M729.789,316.152
		c-0.087-0.068-0.194-0.153-0.29-0.228c0.007,0,0.013,0.001,0.019,0.001c0.107,0.08,0.215,0.163,0.321,0.239
		C729.822,316.161,729.806,316.156,729.789,316.152z M730.328,300.998c-0.071-0.086-0.149-0.161-0.225-0.241
		c0.008,0.002,0.015,0.004,0.022,0.006C730.191,300.838,730.249,300.902,730.328,300.998z M713.38,233.074
		C713.56,232.6,713.648,232.588,713.38,233.074L713.38,233.074z M714.677,230.151c-0.092,0.326-0.153,0.552-0.192,0.706
		c-0.02,0.054-0.035,0.099-0.051,0.146C714.52,230.709,714.602,230.418,714.677,230.151z M721.304,218.38
		c0.634-1.517,0.282,0.14-0.57,1.266C720.919,219.265,721.102,218.863,721.304,218.38z M728.79,206.617
		c-0.147,0.107-0.306,0.219-0.478,0.335C728.479,206.84,728.632,206.729,728.79,206.617z M729.676,205.898
		C730.333,204.724,730.748,204.918,729.676,205.898L729.676,205.898z M682.545,187.701c-0.207,0.098-0.416,0.206-0.627,0.326
		C682.141,187.9,682.348,187.795,682.545,187.701z M687.472,199.691c-0.385-0.086-0.721-0.152-0.073-0.035
		c0.043,0.012,0.085,0.015,0.128,0.025C687.508,199.685,687.487,199.688,687.472,199.691z"/>
	<path class="st0" d="M707.514,252.545c0.068-0.246,0.104-0.39,0.119-0.456c-0.009,0.02-0.019,0.039-0.027,0.059
		C707.58,252.24,707.546,252.382,707.514,252.545z"/>
	<path class="st0" d="M817.84,219.311C818.201,219.843,818.237,219.822,817.84,219.311L817.84,219.311z"/>
	<path class="st0" d="M734.063,200.644c-0.107,0.161-0.223,0.295-0.333,0.443C733.589,201.335,733.639,201.279,734.063,200.644z"/>
	<path class="st0" d="M709.493,275.898C709.733,276.109,709.565,275.377,709.493,275.898L709.493,275.898z"/>
	<path class="st0" d="M707.047,259.51C707.098,259.533,707.1,259.452,707.047,259.51L707.047,259.51z"/>
	<path class="st0" d="M828.372,238.048c-0.013-0.018-0.02-0.028-0.032-0.045c0,0,0,0.001,0,0.001
		C828.352,238.021,828.359,238.031,828.372,238.048z"/>
	<path class="st0" d="M706.916,259.771c0.059-0.151,0.103-0.23,0.131-0.261c-0.025-0.011-0.063-0.052-0.111-0.142
		c-0.015,0.092-0.024,0.182-0.042,0.275C706.9,259.686,706.909,259.729,706.916,259.771z"/>
	<path class="st0" d="M801.338,219.76c0,0,0,0.001,0,0.001c0.003,0.02,0.005,0.042,0.008,0.062c0-0.001,0-0.002,0-0.003
		C801.344,219.801,801.341,219.781,801.338,219.76z"/>
	<path class="st0" d="M709.477,276.065c0.004-0.068,0.011-0.121,0.017-0.167c-0.026-0.023-0.058-0.061-0.095-0.109
		c0.005,0.043,0.005,0.09,0.01,0.133C709.432,275.97,709.453,276.017,709.477,276.065z"/>
	<path class="st0" d="M802.405,287.533c-0.005,0.007-0.01,0.013-0.015,0.02C801.56,288.804,803.427,286.066,802.405,287.533z"/>
	<path class="st0" d="M846.885,195.418c0.003,0.024,0.008,0.048,0.012,0.073C846.893,195.467,846.889,195.444,846.885,195.418z"/>
	<polygon class="st0" points="846.885,195.412 846.884,195.41 846.885,195.418 	"/>
	<path class="st0" d="M847.024,196.05c-0.047-0.185-0.101-0.367-0.128-0.559C846.931,195.716,846.977,195.907,847.024,196.05z"/>
	<path class="st0" d="M821.515,191.58c-0.1,0.347-0.173,0.705-0.173,1.107c0,1.208,0.664,2.244,0.653,2.158
		c0.252,2.142,0.518,4.244,1.422,5.652c0.082,0.128,0.751,1.575,1.504,2.393c-1.552-1.687-0.556-0.294,0.299,0.734
		c0.282,0.821,0.696,1.503,1.33,2.146c0.393,0.817,0.872,1.538,1.579,2.237c0.221,0.219,0.382,0.363,0.516,0.474
		c0.333,0.552,0.758,0.996,1.438,1.285c0.209,0.089,3.164,2.595,1.797,0.979c0.97,1.146,2.696,1.653,4.175,1.509
		c0.036,0.04,0.182,0.088,0.536,0.146c0.127,0.021,0.227,0.037,0.312,0.05c-0.204-0.016-0.271,0.018,0.695,0.284
		c0.432,0.119,2.416,0.327,1.115-0.141c0.403,0.145,0.753,0.173,1.094,0.145c0.377,0.266,0.781,0.498,1.207,0.675
		c-0.698-0.292,1.521,0.743,2.744,0.743c1.399,0,2.447-0.523,3.49-1.317c0.68-0.093,1.349-0.273,1.908-0.664
		c0.299-0.208,0.577-0.42,0.843-0.637c1.248-0.404,2.411-1.226,2.985-2.35c0.688-0.421,1.411-0.868,1.962-1.419
		c0.74-0.741,1.572-2.018,1.851-3.03c0.052-0.189,0.09-0.338,0.129-0.491c0.976-1.517,1.317-3.422,1.198-5.207
		c0.032-0.14,0.085-0.356,0.179-0.689c0.334-1.183,0.203-2.296-0.197-3.349c-0.014-0.247-0.041-0.493-0.088-0.737
		c0.023-0.045-0.076-0.493-0.405-1.689c-0.034-0.124-0.082-0.23-0.124-0.344c0.4,0.523-1.628-4.491-1.024-2.726
		c-0.325-0.951-0.789-1.752-1.353-2.495c-0.403-1.328-1.118-2.525-2.288-3.339c-0.531-0.889-1.232-1.455-2.033-1.895
		c-0.463-0.505-0.953-0.98-1.501-1.398c-0.628-0.914-1.446-1.628-2.715-2.093c-0.048-0.034-0.112-0.076-0.213-0.136
		c-0.27-0.161-0.489-0.288-0.68-0.395c-0.338-0.259-0.715-0.463-1.107-0.631c-0.198-0.119-0.433-0.258-0.744-0.44
		c-0.879-0.515-1.827-0.729-2.795-0.774c-1.091-0.503-2.269-0.705-3.491-0.525c-0.662-0.124-1.347-0.129-2.087,0.063
		c-0.039-0.004-0.075-0.008-0.126-0.011c-1.117-0.065-2.054,0.425-3.021,0.886c2.726-1.297-1.138,0.061-2.093,0.467
		c1.294-0.55-1.938,1.118-2.6,1.734c-0.296,0.276,0.486-0.209-0.686,0.545c-1.187,0.764-2.009,1.707-2.856,2.815
		c-0.258,0.336-0.499,0.778-0.679,1.203c-0.683,0.791-1.111,1.893-1.137,2.927C821.413,187.683,821.047,189.828,821.515,191.58z
		 M858.005,198.001c0.03,0.177,0.048,0.336,0.06,0.482C858.045,198.322,858.032,198.159,858.005,198.001z M836.104,206.566
		C835.965,206.546,835.993,206.527,836.104,206.566L836.104,206.566z M847.562,198.14c-0.034,0.07-0.074,0.15-0.118,0.239
		c0.036-0.104,0.071-0.199,0.104-0.282C847.553,198.111,847.557,198.125,847.562,198.14z M847.238,199.073
		c-0.026,0.089-0.055,0.204-0.086,0.351c0.027-0.129,0.057-0.252,0.087-0.37C847.239,199.06,847.238,199.067,847.238,199.073z
		 M847.393,212.725c0.045-0.035,0.089-0.068,0.133-0.104C848.264,212.303,848.091,212.522,847.393,212.725z M852.869,183.746
		C853.643,184.396,853.57,184.923,852.869,183.746L852.869,183.746z M852.628,183.56c-0.199-0.127-0.397-0.256-0.622-0.36
		C852.247,183.312,852.451,183.436,852.628,183.56z M847.268,196.796c0.019,0.18,0.049,0.359,0.083,0.536
		c-0.065,0.474-0.101,0.95-0.104,1.428c-0.092,0.172-0.191,0.359-0.313,0.578c-0.178,0.32-0.32,0.632-0.443,0.943
		c-0.451,0.308-0.875,0.63-1.264,0.983c-0.504,0.202-0.979,0.489-1.424,0.872c-1.354,0.391-2.526,1.213-3.467,2.258
		c-0.817,0.538-1.485,1.244-2.096,2.202c-0.104,0.162-0.191,0.324-0.27,0.486c-0.499-0.251-1.007-0.49-1.623-0.5
		c-0.016,0-0.021-0.001-0.036-0.002c-0.525-0.679-1.147-1.053-2.036-1.392c1.307,0.498,0.678,0.274,0.174-0.313
		c-0.081-0.15-0.183-0.333-0.337-0.596c0.021,0.037-1.003-1.327-0.808-0.703c-0.299-0.805-0.373-1.555-0.908-2.26
		c-0.083-0.797-0.433-1.44-0.887-2.047c-0.174-0.626-0.325-1.096-0.284-0.879c-0.127-0.67-0.2-1.038-0.241-1.229
		c-0.033-0.229-0.077-0.52-0.142-0.936c-0.164-1.056-0.186-1.852-0.386-3.026c0.152-0.5,0.244-1.023,0.25-1.613
		c0.004-0.356,0.004-0.638,0.003-0.87c0.086-0.162,0.183-0.351,0.297-0.584c0.239-0.491,0.419-0.967,0.569-1.445
		c0.238-0.309,0.444-0.645,0.618-1.016c0.612-0.367,1.199-0.741,1.77-1.159c0.433-0.062,1.351-0.254,1.736-0.307
		c0.315-0.043,0.481-0.083,0.556-0.119c0.214-0.007,0.431-0.022,0.646-0.042c0.386,0.221,0.799,0.396,1.241,0.52
		c0.184,0.05,0.612,0.122,1.1,0.19c0.885,0.506,1.213,0.638,1.223,0.571c0.265,0.153,0.519,0.297,0.725,0.412
		c0.09,0.109,0.163,0.225,0.267,0.328c1.363,1.364,1.214,1.095,1.097,0.891c0.12,0.138,0.407,0.437,1.016,1.045
		c0.288,0.288,0.604,0.507,0.931,0.703c0.146,0.197,0.294,0.393,0.44,0.583c0.115,0.335,0.254,0.664,0.438,0.98
		c0.17,0.29,0.37,0.537,0.577,0.773c0.077,0.116,0.169,0.256,0.271,0.415c0.091,0.687,0.313,1.337,0.659,1.954
		c-0.038-0.282-0.057-0.617-0.033-0.998c-0.021,0.347-0.007,0.679,0.034,1c0.014,0.025,0.023,0.05,0.037,0.075
		c0.477,1.03,0.286,1.115,0.103,0.563C847.089,196.304,847.17,196.553,847.268,196.796z M842.608,188.923
		c0.266,0.253-0.01,0.006-0.105-0.057C842.482,188.821,842.495,188.815,842.608,188.923z M834.233,186.322
		c-0.01,0.003-0.016,0.005-0.025,0.009c0.001-0.001,0.001-0.001,0.002-0.002C834.219,186.326,834.224,186.325,834.233,186.322z"/>
</g>
</svg>
