<?xml version="1.0" encoding="utf-8"?>
<!-- Generator: Adobe Illustrator 16.0.0, SVG Export Plug-In . SVG Version: 6.00 Build 0)  -->
<!DOCTYPE svg PUBLIC "-//W3C//DTD SVG 1.1//EN" "http://www.w3.org/Graphics/SVG/1.1/DTD/svg11.dtd">
<svg version="1.1" id="レイヤー_3" xmlns="http://www.w3.org/2000/svg" xmlns:xlink="http://www.w3.org/1999/xlink" x="0px"
	 y="0px" width="986px" height="986px" viewBox="0 0 986 986" style="enable-background:new 0 0 986 986;" xml:space="preserve">
<style type="text/css">
<![CDATA[
	.st0{fill:#69BFFF;}
]]>
</style>
<g>
	<path class="st0" d="M719.661,218.93c0.032,0.029,0.066,0.062,0.101,0.093c-0.212-0.261-0.414-0.484-0.578-0.649
		c0.037,0.056,0.074,0.11,0.11,0.167C719.42,218.666,719.542,218.796,719.661,218.93z"/>
	<path class="st0" d="M705.682,225.363c-0.169-0.19-0.309-0.381-0.459-0.571C705.043,224.627,705.124,224.735,705.682,225.363z"/>
	<path class="st0" d="M681.982,184.612c0.051,0.142,0.1,0.289,0.163,0.423c0.036,0.235,0.101,0.61,0.192,1.165
		c0.098,0.586,0.252,1.11,0.447,1.67c0.217,0.625,0.457,1.161,0.757,1.663c0.117,0.665,0.308,1.284,0.653,1.98
		c0.273,0.55,0.464,1.716,0.172,0.238c0.104,0.523,0.298,0.985,0.529,1.424c0.164,0.756,0.455,1.475,0.859,2.139
		c0.251,1.03,0.748,1.984,1.557,2.797c0.148,0.149,0.262,0.261,0.35,0.346c-0.002,0.011,0.003,0.033,0.025,0.076
		c0.16,0.31,0.537,0.938,0.854,1.439c0.354,0.82,0.977,2.079,0.508,0.792c0.359,0.986,0.756,1.961,1.341,2.833
		c0.231,0.345,0.416,0.617,0.568,0.839c0.065,0.113,0.133,0.228,0.209,0.358c0.239,0.375,0.511,0.723,0.796,1.058
		c0.299,0.703,0.73,1.317,1.254,1.86c0.334,0.577,0.76,1.115,1.287,1.639c0.02,0.067,0.037,0.134,0.059,0.2
		c-1.557-1.159-0.842-0.565,0.127,0.359c0.188,0.512,0.422,1.017,0.727,1.524c0.037,0.061,0.797,0.995,1.41,1.724
		c0.203,0.341,0.473,0.782,0.703,1.175c0.198,0.338,0.533,0.8,0.902,1.241c0.094,0.165,0.195,0.34,0.313,0.54
		c0.26,0.444,0.573,0.822,0.906,1.174c0.158,0.276,0.334,0.542,0.533,0.796c0.069,0.12,0.141,0.242,0.22,0.378
		c2.173,3.709,0.452,0.511,0.868,1.145c0.35,0.532,0.742,0.963,1.156,1.363c0.23,0.366,0.488,0.716,0.782,1.048
		c0.077,0.134,0.161,0.278,0.252,0.433c0.292,0.499,0.647,0.912,1.028,1.296c0.217,0.354,0.461,0.703,0.732,1.044
		c0.156,0.145,0.515,0.5,0.952,0.924c0.242,0.419,0.517,0.809,0.822,1.174c0.197,0.382,0.429,0.741,0.708,1.056
		c-0.349-0.268-0.385-0.194,1.413,1.604c3.011,3.011,0.735,0.729,0.149-0.27c0.321,0.548,4.445,4.896,2.294,2.417
		c0.317,0.365,0.701,0.645,1.03,1c0.123,0.132,0.208,0.219,0.277,0.286c0.484,0.737,1.014,1.455,1.663,2.048
		c-0.14,0.167-0.271,0.351-0.397,0.543c-0.162,0.152-0.342,0.325-0.556,0.539c-0.44,0.443-0.807,0.929-1.105,1.455
		c-0.841,0.751-1.543,1.669-2.039,2.679c-0.458,0.574-0.824,1.214-1.067,1.907c-0.306,0.469-0.552,0.97-0.723,1.52
		c-0.464,0.529-0.814,1.099-1.089,1.709c-0.603,0.773-1.052,1.652-1.263,2.66c-0.041,0.183-0.068,0.368-0.102,0.552
		c-0.029,0.038-0.058,0.076-0.086,0.115c-2.042,2.736-1.135,1.772-0.234,0.724c-0.571,0.826-0.955,1.699-1.165,2.65
		c-0.24,0.503-0.449,1.027-0.575,1.623c-0.082,0.385-0.145,0.687-0.199,0.953c-0.083,0.144-0.148,0.251-0.201,0.334
		c0.047-0.068,0.11-0.157,0.188-0.264c-0.029,0.146-0.056,0.276-0.077,0.387c-0.578,1.098-0.907,2.252-0.858,3.504
		c-0.576,1.053-0.914,2.205-0.772,3.532c-0.159-1.49-0.14-0.89-0.06,0.227c-0.209,0.641-0.313,1.302-0.332,1.985
		c-0.031,0.128-0.064,0.286-0.101,0.496c-0.247,0.92-0.31,1.84-0.193,2.761c-0.078,0.658-0.141,1.317-0.191,1.975
		c0.033,0.465,0.095,0.925,0.17,1.382c-0.092,0.725-0.169,1.442-0.176,2.19c-0.067,6.635,0.079-5.212,0.079,1.426
		c0,0.584,0.007,1.015,0.02,1.332c-0.02,0.145-0.038,0.289-0.059,0.453c-0.107,0.854,0.054,1.969,0.358,2.981
		c-0.142-0.199-0.077,0.188,0.577,2.092c0.316,0.922,0.566,1.76,0.942,2.656c-0.054-0.041-0.056,0.126,0.104,0.83
		c0.299,1.321,1.037,2.44,1.853,3.488c0.002,0.006,0.002,0.013,0.004,0.02c-2.641-3.213-1.15-1.061,0.115,0.56
		c0.131,0.53,0.326,1.047,0.66,1.548c0.438,0.657,0.898,1.235,1.399,1.764c0.198,0.344,0.422,0.671,0.669,0.984
		c0.131,0.233,0.287,0.505,0.478,0.831c2.057,3.511,0.525,0.592,0.922,1.139c0.552,0.764,0.825,1.131,1.294,1.569
		c-0.319-0.251-0.402-0.241,1.294,1.456c0.371,0.372,0.743,0.65,1.13,0.902c0.62,0.97,1.473,1.817,2.466,2.374
		c0.211,0.237,0.581,0.625,1.189,1.233c2.925,2.925,0.599,0.398,1.151,0.892c0.678,0.673,1.453,1.179,2.318,1.528
		c0.027,0.028,0.054,0.054,0.08,0.083c0.867,0.862,1.891,1.458,3.069,1.789c0.366,0.101,0.671,0.183,0.933,0.25
		c0.345,0.183,0.693,0.36,1.045,0.529c0.59,0.486,1.212,0.875,1.91,1.163c0.51,0.315,1.04,0.561,1.598,0.747
		c0.599,0.364,1.238,0.664,1.986,0.85c-3.043-0.758,1.313,0.532,0.984,0.442c0.465,0.128,0.838,0.228,1.135,0.305
		c0.951,0.485,1.934,0.827,2.98,0.876c0.346,0.133,0.703,0.225,1.074,0.271c-2.348-0.383-0.055,0.132,0.753,0.31
		c0.951,0.683,2.36,0.965,3.657,0.915c0.781,0.322,1.592,0.498,2.433,0.521c0.724,0.255,1.472,0.434,2.282,0.443
		c0.079,0.001,0.146-0.003,0.221-0.004c1.213,0.478,2.419,0.606,3.725,0.425c0.113,0.018,0.228,0.035,0.339,0.051
		c0.3,0.139,0.616,0.267,0.998,0.371c0.177,0.049,0.899,0.065,1.673,0.069c0.738,0.263,1.507,0.41,2.314,0.413
		c0.312,0,0.609-0.029,0.901-0.073c1.073,0.217,2.177,0.263,3.253,0.088c0.329,0.018,0.738,0.045,1.254,0.09
		c0.239,0.036,0.479,0.042,0.721,0.018c-3.903,0.146,2.381,0.061,1.076,0.173c0.255-0.011,0.383-0.027,0.401-0.05
		c0.466,0.063,0.934,0.119,1.399,0.181c0.734,0.129,1.469,0.063,2.202-0.2c0.085-0.023,0.159-0.044,0.237-0.065
		c0.604,0.021,1.189,0.053,1.773,0.042c1.192,0.25,2.412,0.283,3.603,0.069c0.856,0.07,1.734-0.02,2.644-0.292
		c0.468,0.049,0.938,0.069,1.417,0.033c0.085-0.006,0.152-0.014,0.204-0.021c1.034,0.145,2.021,0.133,2.977-0.1
		c0.13,0,0.265,0.001,0.411,0.001c0.517,0,0.993-0.074,1.453-0.188c0.003,0,0.005,0,0.008,0c2.95,0,2.309-0.113,1.192-0.228
		c0.32,0,0.632-0.021,0.938-0.056c1.13,0.19,2.258,0.187,3.39-0.036c0.735,0.114,1.478,0.087,2.224-0.031
		c0.953,0.134,1.863,0.148,2.884-0.132c0.075-0.021,0.139-0.039,0.21-0.058c0.646,0.121,1.253,0.169,1.864,0.146
		c0.888,0.152,1.805,0.177,2.678-0.04c0.101,0.01,0.208,0.002,0.313,0c0.354,0.067,0.72,0.108,1.107,0.108
		c5.081,0-0.339-0.115,1.791-0.217c0.746-0.026,1.487-0.115,2.222-0.268c0.029-0.008,0.054-0.015,0.082-0.022
		c0.227-0.014,0.453-0.039,0.679-0.081c0.057,0.013,0.128,0.025,0.232,0.036c1.367,0.146,3.031-0.33,4.406-0.751
		c0.171,0.001,0.352,0.001,0.555,0.001c0.691,0,1.314-0.113,1.9-0.295c0.456-0.028,0.915-0.086,1.382-0.205
		c0.126-0.032,0.253-0.064,0.378-0.097c0.395,0.031,0.764,0.052,0.971,0.047c1.672-0.033,2.991-0.473,4.438-1.255
		c3.017-1.63,3.668-4.847,3.229-7.938c-0.063-0.445-0.184-0.828-0.334-1.253c-1.811-5.133-7.49-5.817-11.036-3.674
		c-0.89-0.033-1.786,0.164-2.632,0.507c-0.674,0.047-1.339,0.176-1.974,0.423c-0.39,0.151-1.323,0.324-1.748,0.424
		c-0.091-0.008-0.179-0.015-0.272-0.024c-0.351,0.03-0.7,0.071-1.048,0.12c-0.05-0.015-0.172-0.026-0.384-0.033
		c-0.801-0.056-1.528,0.123-2.232,0.388c-0.943-0.2-1.925-0.139-2.875,0.058c-0.027-0.001-0.059-0.002-0.089-0.003
		c1.218-0.346,0.423-0.191-0.468-0.013c-0.244-0.004-0.515-0.007-0.834-0.007c-0.23,0-0.432,0.001-0.621,0.002
		c-0.588-0.115-1.173-0.198-1.565-0.156c-0.903,0.097-1.743,0.182-2.563,0.328c-0.372-0.03-0.744-0.044-1.117-0.035
		c-1.184-0.271-3.029-0.21-4.017,0.062c-0.16,0.044-0.284,0.079-0.423,0.118c-0.566-0.049-1.123-0.031-1.688,0.051
		c-2.042-0.237-4.098-0.38-0.82,0.167c-0.071,0.018-0.141,0.027-0.211,0.046c-0.605-0.032-1.17-0.012-1.717,0.062
		c-1.058-0.102-2.076-0.047-3.081,0.21c-0.004,0-0.007,0-0.011,0c-0.574,0.012-0.672,0.054-0.569,0.101
		c-0.968-0.124-1.902-0.141-2.833-0.035c-1.006-0.192-2.064-0.189-3.045,0.059c-0.972-0.187-1.975-0.183-2.842,0.136
		c-0.621-0.044-1.232-0.082-1.86-0.064c-0.051,0.001-0.091,0.012-0.141,0.014c-0.143-0.055-0.728-0.045-2.022,0.071
		c-0.053,0.005-0.088,0.011-0.128,0.016c-0.606-0.113-1.115-0.131-1.693-0.114c-1.058-0.263-1.574-0.25-2.494-0.166
		c-0.273,0.025-0.505,0.05-0.719,0.074c-1.028-0.244-1.958-0.334-2.858-0.253c-0.261-0.031-0.523-0.049-0.787-0.058
		c-0.654-0.219-1.337-0.353-2.076-0.353c-0.013,0-0.022,0-0.035,0c-0.801-0.232-1.668-0.302-2.538-0.265
		c-0.073-0.03-0.146-0.062-0.22-0.092c-0.226-0.093-1.152-0.158-2.076-0.202c-0.768-0.313-1.514-0.509-2.264-0.585
		c-0.909-0.366-1.857-0.577-2.842-0.633c-0.18-0.055-0.359-0.11-0.55-0.148c2.454,0.495-0.612-0.316-1.366-0.444
		c2.294,0.388-0.326-0.22-1.35-0.491c-0.674-0.179-1.175-0.305-1.538-0.388c-0.753-0.382-0.511-0.229-0.194-0.043
		c-0.034-0.007-0.066-0.014-0.098-0.021c-0.534-0.268-1.089-0.462-1.663-0.582c-0.938-0.515-1.267-0.642-1.249-0.56
		c-0.225-0.097-0.453-0.183-0.686-0.257c-0.337-0.186-0.685-0.341-1.041-0.473c-1.32-1.042-2.833-1.92-4.393-2.442
		c-0.68-0.56-1.329-1.033-2.068-1.376c-0.076-0.081-0.142-0.149-0.228-0.239c-0.466-0.487-0.983-0.901-1.514-1.307
		c-0.005-0.008-0.01-0.015-0.015-0.023c2.187,1.626,1.395,0.919-0.08-0.13c-0.383-0.608-0.855-1.164-1.46-1.65
		c-0.52-0.418-1.026-0.798-1.546-1.171c-0.209-0.258-0.417-0.514-0.641-0.771c-0.006-0.006-0.008-0.009-0.014-0.015
		c-0.34-0.933-0.924-1.797-1.641-2.461c-0.274-0.537-0.622-1.035-1.047-1.499c-0.096-0.207-0.189-0.415-0.307-0.616
		c-0.291-0.669-0.508-1.155-0.996-1.691c-0.074-0.125-0.141-0.259-0.221-0.379c-0.012-0.044-0.022-0.084-0.033-0.131
		c-0.148-0.677-0.32-1.142-0.582-1.741c0.006-0.026-0.002-0.094-0.027-0.213c-0.033-0.819-0.264-1.791-0.584-2.659
		c0.059-0.395,0.106-0.675,0.106-0.565c0-2.027-0.043-2.386-0.099-2.059c-0.01-0.145-0.006-0.288-0.025-0.435
		c-0.015,0.009-0.047-0.111-0.062-0.3c-0.007-0.038-0.019-0.078-0.025-0.116c-0.159,1.75-0.101,0.919-0.013-0.056
		c-0.045-0.227-0.078-0.449-0.148-0.686c0.071,0.238,0.12,0.423,0.158,0.583c0.072-0.794,0.16-1.625,0.163-1.201
		c-0.005-0.668-0.033-1.22-0.127-1.855c0.065-0.592,0.159-1.408,0.208-1.68c0.009-0.033,0.018-0.064,0.025-0.096
		c0.004,0.004,0.006,0.023,0.006,0.067c0-0.032,0-0.058,0-0.088c0.014-0.052,0.027-0.104,0.041-0.153
		c0.087-0.317,0.139-0.627,0.172-0.934c0.295-0.85,0.41-1.735,0.373-2.659c0.014-0.081,0.023-0.156,0.033-0.231
		c0.383-1.451,0.799-3.34,0.521-1.922c0.09-0.457,0.17-0.9,0.23-1.335c0.073-0.192,0.138-0.39,0.188-0.598
		c0.05-0.178,0.077-0.294,0.084-0.353c0.368-0.815,0.674-1.675,0.649-2.567c0.048-0.127,0.088-0.257,0.129-0.386
		c0.312-0.546,0.551-1.135,0.66-1.8c-0.444,2.695,0.724-1.24,0.817-1.58c0.03-0.108,0.056-0.204,0.081-0.303
		c0.189-0.345,0.344-0.708,0.464-1.085c0.251-0.346,0.484-0.715,0.695-1.121c1.338-2.575,1.781-2.787-0.396-0.16
		c0.001-0.002,0.001-0.005,0.002-0.007c0.459-0.557,0.867-1.095,1.201-1.673c0.165-0.266,0.375-0.616,0.645-1.076
		c0.098-0.167,0.171-0.295,0.252-0.435c0.536-0.542,0.997-1.14,1.382-1.798c0.336-0.323,0.642-0.664,0.921-1.025
		c0.594-0.504,1.063-1.098,1.461-1.77c0.645-0.578,1.129-1.218,1.705-2.01c-3.195,4.394-0.582,1.237,0.538-0.119
		c0.232-0.282,0.474-0.555,0.716-0.829c0.264-0.299,0.462-0.529,0.632-0.729c0.844-0.601,1.536-1.383,2.157-2.32
		c0.076-0.052,0.167-0.114,0.291-0.204c0.568-0.409,1.13-0.83,1.658-1.29c0.628-0.575,1.499-1.347,1.111-0.875
		c0.264-0.321,0.536-0.626,0.809-0.93c0.479-0.267,0.939-0.574,1.355-0.99c1.03-1.03,1.367-1.399,1.406-1.473
		c0.186-0.202,0.361-0.419,0.524-0.649c-0.435,0.744,0.652-0.392,1.509-1.448c-0.682,0.974-1.258,1.876,0.646-0.52
		c0.229-0.289,0.473-0.56,0.718-0.831c-0.195,0.244-0.148,0.287,1.41-1.14c0.219-0.2,0.422-0.408,0.615-0.623
		c0.949-0.568,1.781-1.315,2.397-2.242c0.22-0.165,0.432-0.346,0.634-0.542c-0.027,0.009,0.125-0.192,0.332-0.457
		c0.478-0.271,0.919-0.603,1.323-0.999c-0.283,0.323-0.735,0.88,1.122-0.978c0.214-0.214,0.393-0.443,0.563-0.675
		c0.264-0.219,0.505-0.459,0.729-0.718c0.555-0.415,1.039-0.906,1.472-1.448c0.724-0.507,1.312-1.136,1.779-1.9
		c0.148-0.086,0.307-0.178,0.492-0.287c0.762-0.446,1.61-1.296,2.211-2.112c0.284-0.227,0.54-0.482,0.777-0.755
		c0.798-0.502,1.575-0.99,2.323-1.632c0.388-0.333,0.702-0.732,0.983-1.154c0.46-0.217,0.709-0.252,1.438-0.98
		c0.374-0.374,0.64-0.637,0.835-0.828c0.182-0.133,0.358-0.273,0.531-0.42c0.031-0.014,0.058-0.025,0.1-0.046
		c-0.235,0.246,0.017,0.083,0.385-0.206c0.238-0.132,0.54-0.303,0.947-0.542c0.539-0.315,0.978-0.706,1.359-1.145
		c0.154-0.109,0.307-0.224,0.451-0.346c0.842-0.402,1.585-0.927,2.185-1.701c0.069-0.045,0.144-0.083,0.21-0.134
		c0.656-0.502,1.201-0.91,1.695-1.451c0.552-0.314,1.025-0.683,1.461-1.122c0.473-0.293,0.902-0.61,1.282-0.975
		c0.958-0.458,1.772-1.149,2.419-2.006c0.104-0.076,0.204-0.16,0.304-0.243c0.728-0.334,1.339-0.804,1.847-1.426
		c0.32-0.225,0.611-0.48,0.871-0.765c0.659-0.339,1.221-0.754,1.701-1.262c0.613-0.385,1.151-0.878,1.667-1.543
		c-0.003,0.044,0.072,0.01,0.304-0.193c0.09-0.078,0.182-0.182,0.273-0.292c0.524-0.338,0.987-0.734,1.41-1.198
		c0.446-0.249,0.851-0.551,1.203-0.925c0.035-0.052,0.095-0.122,0.184-0.207c0.236-0.284,0.45-0.6,0.628-0.968
		c-0.173,0.357-0.324,0.62-0.452,0.816c0.18-0.143,0.425-0.306,0.748-0.467c1.356-0.678,2.934-2.097,3.877-3.315
		c0.505-0.652,0.75-0.976,0.854-1.113c-0.248,0.34-1.049,1.484,0.471-0.036c1.056-1.056,1.108-1.832,1.527-2.375
		c0.914-1.19,1.271-2.654,1.556-4.318c0.343-2.005-1.595-3.936-3.581-2.752c-0.384,0.229-0.768,0.436-1.169,0.632
		c-1.855,0.911,0.28-0.008,0.558-0.128c-0.099,0.043-0.484,0.211-1.377,0.603c-0.981,0.431-1.773,0.974-2.625,1.792
		c-1.598,0.592-2.81,1.574-3.635,2.122c-1.352,0.896-0.043-0.085-2.263,1.081c1.511-0.794-0.961,0.428-1.121,0.464
		c-0.291,0.182-0.544,0.394-0.774,0.623c-0.533,0.255-1.023,0.603-1.496,1.083c-0.594,0.247-1.158,0.564-1.587,1.056
		c-0.233,0.268-0.249,0.331-0.18,0.308c-0.188,0.142-0.353,0.265-0.485,0.361c-0.549,0.254-1.021,0.586-1.44,0.986
		c-0.587,0.237-1.143,0.525-1.63,0.926c-0.144,0.083-0.298,0.172-0.48,0.279c-0.403,0.236-0.734,0.524-1.035,0.835
		c-0.278,0.154-0.541,0.335-0.795,0.538c-0.589,0.258-1.139,0.593-1.627,1.082c-0.083,0.083-0.15,0.151-0.222,0.224
		c-0.632,0.275-1.2,0.659-1.693,1.184c-0.132,0.076-0.263,0.151-0.425,0.246c-0.319,0.187-0.592,0.408-0.845,0.645
		c-0.216,0.104-0.427,0.218-0.63,0.352c-0.495,0.328-1.95,1.439-2.532,1.935c-0.313,0.21-0.56,0.379-0.626,0.435
		c-0.098,0.082-0.182,0.171-0.273,0.257c-0.09,0.046-0.179,0.085-0.27,0.138c-0.34,0.199-0.592,0.351-0.805,0.481
		c-0.438,0.212-0.835,0.482-1.195,0.798c-0.506,0.217-0.963,0.525-1.361,0.914c0.002-0.046-0.277,0.142-1.38,1.075
		c-0.8,0.676,1.007-0.934-0.294,0.065c-0.462,0.355-0.863,0.71-1.242,1.078c-1.176,0.586-2.256,1.33-3.041,2.402
		c-0.06,0.03-0.119,0.059-0.194,0.102c-0.868,0.493-1.754,1.001-2.401,1.78c0.949-1.142-0.082-0.07-0.997,0.943
		c-0.542,0.282-1.044,0.63-1.554,1.085c-0.398,0.356-0.548,0.503-0.579,0.547c-0.601,0.433-1.086,0.899-1.483,1.411
		c-0.393,0.303-0.757,0.655-1.097,1.059c-1.372,0.668-1.676,0.896-1.485,0.897c-0.637,0.449-1.188,1.024-1.625,1.673
		c-0.758,0.439-1.39,1.022-1.959,1.684c-0.467,0.286-0.922,0.604-1.369,1.011c-0.219,0.199-0.406,0.402-0.581,0.609
		c-0.78,0.445-1.458,1.052-1.992,1.784c-0.502,0.355-1.028,0.845-1.492,1.227c-0.804,0.66-0.637,0.613-0.426,0.497
		c-0.378,0.235-0.692,0.496-0.978,0.773c0.235-0.278-0.018-0.042-1.328,1.114c-0.463,0.408-0.841,0.848-1.246,1.31
		c0.887-1.011,0.326-0.398-0.467,0.503c-1.103,0.622-1.996,1.468-2.779,2.71c0.463-0.736,0.568-0.924,0.516-0.881
		c0.179-0.241-0.365,0.32-0.922,0.869c-0.051-0.042-0.094-0.09-0.145-0.131c-0.275-0.226-0.512-0.418-0.717-0.58
		c-0.686-0.904-1.439-1.74-2.316-2.481c-0.413-0.349-0.784-0.735-1.186-1.089c-0.201-0.227-0.407-0.449-0.643-0.644
		c-0.298-0.262-0.536-0.479-0.748-0.673c0.151,0.187,0.306,0.393,0.457,0.615c-0.174-0.254-0.361-0.487-0.558-0.708
		c-0.11-0.103-0.208-0.194-0.294-0.277c-0.023-0.038-0.05-0.074-0.073-0.112c-0.141-0.139-0.286-0.274-0.435-0.405
		c-0.161-0.191,0.012-0.077,0.324,0.238c-0.313-0.479-0.675-0.918-1.094-1.313c-0.203-0.291-0.431-0.572-0.698-0.84
		c-0.39-0.39-0.696-0.688-0.938-0.916c-0.292-0.444-0.626-0.85-1.002-1.221c-0.394-0.563-0.849-1.074-1.38-1.557
		c-0.438-0.671-0.962-1.259-1.585-1.747c-0.024-0.045-0.048-0.089-0.076-0.141c0.358,0.332,0.111-0.024-0.285-0.514
		c-0.127-0.223-0.277-0.482-0.454-0.785c-0.345-0.589-0.771-1.084-1.244-1.523c-0.229-0.349-0.486-0.687-0.8-1
		c-0.207-0.207-0.385-0.383-0.543-0.537c-0.503-0.736-1.085-1.397-1.72-2.106c-0.31-0.885-0.777-1.702-1.525-2.565
		c-0.352-0.405-1.363-1.77-0.12,0.044c-0.297-0.432-0.606-0.807-0.926-1.162c-0.184-0.377-0.387-0.742-0.637-1.08
		c-0.307-0.688-0.719-1.324-1.295-1.816c-0.199-0.17-0.341-0.284-0.445-0.363c-0.192-0.25-0.707-0.834-1.205-1.387
		c-0.052-0.095-0.182-0.284-0.348-0.516c0.382,0.406,0.383,0.279-0.898-1.499c-0.781-1.081-1.552-1.914-2.55-2.725
		c-0.004-0.012-0.008-0.024-0.011-0.037c2.349,1.741,1.27,0.72-0.192-0.54c-0.089-0.214-0.188-0.428-0.311-0.638
		c-0.099-0.169-0.366-0.522-0.679-0.916c-0.117-0.309-0.25-0.614-0.421-0.908c-0.312-0.531-0.702-0.955-1.131-1.335
		c-0.067-0.108-0.135-0.219-0.208-0.327c-0.027-0.092-0.064-0.203-0.123-0.358c-0.62-1.631-1.352-2.997-2.967-3.8
		c-0.103-0.111-0.16-0.166-0.09-0.049c-0.004-0.002-0.007-0.004-0.011-0.006c-0.007-0.003-0.011-0.004-0.017-0.008
		c-1.093-1.492-2.371-2.916-4.338-3.057c-0.476-0.202-0.962-0.298-1.535-0.354c-0.792-0.076-1.492,0.036-2.246,0.284
		C680.71,179.858,679.995,183.034,681.982,184.612z M787.488,302.511c-0.076-0.033-0.145-0.055-0.219-0.086
		c0.004-0.001,0.008-0.001,0.011-0.002C787.35,302.453,787.416,302.479,787.488,302.511z M787.042,302.323
		c-0.005,0.002-0.009,0.004-0.014,0.006c-0.215-0.086-0.435-0.182-0.641-0.253C786.591,302.148,786.807,302.228,787.042,302.323z
		 M791.545,315.066c-0.155,0.049-0.23,0.087-0.178,0.104C790.636,315.152,790.838,314.912,791.545,315.066z M799.019,301.244
		C800.393,300.807,800.318,301.172,799.019,301.244L799.019,301.244z M784.809,301.659
		C784.562,301.649,784.568,301.625,784.809,301.659L784.809,301.659z M785.053,301.702c0.296,0.058,0.741,0.168,1.319,0.37
		c-0.484-0.167-0.942-0.276-1.391-0.358C785.006,301.709,785.029,301.706,785.053,301.702z M742.326,226.93
		c0.004-0.004,0.007-0.009,0.011-0.013c0.008-0.009,0.011-0.011,0.017-0.019C742.346,226.909,742.335,226.92,742.326,226.93z
		 M762.776,208.214c0.15-0.077,0.281-0.183,0.423-0.274C763.053,208.048,762.905,208.148,762.776,208.214z M776.853,184.67
		c-0.112,0.027-0.214,0.064-0.321,0.096C776.638,184.73,776.745,184.696,776.853,184.67z M775.472,185.274
		C775.119,185.52,775.188,185.447,775.472,185.274L775.472,185.274z M747.854,205.311c-0.063,0.072-0.122,0.14-0.177,0.204
		C747.736,205.448,747.791,205.375,747.854,205.311z M735.514,216.633c-0.072,0.177-0.146,0.348-0.215,0.537
		c-0.047,0.129-0.094,0.259-0.141,0.389C735.253,217.228,735.376,216.924,735.514,216.633z M691.586,204.585
		c0.02,0.126,0.059,0.241,0.086,0.362C691.637,204.828,691.605,204.707,691.586,204.585z M692.381,206.318
		c0.033,0.034,0.061,0.072,0.095,0.106c0.1,0.104,0.175,0.185,0.239,0.256c0.016,0.042,0.037,0.079,0.055,0.12
		C692.668,206.69,692.529,206.524,692.381,206.318z M695.664,210.367c0.06,0.046,0.108,0.092,0.17,0.139
		c-0.062-0.046-0.105-0.08-0.164-0.124C695.668,210.377,695.666,210.372,695.664,210.367z M705.264,253.004
		c-0.173,0.21-0.331,0.423-0.488,0.636c0.009-0.022,0.018-0.044,0.027-0.065C704.943,253.398,705.094,253.21,705.264,253.004z
		 M703.337,260.563c-0.03-0.091-0.055-0.19-0.075-0.294C703.291,260.367,703.304,260.462,703.337,260.563z M704.316,254.196
		c0.063-0.083,0.125-0.164,0.198-0.258c0,0.021-0.001,0.043-0.001,0.064c-0.1,0.145-0.191,0.29-0.283,0.437
		C704.259,254.358,704.287,254.277,704.316,254.196z M704.97,286.619c0.06,0.445,0.103,0.881,0.157,1.31
		C705.032,287.513,704.968,287.083,704.97,286.619z M705.301,288.556c0.119,0.151,0.24,0.301,0.361,0.45
		c-0.127-0.156-0.245-0.301-0.357-0.438C705.303,288.564,705.303,288.56,705.301,288.556z M754.431,315.653
		c-0.026-0.01-0.047-0.017-0.073-0.026c0.289-0.002,0.536-0.004,0.718-0.005c0.01,0.003,0.02,0.008,0.029,0.011
		C754.952,315.637,754.746,315.644,754.431,315.653z M759.527,316.051C758.533,316.155,758.036,315.979,759.527,316.051
		L759.527,316.051z M760.564,315.854c-0.165,0.048-0.328,0.084-0.488,0.115C760.24,315.933,760.403,315.9,760.564,315.854z
		 M749.151,301.38c-0.131,0.015-0.262,0.03-0.392,0.048c-0.121-0.047-0.254-0.102-0.413-0.177c-0.177-0.083-0.35-0.153-0.523-0.225
		C748.471,301.119,748.915,301.262,749.151,301.38z M747.653,301.004c-0.353-0.016-0.693-0.029-0.995-0.039
		c-0.018-0.01-0.037-0.018-0.055-0.027C746.996,300.942,747.344,300.967,747.653,301.004z M726.731,292.826
		c-0.054-0.057-0.124-0.13-0.184-0.192C727.506,293.12,728.022,293.634,726.731,292.826z M725.771,292.297
		c-0.151-0.046-0.302-0.093-0.464-0.127c-0.002-0.003-0.002-0.005-0.004-0.008C725.458,292.198,725.615,292.242,725.771,292.297z
		 M721.174,287.708c-0.002,0-0.002-0.001-0.003-0.001c-0.022-0.031-0.04-0.055-0.067-0.094c-0.004-0.006-0.008-0.01-0.012-0.017
		c-0.001-0.003-0.002-0.007-0.003-0.01C721.118,287.628,721.146,287.669,721.174,287.708z M720.008,286.539
		c-0.066-0.247-0.148-0.482-0.23-0.717C719.857,286.041,719.937,286.275,720.008,286.539z M719.246,284.707
		c-0.045-0.041-0.089-0.085-0.136-0.124c-0.331-0.274-0.487-0.463-0.524-0.549l0,0C718.52,283.877,718.851,284.069,719.246,284.707z
		 M716.863,280.857c-0.011-0.011-0.021-0.022-0.033-0.034c-0.005-0.017-0.01-0.031-0.015-0.048
		C716.834,280.804,716.848,280.829,716.863,280.857z M715.478,269.179C715.371,270.184,715.405,269.831,715.478,269.179
		L715.478,269.179z M715.478,269.178c-0.007-0.043-0.015-0.09-0.021-0.133c0.03-0.083,0.061-0.236,0.09-0.515
		C715.518,268.796,715.496,269.002,715.478,269.178z M691.508,182.53c0.034,0.049,0.057,0.082,0.1,0.142
		c-0.034-0.048-0.07-0.097-0.104-0.145C691.504,182.528,691.506,182.529,691.508,182.53z M682.913,186.176
		c0.069,0.082,0.121,0.161,0.198,0.245C683.041,186.344,682.976,186.261,682.913,186.176z"/>
	<path class="st0" d="M715.444,272.393c0.003-0.033,0.007-0.07,0.009-0.104c-0.004-0.02-0.007-0.033-0.012-0.054
		c-0.003,0.035-0.006,0.069-0.01,0.103C715.436,272.356,715.44,272.375,715.444,272.393z"/>
	<path class="st0" d="M747.215,222.595c-0.019,0.019-0.04,0.033-0.059,0.051C747.163,222.644,747.182,222.628,747.215,222.595z"/>
	<path class="st0" d="M716.857,261.482c-0.033,0.166-0.065,0.332-0.1,0.501C716.798,261.784,716.83,261.619,716.857,261.482z"/>
	<path class="st0" d="M734.275,234.698c-0.081,0.075-0.17,0.14-0.254,0.211C733.41,235.471,733.029,235.846,734.275,234.698z"/>
	<path class="st0" d="M703.73,254.995C703.57,255.228,703.586,255.225,703.73,254.995L703.73,254.995z"/>
	<path class="st0" d="M786.141,189.782c-0.109,0.166,0.045,0.121,0.359-0.359c-0.068,0.055-0.126,0.105-0.176,0.152
		C786.265,189.646,786.203,189.715,786.141,189.782z"/>
	<path class="st0" d="M715.47,272.509c0.017,0.099,0.049,0.203,0.062,0.3c0.016-0.01,0.002-0.167-0.068-0.479
		C715.463,272.397,715.465,272.455,715.47,272.509z"/>
	<path class="st0" d="M715.471,272.1c-0.006,0.068-0.012,0.126-0.018,0.188c0.004,0.015,0.007,0.027,0.01,0.042
		C715.463,272.258,715.463,272.184,715.471,272.1z"/>
	<path class="st0" d="M780.319,181.611c0.033-0.021,0.058-0.047,0.092-0.067C780.32,181.597,780.297,181.616,780.319,181.611z"/>
	<path class="st0" d="M802.59,202.331c0.235,1.636,0.359,1.946,0.416,1.71c0.187,0.885,0.544,1.708,1.063,2.513
		c4.113,6.382,14.317,0.482,10.617-5.632c-0.062-0.714-0.245-1.396-0.554-2.042c0.009-1.163-0.134-2.194-0.502-3.17
		c-0.024-0.289-0.069-0.574-0.181-0.843c-0.038-0.093-0.063-0.137-0.079-0.16c-0.05-0.264-0.13-0.654-0.256-1.242
		c-0.341-1.588-0.073-3.856-0.628-0.446c0.252-1.55,0.213-2.966-0.271-4.447c-0.059-0.18-0.091-0.36-0.109-0.524
		c-0.012,0.129-0.03,0.292-0.053,0.472c0.021-0.169,0.037-0.337,0.049-0.505c-0.029-0.297-0.007-0.526,0.013-0.563
		c-0.004-0.169-0.012-0.339-0.033-0.514c-0.178-1.434-0.514-2.754-1.311-3.938c-0.152-0.668-0.51-1.967-0.449-1.642
		c-0.152-0.82-0.364-2.334-0.326-0.54c-0.016-0.723-0.145-1.267-0.432-1.807c-0.018-0.153-0.064-0.388-0.165-0.752
		c-0.205-0.746-0.727-1.234-1.253-1.756c-2.029-2.009-4.813,0.129-4.338,2.505c-0.172,0.486-0.549,2.92,0.108,0.987
		c-0.285,0.84-0.204,1.548-0.063,2.405c-0.342-2.074-0.258-0.257-0.263,0.575c0-0.027-0.345,2.27-0.134,3.236
		c-0.113-0.52-0.172-0.86-0.199-1.053c0.017,0.26,0.025,0.761-0.055,1.417c-0.161,1.317,0.054-0.182-0.27,0.589
		c-0.304,0.726-0.248,1.985-0.186,2.932c-0.051,0.17-0.104,0.358-0.167,0.584c-0.231,0.839-0.181,1.601-0.128,2.435
		c0.02,0.311-0.002,0.619-0.025,0.927c0.008,0.269-0.004,1.397,0,2.222c-0.113-1.031-0.297-1.982-0.297,0.85
		c0,0.59,0.117,1.126,0.285,1.645C802.354,199.921,802.408,201.065,802.59,202.331z"/>
	<path class="st0" d="M803.258,185.159C803.242,184.91,803.219,184.884,803.258,185.159L803.258,185.159z"/>
	<path class="st0" d="M812.103,188.015c0.001,0.01,0.003,0.022,0.004,0.033c0.045-0.477,0.028-0.633,0.009-0.596
		C812.12,187.641,812.115,187.829,812.103,188.015z"/>
	<path class="st0" d="M802.394,194.554c0.007-0.172,0.021-0.342,0.034-0.512C802.424,193.896,802.414,194,802.394,194.554z"/>
	<path class="st0" d="M823.918,193.202C823.775,192.74,823.75,192.775,823.918,193.202L823.918,193.202z"/>
	<path class="st0" d="M824.436,197.27c0.04,0.106,0.091,0.249,0.156,0.452c-0.047-0.146-0.09-0.292-0.135-0.438
		C824.449,197.28,824.442,197.276,824.436,197.27z"/>
	<path class="st0" d="M823.25,183.637c-0.06,0.574-0.049,1.144,0.041,1.724c-0.111,0.933-0.094,1.879,0.159,2.796
		c0.042,0.151,0.081,0.288,0.117,0.415c-0.01,0.235-0.016,0.521-0.016,0.873c0,0.608,0.122,1.193,0.26,1.776
		c-0.029,0.033-0.058,0.126-0.08,0.326c-0.087,0.771,0.146,1.56,0.467,2.29c-0.001,0.003-0.001,0.006-0.002,0.009
		c-0.123-0.265-0.216-0.482-0.278-0.644c0.06,0.195,0.14,0.481,0.235,0.865c-0.152,0.869-0.134,1.773,0.12,2.619
		c0.06,0.2,0.123,0.399,0.184,0.599c0.095,0.055,0.219-0.047,0.318-0.702c-0.325,2.157-0.384,3.97,0.125,5.717
		c0.04,1.594,0.564,3.081,1.918,4.288c3.196,2.85,8.162,1.632,9.51-2.111c0.91-1.658,1.131-3.489,0.506-5.348
		c0.002-0.058,0.004-0.114,0.005-0.186c0.009-0.488,0.097-0.954,0.037-1.439c-0.112-0.897-0.235-1.794-0.367-2.689
		c-0.062-0.415-0.103-0.657-0.132-0.774c-0.027-0.542-0.098-1.089-0.217-1.682c-0.369-1.841,0.854,2.243-0.246-1.751
		c-0.174-0.633-0.306-1.066-0.404-1.35c-0.035-0.15-0.07-0.3-0.113-0.446c0.01-0.551-0.053-1.101-0.201-1.652
		c-0.07-0.474-0.165-0.916-0.294-1.378c-0.138-0.494-0.245-0.852-0.33-1.104c-0.018-0.359-0.072-0.714-0.166-1.063
		c0.087-0.875-0.075-1.739-0.415-2.542c-0.104-0.84-0.381-1.627-0.794-2.393c-0.069-0.561-0.16-1.126-0.276-1.74
		c-0.218-1.155-1.094-2.804-1.068-2.628c-0.107-0.75-0.855-2.633-1.82-3.597c-0.585-0.585-0.819-0.776-0.879-0.782
		c-0.392-0.414-0.854-0.683-1.412-0.931c-2.043-0.904-5.286,0.611-4.27,3.282c0.005,0.016,0.009,0.024,0.014,0.039
		c-0.053,0.362-0.057,0.727,0.019,1.086c-0.021,0.082-0.043,0.171-0.067,0.279c-0.182,0.673-0.188,1.347-0.038,2.02
		c-0.034,0.71,0.062,1.376,0.177,2.074c-0.116-0.64-0.105-0.102-0.084,0.735c-0.334,0.874-0.504,1.879-0.289,2.775
		C822.969,182.065,823.028,182.864,823.25,183.637z M836.315,197.922c0.02,0.037,0.039,0.082,0.058,0.131
		C836.351,198.009,836.339,197.965,836.315,197.922z M836.18,196.032c-0.017,0.101-0.035,0.196-0.059,0.276
		C836.148,196.213,836.157,196.125,836.18,196.032z M824.21,193.862c0.04,0.09,0.079,0.18,0.122,0.269
		c-0.045-0.092-0.085-0.175-0.123-0.258C824.209,193.869,824.21,193.866,824.21,193.862z M824.175,194.156
		c0.053,0.215,0.108,0.449,0.169,0.723C824.634,196.194,824.064,195.494,824.175,194.156z M824.416,194.301
		c0.03,0.061,0.061,0.122,0.091,0.181C824.475,194.418,824.446,194.362,824.416,194.301z M824.251,193.639
		c0.037-0.182,0.083-0.369,0.149-0.562C824.338,193.259,824.297,193.45,824.251,193.639z"/>
	<path class="st0" d="M824.436,197.27C824.256,196.798,824.31,197.16,824.436,197.27L824.436,197.27z"/>
</g>
</svg>
