<svg version="1.1" id="レイヤー_4" xmlns="http://www.w3.org/2000/svg" xmlns:xlink="http://www.w3.org/1999/xlink" x="0px"
	 y="0px" width="986px" height="986px" viewBox="0 0 986 986" style="enable-background:new 0 0 986 986;" xml:space="preserve">
<style type="text/css">
<![CDATA[
	.st0{fill:#FFFFFF;}
]]>
</style>
<path class="st0" d="M899.602,236.732c0.005-0.018,0.01-0.029,0.014-0.049c0.115-0.467,0.148-0.941,0.197-1.417
	c0.064-0.623-0.217-1.181-0.494-1.71c0.463,0.889,0.07,0.291,0.133-0.46c0.208-2.473,0.321-5.066,0.143-7.946
	c-0.053-0.83,0.081-1.886-0.299-2.653c0.082-0.329,0.156-0.666,0.169-0.963c0.017-0.378-0.065-0.712-0.189-1.036
	c0.006-0.113,0.011-0.241,0.019-0.401c0.016-0.391-0.074-0.734-0.204-1.071c0.067-0.352,0.083-0.707,0.002-1.066
	c-0.063-0.272-0.106-0.463-0.144-0.599c0.039-0.28,0.039-0.562-0.05-0.835c-0.128-0.394-0.21-0.592-0.265-0.689
	c0.031-0.092,0.066-0.309,0.086-0.77c0.014-0.334-0.044-0.635-0.145-0.922c0.008-0.134,0.017-0.302,0.025-0.521
	c0.027-0.62-0.217-1.116-0.438-1.673c0.604,1.517,0.078-0.808-0.098-1.081c-0.02-0.032-0.036-0.054-0.055-0.08
	c0-0.002,0-0.003,0-0.005c0.05-0.479,0.111-0.953,0.001-1.433c-0.194-0.846-0.325-0.791-0.378-0.701
	c0.027-0.096,0.076-0.31,0.15-0.756c0.137-0.813-0.346-1.416-0.57-2.081c0.078-0.054-0.05-2.18-0.336-2.802
	c-1.275-2.783-0.683-6.09-2.185-8.764c-0.308-0.548-0.823-2.915-0.856-3.62c-0.029-0.589-0.027-1.14-0.313-1.677
	c-0.1-0.188-0.177-0.332-0.238-0.446c-0.03-0.311-0.104-0.614-0.262-0.913c-0.807-1.521-0.325,0.031-0.549-0.65
	c-0.218-0.662-0.332-1.443-0.438-2.133c-0.063-0.401-0.339-0.863-0.52-1.241c0.006-0.048,0.009-0.105,0.011-0.176
	c0.018-0.668-0.722-2.825-0.768-1.646c0.038-1.004-0.241-2.166-0.647-3.09c-0.326-0.74-0.682-2.135-0.803-0.999
	c0.092-0.866-1.059-3.095-0.705-1.976c-0.232-0.731-0.762-2.354-0.76-1.329c-0.001-0.591-0.006-1.143-0.291-1.682
	c-0.134-0.251-0.236-0.422-0.316-0.535c-0.323-1.354-1.705-2.462-1.842-3.72c-0.09-0.828-0.441-1.597-0.777-2.353
	c-0.193-0.437-0.6-0.735-0.938-1.049c-0.058-0.054-0.095-0.077-0.137-0.107c0.009-0.04,0.018-0.068,0.021-0.127
	c0.065-1.288-0.895-2.589-1.889-3.59c-0.092-0.49-0.25-0.957-0.534-1.466c-0.222-0.398-0.521-0.673-0.86-0.93
	c-0.025-0.062-0.059-0.147-0.102-0.28c-0.521-1.628-1.607-2.86-2.521-4.284c-0.298-0.466-0.585-1.324-0.325-0.327
	c-0.144-0.552-0.293-1.061-0.689-1.493c-0.109-0.118-0.195-0.21-0.27-0.291c-0.104-0.331-0.258-0.635-0.512-0.925
	c-1.607-1.834-1.393-2.11-2.66-3.431c-1.541-1.605-0.813-2.438-2.547-3.371c-0.233-0.126-0.307-0.129-0.328-0.118
	c0.021-0.036,0.023-0.217-0.363-0.969c-0.563-1.097-1.283-1.776-2.421-2.243c1.927,0.79,0.446-0.728-0.438-1.236
	c-0.043-0.024-0.06-0.027-0.094-0.044c-0.015-0.039-0.017-0.059-0.039-0.108c-0.232-0.513-0.705-0.834-1.167-1.112
	c-1.201-0.727-2.089-1.474-2.628-2.768c-0.332-0.794-0.982-1.259-1.548-1.879c-0.37-0.408-2.21-2.006-1.439-1.113
	c-1.017-1.178-2.423-2.493-3.713-3.28c-1.175-0.715-1.909-2.305-3.169-2.944c-1.962-0.992-2.412-1.942-3.49-2.549
	c-0.9-0.506-2.17-2.113-0.969-0.297c-0.341-0.516-2.353-2.185-1.58-1.265c-0.311-0.372-0.635-0.658-1.063-0.855
	c-0.506-0.768-1.674-1.545-2.51-1.84c-1.412-0.499-2.156-1.838-3.685-2.033c-0.06-0.045-0.102-0.076-0.173-0.133
	c-0.283-0.229-0.564-0.457-0.859-0.672c-0.611-0.448-1.796-0.996-2.539-1.148c0.715,0.146,0.1,0.102-0.424-0.447
	c-0.48-0.504-1.085-0.677-1.723-0.881c-0.953-0.305-1.572-1.125-2.508-1.43c-1.891-0.616-0.852-0.014-2.127-0.805
	c-0.861-0.531-2.141-1.151-3.131-1.304c-1.641-0.254-0.178-0.592-2.024-1.02c-1.065-0.248-1.795-0.956-2.952-1.075
	c-0.176-0.018-0.301-0.027-0.389-0.031c0.055-0.03,0.061-0.1-0.115-0.245c-0.353-0.29-1.045-0.515-1.567-0.608
	c-0.101-0.076-0.226-0.166-0.407-0.283c-0.477-0.308-0.979-0.363-1.492-0.341c-1.84-1.11-4.452-1.987-6.569-2.15
	c-1.698-1.117-3.666-1.415-4.822-1.786c-0.329-0.104-0.663-0.115-0.997-0.074c-0.521-0.3-1.148-0.5-1.726-0.524
	c-0.739-0.031-0.837,0.006-0.786,0.047c-0.793-0.412-1.413-0.505-2.338-0.356c2.434-0.39-1.299-0.747-2.084-0.55
	c1.309-0.33,1.031-0.245-0.4-0.443c-0.016-0.002-0.195-0.396-1.375-0.446c-1.584-0.067-0.191,0.305-0.863,0.117
	c-0.662-0.184-1.352-0.263-2.032-0.33c-1.063-0.105-1.87-0.573-2.859-0.891c-1.927-0.618-0.675,0.458-2.507-0.281
	c-0.984-0.397-2.146-0.387-3.186-0.572c-2.006-0.358-0.607,0.078-2.834-0.509c-1.085-0.286-2.359,0.072-3.504-0.073
	c-0.627-0.08,0.607-0.028-0.777-0.473c-0.465-0.15-1.469-0.254-1.941-0.082c-0.16,0.058-0.244,0.108-0.303,0.154
	c-0.029-0.034-0.063-0.068-0.12-0.114c-0.388-0.3-2.732-0.456-1.63-0.046c-1.556-0.58-4.105-0.603-5.992-0.09
	c-1.541-0.508-3.379-0.404-4.908-0.052c-0.137,0.031-0.234,0.052-0.332,0.072c-0.479-0.093-0.922-0.097-1.452-0.031
	c1.214-0.152-0.827-0.247-1.089-0.187c-0.209,0.048-0.402,0.14-0.59,0.243c-1.299-0.212-2.716-0.026-3.853,0.592
	c-0.021,0.012-0.021,0.02-0.032,0.03c-0.014-0.003-0.017-0.005-0.029-0.008c-0.594-0.125-1.178-0.167-1.729,0.152
	c-0.717,0.413-1.482,0.188-2.273,0.369c-2.957,0.681-4.608,0.763-7.001,1.591c-1.146,0.396-1.329,0.446-1.521,0.424
	c-0.535-0.064-1.983,0.432-2.479,0.737c-0.741,0.457-3.092,1.617-3.951,1.625c-3.742,0.036-4.884,2.688-8.314,3.053
	c-0.496,0.054-0.906,0.455-1.258,0.764c-0.043,0.039-0.07,0.058-0.107,0.088c-0.971-0.001-1.582,0.437-2.201,1.263
	c0.82-1.097-0.261-0.131-0.505-0.128c-0.577,0.008-1.1,0.163-1.532,0.561c-0.217,0.199-0.346,0.333-0.424,0.428
	c-1.313,0.463-2.848,0.916-4.064,1.535c-0.844,0.429-2.47,0.958-0.785,0.904c-1.092,0.034-2.055,0.295-2.875,1.05
	c0.629-0.578-1.208,0.354-1.578,0.496c-0.628,0.241-1.157,0.593-1.809,0.83c-1.472,0.535-3.119,1.269-4.461,1.979
	c-0.826,0.438-0.811,0.085-1.738,0.937c-0.269,0.248-0.385,0.394-0.421,0.479c-0.124,0.025-0.296,0.07-0.531,0.142
	c-0.463,0.141-3.458,1.569-3.653,1.619c-1.529,0.387-2.805,1.085-4.186,1.7c-0.665,0.298-1.291,0.64-1.922,1.006
	c-0.758,0.441-2.668,1.29-1.082,1.172c-1.736,0.13-3.154,1.282-3.938,1.698c-0.376,0.199-1.817,1.58-1.323,1.283
	c-0.309,0.186-0.607,0.382-0.91,0.58c-0.153,0.102-0.262,0.18-0.344,0.245c-0.02,0.001-0.031-0.001-0.053,0
	c-1.041,0.058-1.648,0.659-2.249,1.451c-0.52,0.173-0.841,0.409-1.186,0.847c-0.163,0.21-0.763,0.1-1.503,0.779
	c-0.641,0.589-0.818,0.752,0.193,0.385c-0.611,0.222-1.223,0.394-1.582,0.992c-0.361,0.599-2.031,1.289-2.934,2.67
	c0.965-1.477-0.931,0.348-1.217,0.946c-0.574,0.194-1.098,0.388-1.449,0.937c-1.236,1.918-4.496,4.038-5.551,5.673
	c-1.042,1.621-3.369,4.672-5.326,6.65c-1.645,1.663-3.594,4.841-4.66,7.632c-0.179,0.465-1.801,2.009-1.967,3.597
	c0.182-1.732-0.35,0.316-0.816,0.87c-0.887,1.053-0.416,1.25-0.986,1.927c-0.842,1.003-1.637,2.77-1.814,3.697
	c0.096-0.504-0.555,1.049-0.771,1.473c-0.413,0.81-0.743,1.795-0.889,2.694c-0.086,0.525-0.754,2.363-1.208,3.081
	c-0.146,0.229-0.221,0.466-0.266,0.71c-0.002-0.072-0.084,0.094-0.4,0.586c-0.49,0.76-0.389,1.655-0.76,2.416
	c-0.545,1.113-1.194,3.223-1.225,4.472c0.037-1.494-0.461,0.333-0.727,1.125c-0.117,0.356-0.248,0.849-0.264,1.218
	c-0.015,0.336-0.004,0.536,0.022,0.646c-1.19,2.056-1.804,5.93-2.078,8.153c-0.009,0.073-1.054,2.701-1.101,3.829
	c-0.063,1.486,0.215,0.041-0.293,1.622c-0.127,0.394-0.105,0.836-0.122,1.243c-0.005,0.123-0.007,0.225-0.007,0.313
	c-0.031,0.028-0.063,0.064-0.102,0.111c-0.682,0.833-0.465,3.979-0.494,4.078c-0.316,1.014-0.646,4.188-0.629,4.166
	c-1.734,2.418-0.348,5.551-1.5,8.672c-0.576,1.56-0.154,2.84-0.197,4.133c-0.018,0.507-0.804,2.998-0.513,4.453
	c0.067,0.324-0.058,0.627-0.011,0.964c-0.021,0.022-0.041,0.041-0.064,0.07c-0.416,0.518-0.357,1.308-0.105,1.879
	c-0.004,0.012-0.008,0.019-0.012,0.03c-0.14,0.364,0.006,0.732-0.134,1.076c-0.274,0.681,0.081,2.264,0.112,1.973
	c-0.025,0.23-0.48,2.99-0.702,4.142c-0.142,0.741-0.14,1.55-0.185,2.309c-0.023,0.384-0.008,0.733,0.109,1.086
	c-0.371,1.035-0.58,4.063-0.346,4.823c0.611,2.001-0.742,5.345,0.092,8.307c0.394,1.393-0.045,2.141,0.39,3.94
	c0.005,0.021,0.01,0.031,0.014,0.049c-0.005,0.01-0.009,0.017-0.014,0.026c-0.228,0.461-0.353,0.862-0.241,1.383
	c0.078,0.362,0.117,0.813,0.311,1.139c-0.025,0.106-0.047,0.269-0.059,0.523c-0.059,1.41,0.238,3.122,0.451,4.049
	c0.156,0.676,0.176,0.878,0.303,0.411c-0.084,0.33-0.15,0.671-0.053,1.004c0.354,1.205,0.22,0.749,0.299,2.03
	c0.061,1.022,0.463,3.576,1.018,4.391c0.813,1.19-0.358-0.51,0.074,1.371c0.152,0.665,0.338,1.274,0.794,2.108
	c1.423,2.606,1.239,5.686,2.286,7.936c1.268,2.726,1.588,5.306,3.344,7.612c0.287,0.377,0.541,1.203,0.998,1.861
	c0.347,0.497,1.021,2.484,0.914,1.496c0.172,1.581,1.998,2.825,2.305,4.07c0.503,2.049,1.838,1.449,2.226,3.29
	c0.384,1.826,2.675,2.391,3.024,4.063c0.527,2.526,4.627,5.338,6.19,7.472c0.556,0.756,2.365,0.979,2.983,2.255
	c0.255,0.526,0.838,1.083,1.5,1.578c-0.119,0.494-0.059,1.052,0.297,1.635c0.578,0.953,1.711,2.613,2.664,3.228
	c0.396,0.255,0.613,0.366,0.725,0.398c0.408,0.443,1.031,1.133,1.514,1.453c0.698,0.465,2.264,1.535,2.604,1.879
	c0.572,0.585,1.001,1.389,1.842,1.638c0.175,0.208,0.369,0.4,0.615,0.56c1.021,0.656,0.939,0.463,0.762,0.255
	c0.053,0.051,0.115,0.111,0.192,0.184c0.528,0.502,1.538,0.884,1.874,1.157c0.277,0.225,0.869,0.929,1.314,1.284
	c0.426,0.34,0.613,0.49,0.68,0.546c-0.156-0.132-0.717-0.625,0.557,0.195c0.363,0.232,0.763,0.356,1.18,0.425
	c0.035,0.042,0.081,0.089,0.152,0.148c0.127,0.106,0.227,0.187,0.319,0.262c0.054,0.061,0.097,0.106,0.161,0.177
	c0.547,0.596,1.32,1.097,2.125,1.324c0.422,0.371,0.959,0.596,1.497,0.719c-2.317-0.526,1.231,0.831,1.737,0.809
	c0.094-0.004,0.146-0.019,0.171-0.037c0.085,0.045,0.183,0.097,0.303,0.156c0.937,0.472,2.077,1.3,3.101,1.839
	c0.545,0.287,1.041,0.553,1.579,0.712c0.419,0.356,0.968,0.56,1.467,0.741c-0.057-0.021,1.182,0.562,1.632,0.771
	c0.391,0.184,2.283,0.865,0.307-0.158c0.447,0.231,0.873,0.465,1.364,0.573c0.413,0.317,0.827,0.546,1.39,0.662
	c0.09,0.02,1.506,0.666,2.217,0.685c-2-0.051-0.068,0.165,0.832,0.402c1.516,0.398,0.713,0.018,1.246,0.397
	c0.609,0.435,3.387,1.363,4.393,1.405c0.072,0.003,0.119,0.001,0.182,0.002c0.611,0.467,1.246,0.642,1.908,0.65
	c0.482,0.25,1.016,0.413,1.693,0.513c-0.765-0.112,1.745,0.305,1.047,0.275c0.354,0.015,0.6,0.021,0.773,0.022
	c1.389,0.411,2.689,0.342,3.697,0.718c0.654,0.243,1.26,0.281,1.637,0.48c0.691,0.363,1.408,0.581,2.181,0.476
	c0.773,0.282,1.613,0.428,2.31,0.389c0.066-0.004,0.117-0.01,0.162-0.018c0.619,0.266,1.273,0.403,1.951,0.479
	c0.457,0.051,0.973,0.145,1.434,0.032c1.132,0.363,2.609,0.657,0.899-0.156c1.029,0.49,1.93,0.619,3.026,0.794
	c0.832,0.133,2.951,0.344,1.668,0.01c0.848,0.221,1.813,0.533,0.322-0.235c0.639,0.33,1.202,0.653,1.946,0.686
	c0.431,0.018,0.816-0.068,1.191-0.2c1.018,0.249,1.96,0.395,2.952,0.073c0.229,0.005,0.468,0.001,0.682-0.006
	c0.442,0.114,2.354,0.35,2.871,0.205c0.007-0.002,1.227,0.136,1.668,0.191c1.457,0.186,3.246-0.141,5.162-0.344
	c0.457-0.05,1.289,0.344,2.162,0.143c0.385-0.088,0.631-0.157,0.789-0.213c0.139,0.012,0.301,0.022,0.518,0.031
	c1.408,0.06,3.008-0.064,4.715-0.102c0.702-0.016,1.312-0.099,1.926-0.251c-0.537,0.181-0.784,0.331,0.605,0.209
	c0.49-0.043,1.086-0.031,1.553-0.139c0.252-0.059,0.428-0.1,0.564-0.134c0.039,0.016,0.331-0.003,1.236-0.125
	c-0.238,0.031,1.855,0.077,2.525-0.016c1.082-0.149,3.125,0.557,4.712-0.412c-1.19,0.727-0.259,0.051,0.489,0.313
	c0.913,0.32,2.459,0.103,2.973,0.185c0.564,0.09,1.15,0.046,1.678-0.183c0.543,0.167,1.087,0.233,1.668,0.1
	c0.186-0.043,0.336-0.083,0.466-0.12c0.851,0.123,1.642-0.025,2.499-0.196c0.625,0.308,1.277,0.35,1.979,0.345
	c0.437-0.003,0.809-0.086,1.178-0.216c0.082,0.005,0.16,0.008,0.258,0.012c0.328,0.014,0.624-0.04,0.912-0.122
	c0.387,0.085,0.774,0.102,1.167,0.035c0.002,0.001,0.003,0.001,0.005,0.002c0.604,0.264,1.693-0.096,1.877-0.092
	c1.115,0.021,1.863-0.088,2.965-0.272c0.51-0.085,3.332-0.228,4.232-0.173c0.836,0.049,1.795-0.025,2.661-0.256
	c0.741,0.186,1.47,0.055,2.13-0.293c0.572,0.112,1.193,0.146,1.749-0.062c0.6,0.076,1.223-0.069,1.808-0.172
	c-0.821,0.144,1.486-0.483,1.029-0.432c0.158-0.018,0.294-0.033,0.417-0.047c0.771,0.176,1.423,0.043,2.054-0.268
	c0.643,0.013,1.248-0.135,1.895-0.555c0.603-0.004,1.109-0.086,1.692-0.332c0.028-0.012,0.045-0.021,0.069-0.031
	c0.608-0.071,1.084-0.205,1.664-0.473c0.092-0.042,0.157-0.075,0.232-0.112c0.107,0.064,0.338,0.116,0.781,0.135
	c1.629,0.068,3.143-1.104,4.49-1.602c0.824-0.303,1.66-0.042,2.552-0.515c0.376-0.2,0.587-0.321,0.706-0.398
	c0.174-0.048,0.455-0.136,0.92-0.296c1.539-0.529,2.412-1.593,3.926-1.866c0.695-0.125,1.6-0.899,1.939-0.979
	c0.633-0.149,1.205-0.338,1.697-0.789c0.127-0.117,0.231-0.217,0.318-0.305c0.961-0.39,2.667-1.177,1.124-0.703
	c0.959-0.294,1.525-0.845,2.198-1.313c0.694-0.484,1.487-0.779,2.184-1.329c-1.407,1.113,1.682-0.617,2.131-1.284
	c-0.063,0.026-0.1,0.039-0.127,0.047c0.038-0.012,0.078-0.025,0.127-0.047c0.008-0.01,0.018-0.021,0.023-0.03
	c0.025-0.044,0.041-0.077,0.059-0.112c0.367-0.243,0.982-0.616,0.77-0.522c0.672-0.295,1.271-0.682,1.922-1.011
	c0.846-0.428,1.275-1.185,1.936-1.677c0.054-0.041,0.096-0.073,0.131-0.104c0.809-0.312,1.281-0.778,1.838-1.478
	c0.002-0.003,0.947-0.375,1.301-0.597c0.535-0.338,1.049-0.643,1.396-1.197c0.023-0.036,0.033-0.06,0.051-0.091
	c0.498-0.418,0.863-0.948,1.189-1.173c0.326-0.223,3.568-2.071,1.813-1.188c0.777-0.392,1.461-0.857,2.136-1.408
	c0.525-0.431,2.446-2.521,1.109-1.466c0.25-0.198,0.456-0.415,0.667-0.645c0.047-0.007,0.1-0.018,0.166-0.033
	c1.15-0.282,1.504-1.346,2.264-1.76c0.691-0.379,1.238-0.94,1.627-1.602c0.029-0.052,0.067-0.113,0.119-0.185
	c0.128-0.243,0.234-0.498,0.314-0.763c-0.085,0.277-0.162,0.488-0.23,0.653c0.156-0.189,0.392-0.417,0.726-0.637
	c0.692-0.456,0.976-1.009,1.401-1.537c0.293-0.229,1.729-1.539,1.957-1.729c1.18-0.983,2.627-2.472,3.195-3.903
	c-1.162,2.924,0.592-0.07,1.014-1.016c-1.322,2.963,0.637-0.144,1.016-1.015c-1.211,2.782,0.436,0.249,0.873-0.675
	c0.303-0.635,1-0.838,1.53-1.527c0.29-0.379,0.554-0.697,0.718-1.153c0.023-0.017,0.044-0.028,0.07-0.049
	c0.33-0.255,0.643-0.784,0.904-1.128c0.029-0.038,0.047-0.064,0.072-0.1c0.646-0.297,1.025-0.928,1.232-1.591
	c0.143-0.084,0.331-0.229,0.592-0.469c0.57-0.522,0.773-1.282,1.191-1.808c0.497-0.625,0.57-0.83,0.5-0.863
	c0.702-0.494,1.193-1.319,1.729-1.962c0.439-0.529,0.971-1.14,1.159-1.819c0.062-0.221,0.085-0.326,0.076-0.366
	c0.3-0.215,0.577-0.451,0.792-0.784c0.443-0.688,1.326-1.852,0.32-1.089c0.599-0.454,0.889-0.987,1.059-1.589
	c0.625-0.677,1.033-1.461,1.555-2.272c0.188-0.292,0.303-0.49,0.364-0.621c0.003-0.005,0.007-0.006,0.013-0.011
	c0.482-0.445,0.704-0.963,0.809-1.523c0.279-0.309,0.495-0.662,0.629-1.104c0.414-0.387,0.614-0.93,0.809-1.445
	c0.238-0.629,1.17-2.226,1.64-3.421c0.05-0.029,0.108-0.066,0.187-0.126c0.604-0.464,0.779-1.215,0.889-1.914
	c0.096-0.608,0.441-1.06,0.588-1.714c-0.346,1.554,0.754-1.341,0.799-1.995c-0.115,1.673,1.346-1.831,0.305-0.716
	c0.703-0.753,1.391-1.76,1.436-2.838c0.008-0.179,0.012-0.326,0.014-0.446c0.048-0.164,0.104-0.36,0.172-0.636
	c0.033-0.13,0.076-0.232,0.119-0.318c0.358-0.362,0.668-0.735,0.834-1.245c0.25-0.778,0.168-1.808,0.461-2.502
	c0.141-0.338,0.229-0.671,0.324-1.025c0.008-0.028,0.01-0.048,0.016-0.073c0.01-0.009,0.016-0.014,0.024-0.023
	c0.745-0.795,1.054-1.872,1.063-2.949c0.001-0.076,0.083-0.581,0.13-0.87c0.043-0.042,0.096-0.101,0.162-0.196
	c0.402-0.563,0.533-1.402,0.361-2.065c0-0.001,0-0.001,0-0.001c0.029-0.086,0.064-0.206,0.104-0.378
	c0.165-0.727,0.662-1.561,0.697-2.421c0.006-0.138,0.008-0.242,0.012-0.344c0.052-0.171,0.113-0.392,0.195-0.713
	c0.226-0.896,0.572-1.563,0.402-2.449c0.014-0.096,0.039-0.216,0.09-0.386c0.17-0.568,0.437-1.144,0.462-1.743
	c0.015-0.339,0.021-0.566,0.021-0.713c0.08-0.225,0.141-0.457,0.15-0.716c0.014-0.298,0.021-0.504,0.025-0.65
	c0.084-0.239,0.153-0.485,0.193-0.771c0.068-0.496,0.117-0.863,0.039-1.37c0.01-0.027,0.018-0.047,0.028-0.08
	c0.247-0.79,0.495-2.012,0.534-2.831c0.041-0.853,0.189-1.692-0.103-2.517C899.879,239.881,899.699,237.421,899.602,236.732z
	 M840.102,117.808C840.535,117.99,840.729,118.283,840.102,117.808L840.102,117.808z M762.438,97.912
	C762.184,97.956,762.234,97.928,762.438,97.912L762.438,97.912z M727.373,107.299c-0.104-0.011-0.182,0.008-0.277,0.004
	C727.18,107.291,727.272,107.288,727.373,107.299z M726.984,107.332C726.441,107.77,726.543,107.447,726.984,107.332
	L726.984,107.332z M676.131,135.307C675.967,135.646,676.007,135.485,676.131,135.307L676.131,135.307z M738.428,347.304
	C737.836,347.309,737.619,347.111,738.428,347.304L738.428,347.304z M763.195,346.809c0.041-0.015,0.082-0.025,0.123-0.042
	C763.289,346.778,763.245,346.793,763.195,346.809z M802.305,345.523C802.002,345.516,801.842,345.427,802.305,345.523
	L802.305,345.523z M806.98,344.681c0.055,0.021,0.105,0.029,0.157,0.048C807.082,344.715,807.028,344.699,806.98,344.681z
	 M808.088,344.802C808.461,344.77,808.359,344.792,808.088,344.802L808.088,344.802z M811.807,343.82
	C812.181,343.547,812.053,343.669,811.807,343.82L811.807,343.82z M893.174,267.534
	C893.324,267.237,893.469,267.206,893.174,267.534L893.174,267.534z M897.946,250.322
	C897.969,250.541,897.915,250.556,897.946,250.322L897.946,250.322z M897.847,249.897c0.038,0.11,0.06,0.202,0.076,0.284
	C897.901,250.088,897.881,249.995,897.847,249.897z"/>
<g>
	<polygon class="st0" points="840.117,331.84 840.117,331.84 840.117,331.84 	"/>
	<path class="st0" d="M683.008,330.263C683.047,330.296,683.053,330.301,683.008,330.263L683.008,330.263z"/>
	<path class="st0" d="M899.602,236.732c0.005-0.018,0.01-0.029,0.014-0.049c0.115-0.467,0.148-0.941,0.197-1.417
		c0.064-0.623-0.217-1.181-0.494-1.71c0.463,0.889,0.07,0.291,0.133-0.46c0.208-2.473,0.321-5.066,0.143-7.946
		c-0.053-0.83,0.081-1.886-0.299-2.653c0.082-0.329,0.156-0.666,0.169-0.963c0.017-0.378-0.065-0.712-0.189-1.036
		c0.006-0.113,0.011-0.241,0.019-0.401c0.016-0.391-0.074-0.734-0.204-1.071c0.067-0.352,0.083-0.707,0.002-1.066
		c-0.063-0.272-0.106-0.463-0.144-0.599c0.039-0.28,0.039-0.562-0.05-0.835c-0.128-0.394-0.21-0.592-0.265-0.689
		c0.031-0.092,0.066-0.309,0.086-0.77c0.014-0.334-0.044-0.635-0.145-0.922c0.008-0.134,0.017-0.302,0.025-0.521
		c0.027-0.62-0.217-1.116-0.438-1.673c0.604,1.517,0.078-0.808-0.098-1.081c-0.02-0.032-0.036-0.054-0.055-0.08
		c0-0.002,0-0.003,0-0.005c0.05-0.479,0.111-0.953,0.001-1.433c-0.194-0.846-0.325-0.791-0.378-0.701
		c0.027-0.096,0.076-0.31,0.15-0.756c0.137-0.813-0.346-1.416-0.57-2.081c0.078-0.054-0.05-2.18-0.336-2.802
		c-1.275-2.783-0.683-6.09-2.185-8.764c-0.308-0.548-0.823-2.915-0.856-3.62c-0.029-0.589-0.027-1.14-0.313-1.677
		c-0.1-0.188-0.177-0.332-0.238-0.446c-0.03-0.311-0.104-0.614-0.262-0.913c-0.807-1.521-0.325,0.031-0.549-0.65
		c-0.218-0.662-0.332-1.443-0.438-2.133c-0.063-0.401-0.339-0.863-0.52-1.241c0.006-0.048,0.009-0.105,0.011-0.176
		c0.018-0.668-0.722-2.825-0.768-1.646c0.038-1.004-0.241-2.166-0.647-3.09c-0.326-0.74-0.682-2.135-0.803-0.999
		c0.092-0.866-1.059-3.095-0.705-1.976c-0.232-0.731-0.762-2.354-0.76-1.329c-0.001-0.591-0.006-1.143-0.291-1.682
		c-0.134-0.251-0.236-0.422-0.316-0.535c-0.323-1.354-1.705-2.462-1.842-3.72c-0.09-0.828-0.441-1.597-0.777-2.353
		c-0.193-0.437-0.6-0.735-0.938-1.049c-0.058-0.054-0.095-0.077-0.137-0.107c0.009-0.04,0.018-0.068,0.021-0.127
		c0.065-1.288-0.895-2.589-1.889-3.59c-0.092-0.49-0.25-0.957-0.534-1.466c-0.222-0.398-0.521-0.673-0.86-0.93
		c-0.025-0.062-0.059-0.147-0.102-0.28c-0.521-1.628-1.607-2.86-2.521-4.284c-0.298-0.466-0.585-1.324-0.325-0.327
		c-0.144-0.552-0.293-1.061-0.689-1.493c-0.109-0.118-0.195-0.21-0.27-0.291c-0.104-0.331-0.258-0.635-0.512-0.925
		c-1.607-1.834-1.393-2.11-2.66-3.431c-1.541-1.605-0.813-2.438-2.547-3.371c-0.233-0.126-0.307-0.129-0.328-0.118
		c0.021-0.036,0.023-0.217-0.363-0.969c-0.563-1.097-1.283-1.776-2.421-2.243c1.927,0.79,0.446-0.728-0.438-1.236
		c-0.043-0.024-0.06-0.027-0.094-0.044c-0.015-0.039-0.017-0.059-0.039-0.108c-0.232-0.513-0.705-0.834-1.167-1.112
		c-1.201-0.727-2.089-1.474-2.628-2.768c-0.332-0.794-0.982-1.259-1.548-1.879c-0.37-0.408-2.21-2.006-1.439-1.113
		c-1.017-1.178-2.423-2.493-3.713-3.28c-1.175-0.715-1.909-2.305-3.169-2.944c-1.962-0.992-2.412-1.942-3.49-2.549
		c-0.9-0.506-2.17-2.113-0.969-0.297c-0.341-0.516-2.353-2.185-1.58-1.265c-0.311-0.372-0.635-0.658-1.063-0.855
		c-0.506-0.768-1.674-1.545-2.51-1.84c-1.412-0.499-2.156-1.838-3.685-2.033c-0.06-0.045-0.102-0.076-0.173-0.133
		c-0.283-0.229-0.564-0.457-0.859-0.672c-0.611-0.448-1.796-0.996-2.539-1.148c0.715,0.146,0.1,0.102-0.424-0.447
		c-0.48-0.504-1.085-0.677-1.723-0.881c-0.953-0.305-1.572-1.125-2.508-1.43c-1.891-0.616-0.852-0.014-2.127-0.805
		c-0.861-0.531-2.141-1.151-3.131-1.304c-1.641-0.254-0.178-0.592-2.024-1.02c-1.065-0.248-1.795-0.956-2.952-1.075
		c-0.176-0.018-0.301-0.027-0.389-0.031c0.055-0.03,0.061-0.1-0.115-0.245c-0.353-0.29-1.045-0.515-1.567-0.608
		c-0.101-0.076-0.226-0.166-0.407-0.283c-0.477-0.308-0.979-0.363-1.492-0.341c-1.84-1.11-4.452-1.987-6.569-2.15
		c-1.698-1.117-3.666-1.415-4.822-1.786c-0.329-0.104-0.663-0.115-0.997-0.074c-0.521-0.3-1.148-0.5-1.726-0.524
		c-0.739-0.031-0.837,0.006-0.786,0.047c-0.793-0.412-1.413-0.505-2.338-0.356c2.434-0.39-1.299-0.747-2.084-0.55
		c1.309-0.33,1.031-0.245-0.4-0.443c-0.016-0.002-0.195-0.396-1.375-0.446c-1.584-0.067-0.191,0.305-0.863,0.117
		c-0.662-0.184-1.352-0.263-2.032-0.33c-1.063-0.105-1.87-0.573-2.859-0.891c-1.927-0.618-0.675,0.458-2.507-0.281
		c-0.984-0.397-2.146-0.387-3.186-0.572c-2.006-0.358-0.607,0.078-2.834-0.509c-1.085-0.286-2.359,0.072-3.504-0.073
		c-0.627-0.08,0.607-0.028-0.777-0.473c-0.465-0.15-1.469-0.254-1.941-0.082c-0.16,0.058-0.244,0.108-0.303,0.154
		c-0.029-0.034-0.063-0.068-0.12-0.114c-0.388-0.3-2.732-0.456-1.63-0.046c-1.556-0.58-4.105-0.603-5.992-0.09
		c-1.541-0.508-3.379-0.404-4.908-0.052c-0.137,0.031-0.234,0.052-0.332,0.072c-0.479-0.093-0.922-0.097-1.452-0.031
		c1.214-0.152-0.827-0.247-1.089-0.187c-0.209,0.048-0.402,0.14-0.59,0.243c-1.299-0.212-2.716-0.026-3.853,0.592
		c-0.021,0.012-0.021,0.02-0.032,0.03c-0.014-0.003-0.017-0.005-0.029-0.008c-0.594-0.125-1.178-0.167-1.729,0.152
		c-0.717,0.413-1.482,0.188-2.273,0.369c-2.957,0.681-4.608,0.763-7.001,1.591c-1.146,0.396-1.329,0.446-1.521,0.424
		c-0.535-0.064-1.983,0.432-2.479,0.737c-0.741,0.457-3.092,1.617-3.951,1.625c-3.742,0.036-4.884,2.688-8.314,3.053
		c-0.496,0.054-0.906,0.455-1.258,0.764c-0.043,0.039-0.07,0.058-0.107,0.088c-0.971-0.001-1.582,0.437-2.201,1.263
		c0.82-1.097-0.261-0.131-0.505-0.128c-0.577,0.008-1.1,0.163-1.532,0.561c-0.217,0.199-0.346,0.333-0.424,0.428
		c-1.313,0.463-2.848,0.916-4.064,1.535c-0.844,0.429-2.47,0.958-0.785,0.904c-1.092,0.034-2.055,0.295-2.875,1.05
		c0.629-0.578-1.208,0.354-1.578,0.496c-0.628,0.241-1.157,0.593-1.809,0.83c-1.472,0.535-3.119,1.269-4.461,1.979
		c-0.826,0.438-0.811,0.085-1.738,0.937c-0.269,0.248-0.385,0.394-0.421,0.479c-0.124,0.025-0.296,0.07-0.531,0.142
		c-0.463,0.141-3.458,1.569-3.653,1.619c-1.529,0.387-2.805,1.085-4.186,1.7c-0.665,0.298-1.291,0.64-1.922,1.006
		c-0.758,0.441-2.668,1.29-1.082,1.172c-1.736,0.13-3.154,1.282-3.938,1.698c-0.376,0.199-1.817,1.58-1.323,1.283
		c-0.309,0.186-0.607,0.382-0.91,0.58c-0.153,0.102-0.262,0.18-0.344,0.245c-0.02,0.001-0.031-0.001-0.053,0
		c-1.041,0.058-1.648,0.659-2.249,1.451c-0.52,0.173-0.841,0.409-1.186,0.847c-0.163,0.21-0.763,0.1-1.503,0.779
		c-0.641,0.589-0.818,0.752,0.193,0.385c-0.611,0.222-1.223,0.394-1.582,0.992c-0.361,0.599-2.031,1.289-2.934,2.67
		c0.965-1.477-0.931,0.348-1.217,0.946c-0.574,0.194-1.098,0.388-1.449,0.937c-1.236,1.918-4.496,4.038-5.551,5.673
		c-1.042,1.621-3.369,4.672-5.326,6.65c-1.645,1.663-3.594,4.841-4.66,7.632c-0.179,0.465-1.801,2.009-1.967,3.597
		c0.182-1.732-0.35,0.316-0.816,0.87c-0.887,1.053-0.416,1.25-0.986,1.927c-0.842,1.003-1.637,2.77-1.814,3.697
		c0.096-0.504-0.555,1.049-0.771,1.473c-0.413,0.81-0.743,1.795-0.889,2.694c-0.086,0.525-0.754,2.363-1.208,3.081
		c-0.146,0.229-0.221,0.466-0.266,0.71c-0.002-0.072-0.084,0.094-0.4,0.586c-0.49,0.76-0.389,1.655-0.76,2.416
		c-0.545,1.113-1.194,3.223-1.225,4.472c0.037-1.494-0.461,0.333-0.727,1.125c-0.117,0.356-0.248,0.849-0.264,1.218
		c-0.015,0.336-0.004,0.536,0.022,0.646c-1.19,2.056-1.804,5.93-2.078,8.153c-0.009,0.073-1.054,2.701-1.101,3.829
		c-0.063,1.486,0.215,0.041-0.293,1.622c-0.127,0.394-0.105,0.836-0.122,1.243c-0.005,0.123-0.007,0.225-0.007,0.313
		c-0.031,0.028-0.063,0.064-0.102,0.111c-0.682,0.833-0.465,3.979-0.494,4.078c-0.316,1.014-0.646,4.188-0.629,4.166
		c-1.734,2.418-0.348,5.551-1.5,8.672c-0.576,1.56-0.154,2.84-0.197,4.133c-0.018,0.507-0.804,2.998-0.513,4.453
		c0.067,0.324-0.058,0.627-0.011,0.964c-0.021,0.022-0.041,0.041-0.064,0.07c-0.416,0.518-0.357,1.308-0.105,1.879
		c-0.004,0.012-0.008,0.019-0.012,0.03c-0.14,0.364,0.006,0.732-0.134,1.076c-0.274,0.681,0.081,2.264,0.112,1.973
		c-0.025,0.23-0.48,2.99-0.702,4.142c-0.142,0.741-0.14,1.55-0.185,2.309c-0.023,0.384-0.008,0.733,0.109,1.086
		c-0.371,1.035-0.58,4.063-0.346,4.823c0.611,2.001-0.742,5.345,0.092,8.307c0.394,1.393-0.045,2.141,0.39,3.94
		c0.005,0.021,0.01,0.031,0.014,0.049c-0.005,0.01-0.009,0.017-0.014,0.026c-0.228,0.461-0.353,0.862-0.241,1.383
		c0.078,0.362,0.117,0.813,0.311,1.139c-0.025,0.106-0.047,0.269-0.059,0.523c-0.059,1.41,0.238,3.122,0.451,4.049
		c0.156,0.676,0.176,0.878,0.303,0.411c-0.084,0.33-0.15,0.671-0.053,1.004c0.354,1.205,0.22,0.749,0.299,2.03
		c0.061,1.022,0.463,3.576,1.018,4.391c0.813,1.19-0.358-0.51,0.074,1.371c0.152,0.665,0.338,1.274,0.794,2.108
		c1.423,2.606,1.239,5.686,2.286,7.936c1.268,2.726,1.588,5.306,3.344,7.612c0.287,0.377,0.541,1.203,0.998,1.861
		c0.347,0.497,1.021,2.484,0.914,1.496c0.172,1.581,1.998,2.825,2.305,4.07c0.503,2.049,1.838,1.449,2.226,3.29
		c0.384,1.826,2.675,2.391,3.024,4.063c0.527,2.526,4.627,5.338,6.19,7.472c0.556,0.756,2.365,0.979,2.983,2.255
		c0.255,0.526,0.838,1.083,1.5,1.578c-0.119,0.494-0.059,1.052,0.297,1.635c0.578,0.953,1.711,2.613,2.664,3.228
		c0.396,0.255,0.613,0.366,0.725,0.398c0.408,0.443,1.031,1.133,1.514,1.453c0.698,0.465,2.264,1.535,2.604,1.879
		c0.572,0.585,1.001,1.389,1.842,1.638c0.175,0.208,0.369,0.4,0.615,0.56c1.021,0.656,0.939,0.463,0.762,0.255
		c0.053,0.051,0.115,0.111,0.192,0.184c0.528,0.502,1.538,0.884,1.874,1.157c0.277,0.225,0.869,0.929,1.314,1.284
		c0.426,0.34,0.613,0.49,0.68,0.546c-0.156-0.132-0.717-0.625,0.557,0.195c0.363,0.232,0.763,0.356,1.18,0.425
		c0.035,0.042,0.081,0.089,0.152,0.148c0.127,0.106,0.227,0.187,0.319,0.262c0.054,0.061,0.097,0.106,0.161,0.177
		c0.547,0.596,1.32,1.097,2.125,1.324c0.422,0.371,0.959,0.596,1.497,0.719c-2.317-0.526,1.231,0.831,1.737,0.809
		c0.094-0.004,0.146-0.019,0.171-0.037c0.085,0.045,0.183,0.097,0.303,0.156c0.937,0.472,2.077,1.3,3.101,1.839
		c0.545,0.287,1.041,0.553,1.579,0.712c0.419,0.356,0.968,0.56,1.467,0.741c-0.057-0.021,1.182,0.562,1.632,0.771
		c0.391,0.184,2.283,0.865,0.307-0.158c0.447,0.231,0.873,0.465,1.364,0.573c0.413,0.317,0.827,0.546,1.39,0.662
		c0.09,0.02,1.506,0.666,2.217,0.685c-2-0.051-0.068,0.165,0.832,0.402c1.516,0.398,0.713,0.018,1.246,0.397
		c0.609,0.435,3.387,1.363,4.393,1.405c0.072,0.003,0.119,0.001,0.182,0.002c0.611,0.467,1.246,0.642,1.908,0.65
		c0.482,0.25,1.016,0.413,1.693,0.513c-0.765-0.112,1.745,0.305,1.047,0.275c0.354,0.015,0.6,0.021,0.773,0.022
		c1.389,0.411,2.689,0.342,3.697,0.718c0.654,0.243,1.26,0.281,1.637,0.48c0.691,0.363,1.408,0.581,2.181,0.476
		c0.773,0.282,1.613,0.428,2.31,0.389c0.066-0.004,0.117-0.01,0.162-0.018c0.619,0.266,1.273,0.403,1.951,0.479
		c0.457,0.051,0.973,0.145,1.434,0.032c1.132,0.363,2.609,0.657,0.899-0.156c1.029,0.49,1.93,0.619,3.026,0.794
		c0.832,0.133,2.951,0.344,1.668,0.01c0.848,0.221,1.813,0.533,0.322-0.235c0.639,0.33,1.202,0.653,1.946,0.686
		c0.431,0.018,0.816-0.068,1.191-0.2c1.018,0.249,1.96,0.395,2.952,0.073c0.229,0.005,0.468,0.001,0.682-0.006
		c0.442,0.114,2.354,0.35,2.871,0.205c0.007-0.002,1.227,0.136,1.668,0.191c1.457,0.186,3.246-0.141,5.162-0.344
		c0.457-0.05,1.289,0.344,2.162,0.143c0.385-0.088,0.631-0.157,0.789-0.213c0.139,0.012,0.301,0.022,0.518,0.031
		c1.408,0.06,3.008-0.064,4.715-0.102c0.702-0.016,1.312-0.099,1.926-0.251c-0.537,0.181-0.784,0.331,0.605,0.209
		c0.49-0.043,1.086-0.031,1.553-0.139c0.252-0.059,0.428-0.1,0.564-0.134c0.039,0.016,0.331-0.003,1.236-0.125
		c-0.238,0.031,1.855,0.077,2.525-0.016c1.082-0.149,3.125,0.557,4.712-0.412c-1.19,0.727-0.259,0.051,0.489,0.313
		c0.913,0.32,2.459,0.103,2.973,0.185c0.564,0.09,1.15,0.046,1.678-0.183c0.543,0.167,1.087,0.233,1.668,0.1
		c0.186-0.043,0.336-0.083,0.466-0.12c0.851,0.123,1.642-0.025,2.499-0.196c0.625,0.308,1.277,0.35,1.979,0.345
		c0.437-0.003,0.809-0.086,1.178-0.216c0.082,0.005,0.16,0.008,0.258,0.012c0.328,0.014,0.624-0.04,0.912-0.122
		c0.387,0.085,0.774,0.102,1.167,0.035c0.002,0.001,0.003,0.001,0.005,0.002c0.604,0.264,1.693-0.096,1.877-0.092
		c1.115,0.021,1.863-0.088,2.965-0.272c0.51-0.085,3.332-0.228,4.232-0.173c0.836,0.049,1.795-0.025,2.661-0.256
		c0.741,0.186,1.47,0.055,2.13-0.293c0.572,0.112,1.193,0.146,1.749-0.062c0.6,0.076,1.223-0.069,1.808-0.172
		c-0.821,0.144,1.486-0.483,1.029-0.432c0.158-0.018,0.294-0.033,0.417-0.047c0.771,0.176,1.423,0.043,2.054-0.268
		c0.643,0.013,1.248-0.135,1.895-0.555c0.603-0.004,1.109-0.086,1.692-0.332c0.028-0.012,0.045-0.021,0.069-0.031
		c0.608-0.071,1.084-0.205,1.664-0.473c0.092-0.042,0.157-0.075,0.232-0.112c0.107,0.064,0.338,0.116,0.781,0.135
		c1.629,0.068,3.143-1.104,4.49-1.602c0.824-0.303,1.66-0.042,2.552-0.515c0.376-0.2,0.587-0.321,0.706-0.398
		c0.174-0.048,0.455-0.136,0.92-0.296c1.539-0.529,2.412-1.593,3.926-1.866c0.695-0.125,1.6-0.899,1.939-0.979
		c0.633-0.149,1.205-0.338,1.697-0.789c0.127-0.117,0.231-0.217,0.318-0.305c0.961-0.39,2.667-1.177,1.124-0.703
		c0.959-0.294,1.525-0.845,2.198-1.313c0.694-0.484,1.487-0.779,2.184-1.329c-1.407,1.113,1.682-0.617,2.131-1.284
		c-0.063,0.026-0.1,0.039-0.127,0.047c0.038-0.012,0.078-0.025,0.127-0.047c0.008-0.01,0.018-0.021,0.023-0.03
		c0.025-0.044,0.041-0.077,0.059-0.112c0.367-0.243,0.982-0.616,0.77-0.522c0.672-0.295,1.271-0.682,1.922-1.011
		c0.846-0.428,1.275-1.185,1.936-1.677c0.054-0.041,0.096-0.073,0.131-0.104c0.809-0.312,1.281-0.778,1.838-1.478
		c0.002-0.003,0.947-0.375,1.301-0.597c0.535-0.338,1.049-0.643,1.396-1.197c0.023-0.036,0.033-0.06,0.051-0.091
		c0.498-0.418,0.863-0.948,1.189-1.173c0.326-0.223,3.568-2.071,1.813-1.188c0.777-0.392,1.461-0.857,2.136-1.408
		c0.525-0.431,2.446-2.521,1.109-1.466c0.25-0.198,0.456-0.415,0.667-0.645c0.047-0.007,0.1-0.018,0.166-0.033
		c1.15-0.282,1.504-1.346,2.264-1.76c0.691-0.379,1.238-0.94,1.627-1.602c0.029-0.052,0.067-0.113,0.119-0.185
		c0.128-0.243,0.234-0.498,0.314-0.763c-0.085,0.277-0.162,0.488-0.23,0.653c0.156-0.189,0.392-0.417,0.726-0.637
		c0.692-0.456,0.976-1.009,1.401-1.537c0.293-0.229,1.729-1.539,1.957-1.729c1.18-0.983,2.627-2.472,3.195-3.903
		c-1.162,2.924,0.592-0.07,1.014-1.016c-1.322,2.963,0.637-0.144,1.016-1.015c-1.211,2.782,0.436,0.249,0.873-0.675
		c0.303-0.635,1-0.838,1.53-1.527c0.29-0.379,0.554-0.697,0.718-1.153c0.023-0.017,0.044-0.028,0.07-0.049
		c0.33-0.255,0.643-0.784,0.904-1.128c0.029-0.038,0.047-0.064,0.072-0.1c0.646-0.297,1.025-0.928,1.232-1.591
		c0.143-0.084,0.331-0.229,0.592-0.469c0.57-0.522,0.773-1.282,1.191-1.808c0.497-0.625,0.57-0.83,0.5-0.863
		c0.702-0.494,1.193-1.319,1.729-1.962c0.439-0.529,0.971-1.14,1.159-1.819c0.062-0.221,0.085-0.326,0.076-0.366
		c0.3-0.215,0.577-0.451,0.792-0.784c0.443-0.688,1.326-1.852,0.32-1.089c0.599-0.454,0.889-0.987,1.059-1.589
		c0.625-0.677,1.033-1.461,1.555-2.272c0.188-0.292,0.303-0.49,0.364-0.621c0.003-0.005,0.007-0.006,0.013-0.011
		c0.482-0.445,0.704-0.963,0.809-1.523c0.279-0.309,0.495-0.662,0.629-1.104c0.414-0.387,0.614-0.93,0.809-1.445
		c0.238-0.629,1.17-2.226,1.64-3.421c0.05-0.029,0.108-0.066,0.187-0.126c0.604-0.464,0.779-1.215,0.889-1.914
		c0.096-0.608,0.441-1.06,0.588-1.714c-0.346,1.554,0.754-1.341,0.799-1.995c-0.115,1.673,1.346-1.831,0.305-0.716
		c0.703-0.753,1.391-1.76,1.436-2.838c0.008-0.179,0.012-0.326,0.014-0.446c0.048-0.164,0.104-0.36,0.172-0.636
		c0.033-0.13,0.076-0.232,0.119-0.318c0.358-0.362,0.668-0.735,0.834-1.245c0.25-0.778,0.168-1.808,0.461-2.502
		c0.141-0.338,0.229-0.671,0.324-1.025c0.008-0.028,0.01-0.048,0.016-0.073c0.01-0.009,0.016-0.014,0.024-0.023
		c0.745-0.795,1.054-1.872,1.063-2.949c0.001-0.076,0.083-0.581,0.13-0.87c0.043-0.042,0.096-0.101,0.162-0.196
		c0.402-0.563,0.533-1.402,0.361-2.065c0-0.001,0-0.001,0-0.001c0.029-0.086,0.064-0.206,0.104-0.378
		c0.165-0.727,0.662-1.561,0.697-2.421c0.006-0.138,0.008-0.242,0.012-0.344c0.052-0.171,0.113-0.392,0.195-0.713
		c0.226-0.896,0.572-1.563,0.402-2.449c0.014-0.096,0.039-0.216,0.09-0.386c0.17-0.568,0.437-1.144,0.462-1.743
		c0.015-0.339,0.021-0.566,0.021-0.713c0.08-0.225,0.141-0.457,0.15-0.716c0.014-0.298,0.021-0.504,0.025-0.65
		c0.084-0.239,0.153-0.485,0.193-0.771c0.068-0.496,0.117-0.863,0.039-1.37c0.01-0.027,0.018-0.047,0.028-0.08
		c0.247-0.79,0.495-2.012,0.534-2.831c0.041-0.853,0.189-1.692-0.103-2.517C899.879,239.881,899.699,237.421,899.602,236.732z
		 M840.102,117.808C840.535,117.99,840.729,118.283,840.102,117.808L840.102,117.808z M762.438,97.912
		C762.184,97.956,762.234,97.928,762.438,97.912L762.438,97.912z M727.373,107.299c-0.104-0.011-0.182,0.008-0.277,0.004
		C727.18,107.291,727.272,107.288,727.373,107.299z M726.984,107.332C726.441,107.77,726.543,107.447,726.984,107.332
		L726.984,107.332z M676.131,135.307C675.967,135.646,676.007,135.485,676.131,135.307L676.131,135.307z M738.428,347.304
		C737.836,347.309,737.619,347.111,738.428,347.304L738.428,347.304z M763.195,346.809c0.041-0.015,0.082-0.025,0.123-0.042
		C763.289,346.778,763.245,346.793,763.195,346.809z M802.305,345.523C802.002,345.516,801.842,345.427,802.305,345.523
		L802.305,345.523z M806.98,344.681c0.055,0.021,0.105,0.029,0.157,0.048C807.082,344.715,807.028,344.699,806.98,344.681z
		 M808.088,344.802C808.461,344.77,808.359,344.792,808.088,344.802L808.088,344.802z M811.807,343.82
		C812.181,343.547,812.053,343.669,811.807,343.82L811.807,343.82z M893.174,267.534
		C893.324,267.237,893.469,267.206,893.174,267.534L893.174,267.534z M897.946,250.322
		C897.969,250.541,897.915,250.556,897.946,250.322L897.946,250.322z M897.847,249.897c0.038,0.11,0.06,0.202,0.076,0.284
		C897.901,250.088,897.881,249.995,897.847,249.897z"/>
	<path class="st0" d="M860.514,315.748c-0.123,0.233-0.016,0.231,0.203-0.294c-0.031,0.039-0.059,0.074-0.084,0.109
		C860.6,315.628,860.552,315.685,860.514,315.748z"/>
</g>
</svg>
