<svg version="1.1" id="レイヤー_5" xmlns="http://www.w3.org/2000/svg" xmlns:xlink="http://www.w3.org/1999/xlink" x="0px"
	 y="0px" width="986px" height="986px" viewBox="0 0 986 986" style="enable-background:new 0 0 986 986;" xml:space="preserve">
<style type="text/css">
<![CDATA[
	.st0{fill:#69C0FF;}
]]>
</style>
<g>
	<path class="st0" d="M787.293,236.959c0.066,0.027,0.152,0.068,0.254,0.117C787.695,237.089,787.568,237.039,787.293,236.959z"/>
	<path class="st0" d="M830.32,280.593C830.342,278.791,830.131,279.353,830.32,280.593L830.32,280.593z"/>
	<path class="st0" d="M787.877,237.241c-0.127-0.065-0.234-0.119-0.33-0.165c-0.023-0.002-0.061-0.008-0.097-0.014
		C787.563,237.112,787.703,237.172,787.877,237.241z"/>
	<path class="st0" d="M692.012,274.017C691.912,274.588,691.947,274.714,692.012,274.017L692.012,274.017z"/>
	<path class="st0" d="M786.077,249.222c-0.034-0.009-0.058-0.017-0.091-0.026c-0.063-0.017-0.117-0.031-0.17-0.046
		C785.891,249.17,785.969,249.191,786.077,249.222z"/>
	<path class="st0" d="M785.816,249.149C785.361,249.023,785.455,249.051,785.816,249.149L785.816,249.149z"/>
	<path class="st0" d="M813.195,270.747c-0.01-0.016-0.021-0.027-0.029-0.044C813.197,270.761,813.201,270.765,813.195,270.747z"/>
	<path class="st0" d="M816.182,276.308c-0.039-0.077-0.07-0.159-0.107-0.238C816.088,276.111,816.123,276.192,816.182,276.308z"/>
	<path class="st0" d="M815.628,275.123C815.439,275.043,815.584,275.312,815.628,275.123L815.628,275.123z"/>
	<path class="st0" d="M787.144,236.916c0.053,0.015,0.104,0.029,0.149,0.043C787.135,236.891,787.082,236.879,787.144,236.916z"/>
	<path class="st0" d="M773.195,176.041C773.367,176.396,773.334,175.998,773.195,176.041L773.195,176.041z"/>
	<path class="st0" d="M731.755,244.99C731.672,245.159,732.089,245.063,731.755,244.99L731.755,244.99z"/>
	<path class="st0" d="M752.209,255.463c0.005-0.019,0.012-0.036,0.018-0.055C752.233,255.377,752.226,255.397,752.209,255.463z"/>
	<path class="st0" d="M743.736,244.209C743.621,244.227,744.729,244.163,743.736,244.209L743.736,244.209z"/>
	<path class="st0" d="M731.807,244.922c-0.058,0.002-0.115,0.005-0.172,0.006c-0.023,0.011-0.045,0.024-0.068,0.035
		c0.078,0.009,0.143,0.018,0.188,0.027C731.765,244.971,731.782,244.948,731.807,244.922z"/>
	<path class="st0" d="M722.463,290.846c0.027,0.004,0.051,0.008,0.08,0.011c-0.31-0.093-0.462-0.128-0.496-0.127
		C722.19,290.763,722.325,290.808,722.463,290.846z"/>
	
		<rect x="716.408" y="290.064" transform="matrix(-0.8 -0.6 0.6 -0.8 1115.5045 951.9648)" class="st0" width="0.01" height="0.002"/>
	<path class="st0" d="M773.148,176.07c0.018-0.016,0.033-0.025,0.047-0.029c-0.029-0.063-0.065-0.148-0.107-0.261
		c-0.002,0.01-0.006,0.022-0.008,0.034C773.107,175.9,773.127,175.985,773.148,176.07z"/>
	<path class="st0" d="M831.291,290.845c0.061,0.12,0.096-0.043-0.004-1.139c0.248-0.946,0.277-1.901,0.061-2.866
		c-0.018-0.074-0.037-0.166-0.057-0.265c-0.008-0.219-0.016-0.444-0.021-0.667c-0.012-0.653-0.064-1.305-0.157-1.954
		c-0.083-0.358-0.148-0.633-0.207-0.871c-0.06-0.42-0.159-0.834-0.294-1.247c-0.145-0.446-0.234-0.872-0.291-1.243
		c-0.004,0.298-0.014,0.65-0.033,1.086c0.061-1.357-0.172-2.555-0.855-3.737c1.004,1.734-0.232-0.963-0.537-1.725
		c-0.012-0.03-0.02-0.049-0.031-0.078c-0.103-0.941-0.305-1.872-0.752-2.717c-0.346-0.652-0.584-1.064-0.742-1.304
		c-0.307-0.764-0.701-1.462-1.289-2.204c2.692,3.405,1.053,1.04,0.146-0.409c-0.143-0.227-0.279-0.453-0.414-0.678
		c-0.211-0.872-0.571-1.695-1.109-2.45c-0.106-0.214-0.236-0.465-0.396-0.768c-0.227-0.428-0.513-0.78-0.818-1.111
		c-0.276-0.555-0.604-1.061-0.99-1.537c-0.25-0.581-0.564-1.132-1.025-1.634c-0.209-0.229-0.375-0.41-0.521-0.573
		c-0.383-0.823-0.889-1.573-1.5-2.236c-0.338-0.631-0.766-1.166-1.278-1.629c-0.239-0.499-0.54-0.967-0.94-1.402
		c-0.297-0.322-0.512-0.547-0.697-0.732c-0.441-0.68-0.973-1.276-1.607-1.746c-0.164-0.258-0.349-0.511-0.574-0.757
		c0.039,0.042-2.271-2.379-0.896-0.635c-0.371-0.511-0.834-0.933-1.389-1.267c-0.008-0.006-0.016-0.009-0.023-0.016
		c-0.242-0.326-0.438-0.598-0.41-0.59c-0.222-0.236-0.465-0.446-0.72-0.641c-0.002-0.025-0.101-0.097-0.333-0.23
		c-0.295-0.194-0.604-0.367-0.932-0.504c-0.129-0.067-0.27-0.139-0.423-0.218c-0.063-0.032-0.114-0.056-0.159-0.074
		c-0.432-0.454-0.893-0.841-1.389-1.167c-0.777-0.858-1.742-1.462-2.951-1.913c-0.27-0.192-0.551-0.367-0.852-0.513
		c-0.908-0.88-2.002-1.812-3.125-2.015c1.051,0.19-2.156-1.19-1.219-0.606c-0.406-0.254-0.828-0.438-1.256-0.602
		c-0.186-0.124-0.404-0.268-0.662-0.434c-0.836-0.538-1.299-0.641-2.125-0.805c-0.277-0.056-0.518-0.101-0.727-0.138
		c-0.799-0.412-1.701-0.888-0.262-0.068c-0.424-0.239-0.865-0.436-1.293-0.667c-0.895-0.482-1.723-0.902-2.705-1.046
		c-0.131-0.038-0.275-0.079-0.432-0.122c-0.35-0.099-0.695-0.194-1.039-0.313c-0.481-0.167-0.861-0.31-1.156-0.428
		c0.189,0.098,0.412,0.22,0.666,0.364c-0.494-0.277-1.005-0.517-1.565-0.624c0.226,0.043,0.369,0.067,0.473,0.081
		c-0.161-0.07-0.265-0.121-0.307-0.146c-0.394-0.112-0.971-0.261-1.501-0.39c-0.53-0.291-1.088-0.5-1.672-0.619
		c-0.719-0.342-1.458-0.572-2.313-0.608c-0.209-0.009-0.393-0.015-0.563-0.02c-0.57-0.173-1.227-0.52-1.309-0.538
		c-1.377-0.507-1.643-0.742,0.361,0.258c-0.005,0-0.009,0-0.009,0c-0.874,0-1.692-0.647-2.75-0.691
		c-0.434-0.019-0.774,0.041-1.049,0.038c-0.218-0.036-0.429-0.034-0.616-0.061c-0.794-0.44-1.67-0.681-2.6-0.72
		c-0.233-0.021-0.464-0.009-0.689,0.004c-0.633-0.228-1.304-0.333-2.027-0.299c-0.008-0.002-0.013-0.001-0.021-0.004
		c-0.522-0.167-1.036-0.231-1.55-0.247c0.137-0.436,0.248-0.891,0.34-1.452c0.076-0.479,0.082-0.932,0.044-1.372
		c0.14-0.45,0.245-0.919,0.31-1.474c0.024-0.217,0.032-0.432,0.037-0.646c0.106-0.362,0.172-0.729,0.215-1.101
		c0.398-1.021,0.602-2.139,0.488-3.209c0.049-0.28,0.086-0.582,0.113-0.878c0.044-0.136,0.086-0.261,0.137-0.422
		c0.262-0.831,0.336-1.671,0.236-2.518c0.054-0.422,0.072-0.842,0.063-1.262c0.14-0.442,0.25-0.898,0.271-1.399
		c0.031-0.725,0.043-1.181,0.046-1.467c0.052-0.162,0.109-0.34,0.175-0.544c0.344-1.071,0.156-1.977,0.34-3.021
		c0.281-1.614,0.266-1.985,0.121-1.778c0.043-0.317,0.066-0.638,0.051-0.968c0.01-0.246,0.02-0.701,0.033-1.441
		c0.107-0.333,0.197-0.696,0.256-1.07c0.032-0.005,0.053-0.134,0.055-0.443c0.035-0.432,0.025-0.863-0.057-1.26
		c-0.005-0.085-0.01-0.164-0.016-0.257c-0.003-0.156-0.01-0.264-0.02-0.326c0.14-0.636,0.201-1.267,0.146-1.916
		c0.106-0.666,0.152-1.264,0.127-1.841c0.014-0.037,0.023-0.068,0.035-0.107c0.305-0.946,0.355-2.025,0.342-3.02
		c-0.011-0.73-0.028-1.193-0.047-1.485c0.084-0.767,0.05-1.47-0.092-2.16c0.105-0.63,0.195-1.208,0.23-1.521
		c0.111-0.438,0.201-0.881,0.221-1.339c0.026-0.605-0.092-1.305-0.191-1.957c0.42,0.003,0.863-0.044,1.328-0.155
		c1.055,0.271,2.046,0.405,3.104,0.297c0.402,0.077,0.794,0.11,1.188,0.119c0.327,0.094,0.658,0.162,0.998,0.197
		c0.003,0.007,0.037,0.012,0.102,0.016c0.02,0.002,0.037,0.002,0.057,0.003c0.076,0.003,0.186,0.002,0.328,0.002
		c0.214,0.004,0.426,0.005,0.639-0.016c0.274-0.009,0.6-0.021,1-0.038c-2.391,0.103,2.47,0.131,3.027-0.008
		c-1.84,0.458-2.182,0.383,0.568,0.455c0.339,0.017,0.676,0.01,1.014-0.015c1.143,0.205,2.353,0.029,3.475-0.075
		c-2.139,0.201,0.975,0.094,1.809-0.07c0.389-0.075,0.6-0.126,0.709-0.161c0.199,0.006,0.277-0.003,0.237-0.025
		c0.884,0.176,1.731,0.281,2.673,0.031c0.061-0.015,0.107-0.025,0.152-0.037c0.123,0.004,0.185-0.001,0.101-0.025
		c0.211-0.06,0.146-0.076-0.206-0.049c-0.146-0.031-0.363-0.071-0.677-0.127c0.526,0.093,5.441,0.342,3.021,0.211
		c0.652,0.053,1.306,0.012,1.955-0.127c0.051-0.011,0.084-0.02,0.135-0.031c0.645,0.001,1.254-0.13,1.849-0.331
		c0.931,0.036,1.452,0.032,0.384-0.019c0.855,0.041,1.594-0.049,2.338-0.27c0.701,0.075,1.389,0.05,2.131-0.226
		c0.391-0.146,0.531-0.229,0.541-0.275c0.724-0.049,1.236-0.124,1.933-0.301c0.288-0.074,0.521-0.135,0.728-0.189
		c0.823,0.01,1.643-0.098,2.506-0.295c0.531-0.121,1.044-0.308,1.538-0.534c0.613-0.035,1.257-0.201,1.831-0.456
		c1.019-0.077,1.865-0.299,2.686-0.735c6.664-0.686,6.779-11.499-0.527-11.863c-1.471-0.073-2.692,0.191-3.836,0.715
		c-0.746,0.005-1.463,0.139-2.148,0.411c-0.765,0.11-1.498,0.368-2.227,0.722c-0.086-0.003-0.166-0.008-0.26-0.012
		c-1.211-0.051-2.234,0.316-3.314,0.74c-0.611,0.051-1.098,0.137-1.635,0.304c-0.527-0.022-1.059,0.025-1.594,0.146
		c-0.338,0.031-0.655,0.101-0.969,0.185c-0.299-0.003-0.586,0.029-0.867,0.093c-0.584-0.042-1.171-0.006-1.762,0.127
		c-0.133,0.03-0.254,0.059-0.369,0.086c-0.434,0.02-0.856,0.085-1.27,0.197c-1.402-0.095-2.262-0.188-0.49,0.145
		c-0.003,0.001-0.008,0.002-0.009,0.003c-0.554-0.09-1.107-0.154-1.677-0.134c-2.491,0.086-3.289-0.301,0.129,0.406
		c-0.892-0.184-1.754-0.353-2.662-0.359c-1.471-0.01-2.715,0.254-4.115,0.528c1.508-0.295,0.421-0.195-0.555-0.094
		c0.886-0.106,1.154-0.216-1.109-0.312c-1.416-0.06-1.852-0.069-1.824-0.039c-0.354-0.053-0.709-0.101-1.06-0.158
		c-2.321-0.382-2.192-0.25-1.479-0.038c-0.109,0.001-0.217-0.018-0.324-0.009c0.975,0.237,1.138,0.29,0.494,0.156
		c-0.711-0.225-1.431-0.306-2.154-0.266c-0.826-0.144-1.643-0.083-2.509,0.041c0,0-0.003-0.001-0.003-0.002
		c2.843-0.425,2.412-0.17-0.15-0.261c-0.278-0.01-0.52-0.021-0.741-0.035c-0.218-0.069-0.41-0.13-0.535-0.169
		c-1.1-0.334-2.126-0.434-3.173-0.255c-0.023-0.346-0.084-0.69-0.172-1.034c-0.064,0.063-0.142,0.213-0.229,0.542
		c0.072-0.274,0.115-0.536,0.16-0.798c-0.02-0.065-0.028-0.131-0.051-0.195c0.021,0.063,0.039,0.11,0.059,0.161
		c0.188-1.123,0.143-2.166-0.053-3.34c0.004-0.05,0.01-0.105,0.014-0.163c0.115,0.216,0.42,1.111,0.041-0.574
		c0.011-0.191,0.021-0.398,0.031-0.642c0.047-1.091,0.053-1.579,0.037-1.756c0.23-0.89,0.301-1.916,0.02-2.725
		c-0.021-0.065-0.043-0.121-0.063-0.175c0.065-0.315,0.135-0.79,0.205-1.487c0.107-1.056,0.042-2.155-0.119-3.223
		c0.015-0.274,0.033-0.735,0.064-1.473c0.123-2.902,0.017-1.634-0.057-1.34c0.055-0.709,0.123-2.846,0.061-3.137
		c-0.049-0.231-0.109-0.459-0.174-0.684c0.002-0.084,0.013-0.167,0.011-0.252c-0.022-0.922,0.144-3.361-0.089-1.443
		c0.229-1.887,0.577-3.942-0.23,0.13c0.235-1.192,0.392-2.148,0.332-3.238c0.266-0.854,0.334-1.7,0.221-2.556
		c0.211-0.864,0.193-1.674,0.031-2.466c0.012-0.174,0.021-0.348,0.01-0.522c0.102,1.624,0.096-0.139,0.021-1.587
		c0.113-0.565,0.107-1.05,0.096-1.656c-0.009-0.659-0.08-1.31-0.213-1.952c0.389,2.062,0.096,0.192-0.008-0.727
		c0.031-0.053,0.061-0.212,0.082-0.568c0.111-1.904,0.033,2.288,0.206-1.798c0.001-0.016-0.003-0.03-0.002-0.046
		c0.167,0.831,0.303,1.095,0.103-1.395c-0.047-0.565-0.08-1.123-0.154-1.674c0.023-0.196,0.045-0.394,0.05-0.59
		c0.19-0.647,0.284-1.32,0.228-2.062c-0.57-7.445-12.121-8.123-11.904-0.832c-0.021,0.063-0.039,0.119-0.061,0.188
		c-0.23,0.714-0.293,1.385-0.243,2.036c-0.22,0.797-0.273,1.618-0.015,2.438c-0.096,0.542-0.119,1.094-0.056,1.635
		c-0.038,0.289-0.062,0.58-0.046,0.875c0.061,1.154-0.355,2.228,0,3.391c0.006,0.018,0.01,0.028,0.014,0.045
		c0,0.293,0.025,0.586,0.063,0.877c-0.184,0.78-0.213,1.61-0.051,2.395c-0.086,0.502-0.117,0.789,0.053,0.205
		c0.004,0.021,0.01,0.044,0.016,0.065c-0.127,0.658-0.161,1.267-0.121,1.854c-0.15,0.694-0.199,1.385-0.141,2.084
		c-0.102,0.425-0.164,0.866-0.16,1.341c0.003,0.506,0.045,1.01,0.104,1.512c-0.149,0.695-0.174,1.397-0.074,2.104
		c-0.027,0.002-0.059,0.096-0.09,0.352c0.029-0.232,0.057-0.044,0.082,0.291c-0.043,0.125-0.078,1.755-0.083,1.872
		c-0.026,0.646,0.06,1.267,0.23,1.867c-0.054,0.57-0.04,1.145-0.003,1.742c0.014,0.222,0.027,0.409,0.041,0.582
		c-0.047,0.308-0.103,0.704-0.164,1.223c-0.027,0.221,0.143,2.156,0.229,2.688c-0.094,0.684-0.322,1.227,0.121,0.074
		c-0.496,1.289-0.561,2.731-0.355,4.092c-0.014,0.211-0.027,0.449-0.041,0.732c-0.031,0.63-0.033,1.248,0,1.867
		c-0.215,0.989-0.152,1.979,0.084,2.977c-0.283-1.194-0.219-0.675-0.078,0.171c0.053,0.535,0.145,1.678,0.052,2.578
		c-0.04,0.393-0.046,0.786-0.01,1.175c-0.241,0.859-0.296,1.769-0.149,2.647c0.004,0.054-0.008-0.053-0.002,0.003
		c0.027,0.301,0.068,0.192,0.109,0.192h0.002c-0.16,1-0.168,1.838-0.051,2.77c-0.072,0.565-0.064,1.206-0.009,1.817
		c-0.011,0.018-0.016,0.157-0.013,0.4c0.011,1.225-0.182,2.691,0.06,1.106c0.221-1.452,0.058-0.245-0.052,0.991
		c-0.298,0.897-0.277,1.448-0.238,2.272c0.029,0.627,0.074,1.06,0.158,1.502c-0.168,0.666-0.275,1.33-0.309,1.995
		c-0.018-0.494-0.041-0.385-0.123,1.564c-0.023,0.571,0.064,1.099,0.197,1.61c-0.027,0.188-0.063,0.376-0.086,0.566
		c-0.23,1.78-0.191,1.956-0.095,1.775c-0.107,0.455-0.188,0.927-0.267,1.467c-0.091,0.606-0.045,1.174,0.076,1.725
		c-0.07,0.396-0.117,0.797-0.129,1.207c-0.141-0.978-0.289-1.642-0.144,0.608c-0.032,0.118-0.073,0.604-0.126,1.871
		c-0.024,0.562-0.036,0.976-0.037,1.272c-0.067,0.347-0.084,0.525,0.002,0.29c0.002,0.079,0.006,0.138,0.01,0.186
		c-0.162,0.79-0.224,1.57-0.176,2.352c-0.123,0.527-0.211,1.07-0.203,1.666c0.01,0.726-0.035,1.421-0.039,1.675
		c-0.297,1.067-0.384,2.139-0.363,3.252c-0.245,0.802-0.344,1.615-0.279,2.523c-0.128,0.53-0.189,1.057-0.168,1.579
		c-0.111,0.441-0.193,0.896-0.197,1.395c-0.014,1.967-0.234-2.396-0.41,1.765c-0.007,0.128,0.012,0.25,0.013,0.376
		c-0.222,0.645-0.3,1.325-0.282,2.011c-0.113,0.458-0.176,0.927-0.188,1.415c-0.341,0.829-0.589,1.732-0.624,2.574
		c-0.015,0.335,0.004,0.648,0.047,0.952c-0.221,0.592-0.336,1.162-0.361,1.72c-0.538-0.022-1.273-0.012-1.842,0.003
		c1.861-0.092-1.07-0.231-1.254-0.239c-0.897-0.038-1.738,0.16-2.582,0.404c-0.035-0.021-0.078-0.044-0.136-0.069
		c-0.841-0.266-1.692-0.335-2.55-0.23c-0.803-0.105-1.609-0.068-2.407,0.218c1.321-0.474,0.487-0.069-1.079,0.095
		c-1.1,0.115,1.51-0.279-0.211-0.155c-0.365,0.026-0.715,0.01-1.082-0.006c-3.245-0.142-1.118,0.086-1.362,0.139
		c-0.958-0.203-2.308-0.363-3.376-0.164c-0.1-0.004-0.198-0.01-0.31-0.015c-0.407-0.017-0.79,0.024-1.163,0.093
		c-0.094-0.009-0.177-0.022-0.277-0.027c-3.57-0.15-0.725,0.125-1.436,0.132c-3.738,0.04-0.602,0.131-1.436,0.121
		c-0.642-0.008-1.219,0.098-1.781,0.255c-0.559,0.001-1.111,0.061-1.676,0.216c-0.256,0.041-0.566,0.092-0.977,0.159
		c-0.354,0.058-0.709,0.116-1.066,0.159c-0.37,0.045-0.729,0.139-1.074,0.267c-0.707,0.001-1.359,0.122-1.986,0.342
		c-0.271,0.017-0.542,0.048-0.822,0.112c-1.654,0.381-1.863,0.481-1.709,0.492c0,0-0.01,0.001-0.018,0.002
		c-0.49,0.042-0.955,0.193-1.404,0.402c-0.965,0.131-1.829,0.376-2.829,0.846c-0.306,0.132-0.593,0.294-0.866,0.478
		c-0.504,0.087-0.989,0.242-1.447,0.513c-0.178,0.113-0.252,0.176-0.271,0.211c-2.748,0.851,0.697-0.924-2.449,0.744
		c-0.455,0.241-0.875,0.551-1.27,0.891c-0.41,0.143-0.814,0.322-1.223,0.563c-0.545,0.324-1.527,0.954-1.842,1.28
		c-0.189,0.197-0.348,0.34-0.477,0.445c-0.866,0.414-1.656,0.91-2.523,1.57c0.076-0.058-0.113,0.188-0.359,0.495
		c-0.432,0.38-2.004,2.001-2.145,2.218c-0.042,0.065-0.074,0.116-0.115,0.178c-0.596,0.578-1.27,1.262-1.361,1.404
		c-1.176,1.827-1.131,1.739-0.396,0.839c-0.176,0.229-0.334,0.474-0.479,0.729c-0.816,0.683-1.442,1.467-1.829,2.504
		c-0.346,0.404-0.624,0.844-0.848,1.313c-0.508,0.604-0.898,1.261-1.197,1.988c-0.428,0.562-0.748,1.161-0.98,1.832
		c-0.359,0.505-0.934,1.641-1.008,1.996c-0.066,0.314-0.104,0.515-0.118,0.639c-0.001,0-0.001,0-0.001,0.001
		c-0.533,0.806-0.814,1.77-0.971,2.746c-0.211,0.698-0.447,1.695-0.551,2.187c-0.202,0.704-0.457,1.334-0.635,2.019
		c-0.074,0.198-0.158,0.422-0.262,0.695c-0.318,0.849-0.469,1.708-0.578,2.612c-0.035,0.298-0.07,0.588-0.09,0.88
		c-0.037,0.132-0.093,0.258-0.116,0.395c-0.165,0.757-0.339,1.514-0.372,2.289c-0.032,0.736-0.068,1.235-0.098,1.563
		c0.068-0.396,0.2-1.001,0.434-1.684c-0.367,1.077-0.599,2.376-0.258,3.502c-0.105,0.889-0.088,1.7,0.151,2.55
		c-0.098,0.86,0.059,1.67,0.354,2.473c0.1,0.271,0.188,0.504,0.266,0.701c0.07,0.832,0.168,1.703,0.154,0.388
		c0.002,0.005,0.004,0.01,0.006,0.015c0.041,1.405,0.273,2.966,1.226,4.07c0.185,0.728,0.497,1.41,1.021,2.031
		c-0.018,0.05,0.136,0.41,0.761,1.588c0.202,0.383,3.131,3.665,1.828,1.884c0.283,0.388,0.624,0.715,0.951,1.063
		c0.043,0.046,0.063,0.07,0.1,0.11c0.465,0.93,1.1,1.699,2.065,2.405c0.632,0.462-1.683-1.107,1.079,0.968
		c0.385,0.29,0.771,0.58,1.158,0.87c0.666,0.5,0.92,0.767,1.854,1.079c0.188,0.16,0.554,0.42,1.213,0.845
		c0.598,0.386,1.223,0.631,1.869,0.766c2.109,1.322,0.304-0.111,0.864,0.182c0.534,0.279,2.522,1.513,1.014,0.363
		c1.118,0.852,2.28,1.024,3.63,1.222c-1.699-0.25-0.641-0.066-0.193,0.144c0.455,0.242,0.943,0.38,1.463,0.42
		c0.686,0.247,1.399,0.385,2.19,0.448c-2.114-0.171,0.782,0.202,1.431,0.189c0.37-0.008,0.715,0.033,1.08,0.076
		c1.809,0.212,2.137,0.172,1.863,0.053c0.58,0.037,1.164,0.053,1.734,0.107c0.693,0.068,1.309-0.059,1.91-0.257
		c1.283,0.233,2.48,0.016,3.67-0.404c0.434-0.028,0.854-0.108,1.264-0.221c0.846-0.025,1.69-0.21,2.639-0.583
		c0.214-0.084,0.368-0.146,0.482-0.193c0.008,0.005,0.036,0.004,0.11-0.012c3.229-0.668,1.009-0.216,0.03-0.047
		c0.254-0.109,0.057-0.043-0.067,0.012c-0.562,0.094-0.601,0.069,1.421-0.396c0.959-0.22,1.869-0.725,2.676-1.338
		c0.475-0.184,0.922-0.41,1.339-0.704c1.007-0.397,1.88-0.993,2.695-1.751c0.32-0.135,0.643-0.264,0.952-0.431
		c0.963-0.518,1.666-1.241,2.207-2.106c0.383-0.208,0.76-0.444,1.146-0.763c0.522-0.43,0.932-0.902,1.289-1.407
		c1.09-0.794,2.113-1.806,2.771-2.828c0.206-0.319,0.36-0.563,0.49-0.768c0.784-0.617,1.375-1.516,1.777-2.411
		c0.17-0.209,0.342-0.417,0.498-0.639c0.347-0.496,0.605-1.047,0.887-1.582c0.264-0.503,0.766-0.989,1.123-1.433
		c0.527-0.656,0.813-1.377,0.986-2.149c0.498-0.673,0.887-1.416,1.178-2.258c0.477-0.586,0.875-1.26,1.207-2.113
		c0.207-0.533,0.679-1.169-0.145,0.037c0.419-0.614,0.703-1.242,0.881-1.928c0.66-0.888,1.074-1.867,1.189-3.022
		c0.396-0.595,0.676-1.244,0.84-1.946c0.393-0.71,0.654-1.489,0.693-2.422c0.006-0.153,0.012-0.294,0.016-0.427
		c0.023-0.055,0.045-0.108,0.07-0.171c0.178-0.448,0.305-0.795,0.394-1.061c0.356-0.699,0.56-1.408,0.638-2.165
		c0.139-0.392,0.247-0.801,0.332-1.226c0.08-0.017,0.277-0.446,0.691-1.733c1.27-3.95-0.426,0.038,0.254-1.802
		c0.131-0.353,0.324-1.27,0.457-1.965c0.646-1.063,0.807-2.239,0.73-3.441c0.047-0.127,0.102-0.313,0.17-0.579
		c0.025-0.085,0.044-0.15,0.059-0.207c0.465-0.834,0.829-1.749,0.809-2.718c-0.054-2.534,0.055,1.855,0.287-2.148
		c0.035-0.609,0.033-0.848-0.006-0.86c0.154-0.408,0.278-0.812,0.375-1.219c0.528,0.094,1.053,0.106,1.572,0.049
		c0.455,0.103,0.916,0.165,1.385,0.182c0.781,0.29,1.594,0.448,2.455,0.422c0.703,0.188,1.436,0.304,2.205,0.395
		c-1.828-0.216-0.303-0.033,0.189,0.126c0.561,0.183,1.113,0.253,1.662,0.256c3.167,1.006,0.428-0.091,1.203,0.177
		c2.252,0.778,1.926,0.595,1.543,0.427c0.48,0.183,0.984,0.246,1.496,0.24c0.311,0.181,0.63,0.343,0.965,0.467
		c-0.516-0.024-0.434,0.07,1.563,0.451c0.221,0.057,0.343,0.076,0.373,0.064c0.795,0.381,1.521,0.562,2.509,0.727
		c-0.315-0.044-0.642-0.066,0.13,0.154c0.237,0.065,0.536,0.145,0.859,0.23c-0.092-0.113,0.176-0.117,0.9,0.23
		c0,0,0.001,0,0.001,0.001c0.598,0.148,1.124,0.268,1.286,0.271c-0.346-0.006-0.643-0.037-0.91-0.078
		c0.965,0.517,2.711,1.544,1.252,0.596c0.857,0.557,1.686,0.867,2.613,1.035c0.344,0.205,0.707,0.396,1.137,0.559
		c0.475,0.181,1.741,0.945,0.279,0.034c0.409,0.269,0.846,0.486,1.297,0.678c0.002,0.034,0.072,0.112,0.256,0.26
		c2.082,1.671,1.494,0.786,0.445-0.155c0.576,0.516,1.107,1.026,1.691,1.471c0.062,0.099,0.47,0.405,1.49,1.063
		c0.336,0.216,0.674,0.359,1.016,0.483c0.246,0.238,0.516,0.462,0.822,0.659c0.297,0.191,0.541,0.344,0.748,0.468
		c0.734,0.648,1.865,1.501,0.717,0.433c0.51,0.474,1.008,0.869,1.537,1.2c0.436,0.544,0.924,1.043,1.516,1.426
		c0.107,0.068,0.188,0.118,0.279,0.179c0.068,0.063,0.141,0.12,0.209,0.179c0.525,0.813,1.176,1.492,1.988,2.042
		c0.115,0.149,0.234,0.296,0.356,0.438c0.391,0.79,0.901,1.464,1.513,2.053c0.203,0.364,0.432,0.717,0.732,1.043
		c0.271,0.295,0.479,0.512,0.656,0.696c0.398,0.637,0.777,1.204,1.203,1.733c0.059,0.146,0.121,0.292,0.189,0.422
		c0.219,0.405,0.479,0.771,0.77,1.106c0.178,0.389,0.34,0.742,0.359,0.797c0.201,0.37,0.445,0.688,0.709,0.982
		c0.118,0.255,0.25,0.503,0.406,0.741c0.225,0.947,0.675,1.833,1.328,2.559c0.004-0.089-0.004-0.216-0.033-0.411
		c0.027,0.182,0.084,0.341,0.129,0.509c0.087,0.092,0.17,0.187,0.264,0.272c-0.104-0.095-0.184-0.158-0.246-0.204
		c0.084,0.307,0.191,0.599,0.322,0.874c-0.031-0.103,0.053,0.02,0.168,0.342c-0.018-0.031-0.045-0.076-0.061-0.104
		c0.027,0.049,0.049,0.1,0.076,0.147c0.051,0.15,0.106,0.329,0.162,0.562c0.156,0.663,0.422,1.269,0.775,1.828
		c0.037,0.219,0.072,0.41,0.096,0.535c0.166,0.858,0.496,1.546,0.916,2.208c0.01,0.068,0.022,0.147,0.039,0.237
		c-0.331-0.329-0.42-0.255,0.16,0.806c0.033,0.156,0.072,0.324,0.115,0.513c0.394,1.712,0.496,1.878,0.51,1.694
		c0.013,0.372,0.053,0.744,0.14,1.117c0.069,0.3,0.126,0.539,0.177,0.752c-0.008,0.605,0.04,1.186,0.152,1.764
		c-0.071,0.909-0.033,1.805,0.077,2.857c-0.283-2.689,0.087,3.906,0.054,1.669c0.117,7.643,12.014,8.188,11.896,0.502
		C831.513,292.609,831.488,291.718,831.291,290.845z M814.115,187.019c0.057-0.032,0.088-0.057,0.135-0.086
		c0.148-0.027,0.379-0.052,0.726-0.065c0.101-0.004,0.192-0.014,0.288-0.02c-0.551,0.187-1.02,0.214-1.171,0.182
		C814.102,187.025,814.109,187.023,814.115,187.019z M777.715,177.855h0.002c-0.033,0.006-0.066,0.01-0.1,0.015
		C777.652,177.865,777.681,177.861,777.715,177.855z M775.88,177.434C775.631,177.403,775.633,177.393,775.88,177.434
		L775.88,177.434z M761.23,155.036C761.24,155.285,761.241,155.354,761.23,155.036L761.23,155.036z M761.14,183.324
		c0.003,0.013,0.003,0.021,0.005,0.033C761.313,184.441,761.152,184.103,761.14,183.324z M699.234,292.965
		C699.416,293.182,699.381,293.179,699.234,292.965L699.234,292.965z M750.759,232.485c-0.026,0.005-0.052,0.008-0.077,0.012
		c-0.033,0.002-0.064,0.006-0.084,0.009C750.213,232.545,749.973,232.492,750.759,232.485z M739.747,243.998
		c0.712-0.001,1.005-0.004,0.095,0.059c-0.168,0.012-0.289,0.022-0.389,0.033C739.553,244.06,739.648,244.032,739.747,243.998z
		 M725.074,245.821c-0.488,0.36-0.834,0.598-1.264,0.739C724.432,246.212,724.959,245.906,725.074,245.821z M719.584,248.414
		c1.06-1.088,0.959-0.449-0.023,0.02C719.568,248.427,719.576,248.421,719.584,248.414z M719.396,248.506
		c-0.288,0.118-0.633,0.219-1.037,0.263C718.719,248.729,719.061,248.628,719.396,248.506z M716.824,249.785
		c0.012-0.003,0.023-0.005,0.034-0.007c-0.071,0.048-0.13,0.085-0.224,0.146C716.717,249.871,716.768,249.828,716.824,249.785z
		 M710.83,240.223c-0.412,0.126-0.793,0.262-1.154,0.409C709.979,240.507,710.358,240.367,710.83,240.223z M709.033,240.934
		C708.658,241.239,708.594,241.174,709.033,240.934L709.033,240.934z M704.584,269.392c0.012,0.278-0.021,0.543-0.09,0.796
		C704.516,269.924,704.551,269.661,704.584,269.392z M704.43,270.376c-0.078,0.213-0.178,0.42-0.315,0.614
		C704.225,270.78,704.327,270.578,704.43,270.376z M707.759,286.473c0.288,0.015,0.54,0.04,0.769,0.069
		c0.004,0.006,0.008,0.012,0.014,0.019C708.28,286.519,708.02,286.486,707.759,286.473z M719.469,290.698
		c-0.139-0.018-0.066-0.017,0.063-0.011C719.51,290.692,719.49,290.693,719.469,290.698z M754.51,245.757
		c-0.172,0.494-0.236,1.058-0.285,1.611c-0.617,1.336-0.918,2.888-0.992,4.405c-0.343,0.91-0.509,1.853-0.658,2.943
		c0.251-1.828-0.004-0.306-0.181,0.174c-0.062,0.168-0.116,0.342-0.167,0.518c-0.006,0.031-0.027,0.115-0.068,0.262
		c0.021-0.092,0.037-0.158,0.051-0.207c-0.025,0.09-0.047,0.182-0.068,0.272c-0.082,0.297-0.226,0.791-0.469,1.582
		c-0.134,0.435-0.227,0.877-0.299,1.325c-0.098,0.268-0.221,0.629-0.374,1.111c-0.132,0.409-0.198,0.809-0.228,1.208
		c-0.352,0.822-0.595,1.709-0.779,2.786c0.328-1.917-0.141-0.268-0.279,0.146c-0.137,0.406-0.206,0.809-0.236,1.21
		c-0.016,0.04-0.035,0.078-0.049,0.117c-0.484,0.733-0.805,1.548-0.935,2.467c-0.036,0.114-0.068,0.21-0.11,0.342
		c-0.024,0.077-0.039,0.152-0.059,0.23c-0.413,0.648-0.733,1.351-0.871,2.127c0.268-1.499-0.201,0.101-0.586,1.348
		c-0.443,0.649-0.791,1.357-1.112,2.148c-0.528,0.614-0.97,1.32-1.353,2.247c-0.091,0.225-0.17,0.419-0.241,0.6
		c-0.065,0.079-0.136,0.167-0.222,0.276c-0.453,0.589-0.781,1.201-1.129,1.856c-0.052,0.096-0.082,0.161-0.105,0.213
		c-0.16,0.194-0.32,0.389-0.457,0.584c-0.84,0.714-1.469,1.61-2.166,2.576c-0.162,0.225-0.299,0.416-0.418,0.587
		c-0.773,0.388-1.398,0.983-1.887,1.684c-0.826,0.52-1.547,1.194-2.146,1.97c-0.501,0.237-0.969,0.536-1.408,0.94
		c-0.224,0.206-0.396,0.366-0.547,0.509c-0.271,0.109-0.53,0.237-0.781,0.383c-0.367,0.099-0.73,0.231-1.092,0.422
		c-0.307,0.159-0.59,0.347-0.855,0.554c-0.359,0.11-0.713,0.242-1.057,0.422c-0.047,0.031-0.081,0.056-0.115,0.08
		c-0.275,0.075-0.547,0.172-0.818,0.288c-0.705,0.043-1.375,0.206-2.034,0.48c-0.202,0.031-0.403,0.074-0.604,0.118
		c-0.469-0.052-0.943-0.07-1.432-0.027c-0.699,0.063-1.258,0.129-1.811,0.244c-0.09-0.01-0.197-0.017-0.334-0.019
		c-0.068,0-0.134,0.019-0.199,0.011c0.086,0.026,0.181,0.118,0.295,0.118h-0.002c-0.121,0-0.248-0.094-0.373-0.129
		c-0.265-0.041-0.468-0.127-0.416-0.129c-0.806-0.185-1.653-0.246-2.457-0.059c-0.129-0.01-0.297-0.029-0.527-0.047
		c-0.815-0.402-1.766-0.605-2.645-0.567c0.047,0.033,0.096,0.065,0.143,0.099c-0.047-0.035-0.098-0.065-0.145-0.099
		c-0.025,0.001-0.053-0.005-0.08-0.003c0.029-0.001,0.047-0.002,0.072-0.003c-0.045-0.032-0.091-0.063-0.137-0.094
		c0.047,0.029,0.093,0.062,0.139,0.094c0.238-0.013,0.416-0.016,0.537-0.012c-0.109-0.019-0.248-0.048-0.418-0.102
		c-0.217-0.068-0.412-0.13-0.588-0.188c-0.299-0.173-0.617-0.303-0.946-0.406c0.237,0.084,0.549,0.212,0.872,0.382
		c-1.215-0.4-1.426-0.537-1.18-0.479c-0.059-0.015-0.119-0.036-0.181-0.047c1.446,0.272,0.24-0.078-0.7-0.321
		c-0.057-0.036-0.098-0.063-0.157-0.102c-0.419-0.271-0.856-0.451-1.301-0.596c-0.735-0.557-1.563-0.993-2.437-1.289
		c0.087,0.024-0.01-0.047-0.309-0.142c0.109,0.06,0.191,0.099,0.248,0.121c-0.203-0.066-0.41-0.127-0.617-0.178
		c-0.009-0.017-0.02-0.032-0.029-0.049c0.16,0.035,0.291,0.071,0.398,0.105c-0.059-0.033-0.125-0.072-0.198-0.118
		c-0.038-0.044-0.2-0.186-0.425-0.373c-0.692-1.189-1.596-2.343-2.62-3.231c-0.261-0.518-0.566-1.014-0.907-1.479
		c-0.156-0.534-0.367-1.045-0.641-1.529c-0.131-0.451-0.328-1.12-0.512-1.717c0-0.088,0-0.191-0.002-0.333
		c-0.01-0.648-0.092-1.234-0.217-1.802c0.014-0.112,0.039-0.223,0.049-0.336c0.049-0.401,0.037-0.804-0.004-1.204
		c0.191-1.144,0.27-2.544,0.063-2.155c0.168-0.742,0.313-1.461,0.295-1.648c-0.018-0.198-0.006-0.392,0.009-0.584
		c0.371-0.746,0.649-1.479,0.708-2.364c0.055-0.071,0.154-0.266,0.324-0.691c0.191-0.482,0.303-1.004,0.363-1.532
		c0.176-0.368,0.313-0.761,0.41-1.185c0.1-0.264,0.25-0.706,0.471-1.422c0.229-0.736,0.211-0.841,0.148-0.783
		c0.225-0.391,0.414-0.773,0.58-1.152c0.426-0.501,0.777-1.057,1.023-1.7c0.389-0.436,0.711-0.913,0.955-1.44
		c0.422-0.525,0.757-1.107,1.039-1.72c0.34-0.351,0.668-0.719,0.984-1.136c0.78-1.032-1.051,0.952-0.204-0.035
		c0.29-0.34,0.534-0.676,0.761-1.014c0.501-0.442,0.935-0.925,1.318-1.464c0.436-0.353,0.846-0.729,1.214-1.16
		c0.819-0.321,1.556-0.729,2.226-1.415c0.086-0.088,0.223-0.212,0.34-0.322c0.874-0.206,1.688-0.568,2.385-1.262
		c0.111-0.043,0.222-0.087,0.332-0.133c-0.114,0.066,1.529-0.53,1.97-0.811c-1.306,0.833,0.389-0.066,1.781-0.844
		c1.037-0.088,1.954-0.28,2.942-0.826c-1.027,0.567-0.104,0.281,0.904-0.098c0.387-0.036,0.758-0.11,1.125-0.21
		c1.012,0.028,2.008-0.117,2.973-0.569c-0.085-0.009-0.186-0.017-0.314-0.022c0.132,0.006,0.254-0.012,0.383-0.013
		c0.18-0.088,0.359-0.17,0.536-0.279c-0.194,0.12-0.304,0.208-0.364,0.273c0.67-0.024,1.299-0.135,1.904-0.328
		c0.4-0.022,0.803-0.238,1.221-0.34c0.309-0.02,0.617-0.254,0.924-0.254c0.012,0,0.02,0,0.033,0c0.178,0,0.318,0.153,0.466,0.151
		c0.991,0.194,1.929,0.193,2.86-0.069c0.245,0.091,2.52,0.185,3.154,0.154c0.67-0.033,1.092-0.034,1.367-0.047
		c0.042-0.008,0.245-0.016,0.797-0.055c0.821-0.06,1.326,0.072,2.311-0.03c0.65-0.072,0.48-0.042-0.512,0.089
		c0.493,0.035,0.985,0.003,1.477-0.064c0.242,0.023,0.484,0.036,0.727,0.03c0.266,0.033,0.596,0.076,1.03,0.129
		c0.483,0.06,0.946,0.091,1.433,0.095c0.742,0.006,1.555-0.141,2.309-0.239c0.08-0.011,0.143-0.019,0.211-0.027
		c0.369,0.038,0.738,0.051,1.107,0.037C754.502,244.738,754.484,245.168,754.51,245.757z M775.215,234.254
		c-1.629-0.193-0.838-0.59,0.47,0.061C775.492,234.288,775.328,234.267,775.215,234.254z M775.879,234.418
		c-0.016-0.008-0.029-0.018-0.043-0.025c0.014,0.008,0.029,0.018,0.045,0.026C775.881,234.418,775.879,234.418,775.879,234.418z
		 M776.346,234.717l0.006,0.001c0.023,0.017,0.045,0.03,0.068,0.047C776.395,234.747,776.369,234.734,776.346,234.717z
		 M781.775,235.412c0.1,0.042,0.14,0.064,0.158,0.08C781.893,235.468,781.846,235.441,781.775,235.412z M790.288,250.133
		c0.269,0.26,0.524,0.487,0.782,0.7C790.795,250.633,790.53,250.409,790.288,250.133z M795.506,240.227
		c0.058,0.038,0.072,0.05,0.069,0.055C795.561,240.266,795.539,240.249,795.506,240.227z M818.689,282.324
		c-0.006-0.02-0.013-0.038-0.018-0.057c0.111,0.152,0.219,0.304,0.342,0.461C818.904,282.589,818.795,282.451,818.689,282.324z
		 M819.033,284.781c-0.002-0.068-0.006-0.149-0.016-0.229c0.008,0.023,0.014,0.042,0.02,0.063
		C819.037,284.671,819.031,284.725,819.033,284.781z M820.684,260.458C820.011,259.704,820.318,259.997,820.684,260.458
		L820.684,260.458z"/>
	<path class="st0" d="M714.995,289.355c-0.114-0.041-0.216-0.074-0.284-0.092C714.809,289.287,714.9,289.326,714.995,289.355z"/>
	<path class="st0" d="M786.846,249.426c0.088,0.107,0.521,0.31,1.277,0.424c-0.148-0.078-0.278-0.146-0.376-0.192
		C787.451,249.583,787.143,249.504,786.846,249.426z"/>
	<path class="st0" d="M716.947,290.051C717.216,290.094,717.268,290.059,716.947,290.051L716.947,290.051z"/>
	<path class="st0" d="M815.639,275.029c-0.002,0.038-0.004,0.07-0.011,0.094c0.032,0.013,0.071,0.035,0.124,0.072
		c-0.006-0.022-0.012-0.045-0.018-0.068C815.703,275.094,815.67,275.063,815.639,275.029z"/>
</g>
</svg>
